<svg width="72" height="72" viewBox="0 0 72 72" fill="none" xmlns="http://www.w3.org/2000/svg">
<path d="M64.2505 15.9453C66.5263 13.5648 66.5193 9.79508 64.1527 7.44243C61.7722 5.06882 57.8977 5.06882 55.5172 7.44243C43.6775 -0.592606 27.9214 -0.522856 16.1584 7.65196C16.0955 7.58221 16.0327 7.51232 15.9629 7.44257C13.5824 5.06896 9.70794 5.06896 7.33447 7.44257C4.90503 9.85794 4.91206 13.8441 7.52994 16.2316C-0.588908 27.7851 -0.889142 43.4714 7.32744 55.4369C4.94694 57.8105 4.9399 61.6569 7.33447 64.0375C9.67306 66.3691 13.4708 66.411 15.8652 64.1213C27.7818 72.5892 43.838 72.6801 55.8384 64.3238C58.2608 66.4182 61.8909 66.2924 64.1527 64.0377C66.4216 61.7758 66.5403 58.1666 64.4599 55.7651C72.8301 43.8553 72.7953 27.82 64.2505 15.9453ZM60.8926 17.7325C61.1439 22.2073 58.8821 27.457 56.6761 31.3594C55.4963 30.9755 54.1979 31.0731 53.0879 31.6526C49.4299 27.0171 45.2832 22.8496 40.5501 19.1008C41.1226 17.9908 41.2413 16.6574 40.7595 15.3869C44.4804 13.3205 49.4857 11.1634 53.758 11.1843C53.5905 13.0413 54.2537 14.7866 55.5172 16.0501C56.8925 17.4113 58.8612 18.0815 60.8926 17.7325ZM20.6751 32.7764C24.5077 27.9665 28.6614 23.9176 33.2688 20.3712C34.9093 21.9001 37.3876 22.0327 39.1748 20.7132C43.6216 24.1968 47.7265 28.2247 51.5032 33.0207C50.2397 34.731 50.3165 37.0836 51.7057 38.7171C48.1315 43.2897 44.0407 47.4643 39.2098 51.255C37.4157 49.6983 34.707 49.7402 32.9689 51.3946C28.3963 47.8343 24.3404 43.8133 20.6753 39.2128C22.4064 37.4398 22.4483 34.5916 20.6751 32.7764ZM54.2747 9.11797C50.1839 8.94346 45.0318 10.5211 39.5518 13.5997C37.7019 11.9243 34.7698 11.9661 32.9967 13.9138C27.3212 10.6328 21.9737 8.93643 17.7432 9.11094C28.8149 1.64825 43.3423 1.7391 54.2747 9.11797ZM11.1112 17.8023C12.9541 17.9629 14.7065 17.2997 15.9631 16.0501C17.2266 14.7935 17.8898 13.0622 17.7292 11.2123C22.3505 10.9749 27.9703 13.4951 31.9634 15.7988C31.7051 16.7483 31.754 17.6976 32.0891 18.6051C27.3281 22.2771 22.8952 26.5984 18.909 31.6526C17.82 31.2687 16.6123 31.2965 15.5442 31.7503C13.2334 27.7571 10.8668 22.3678 11.1112 17.8023ZM9.01691 17.7813C8.78656 22.8216 11.3067 28.5948 13.8547 32.9789C12.3538 34.7102 12.3538 37.2722 13.8547 39.0105C11.3485 43.3178 8.75858 49.2168 9.00987 54.1942C1.52623 43.2411 1.51934 28.7415 9.01691 17.7813ZM15.9629 55.4299C14.6295 54.1035 12.8284 53.5171 11.0832 53.6777C11.0554 49.2028 13.3102 44.0928 15.5371 40.2393C16.5842 40.6791 17.7641 40.7419 18.9089 40.337C22.6716 45.1121 26.9441 49.3705 31.8167 53.1681C31.4607 54.1523 31.4328 55.2275 31.8097 56.2816C26.4484 59.3533 21.422 60.9798 17.6593 60.7774C18.0085 58.7527 17.3453 56.805 15.9629 55.4299ZM17.7292 62.8716C22.7904 63.1019 28.5707 60.6167 32.9826 58.0687C34.7279 59.7231 37.4226 59.765 39.2167 58.2013C43.5728 60.6935 49.2622 63.1019 54.2537 62.8716C43.2656 70.2783 28.7172 70.2853 17.7292 62.8716ZM55.5172 55.4299C54.156 56.7842 53.4648 58.7248 53.8279 60.7843C50.1908 60.8262 45.4926 59.2695 40.4733 56.4352C40.9271 55.2973 40.8991 54.0477 40.4524 52.9657C45.2413 49.1889 49.5485 44.8886 53.3741 39.9601C54.3235 40.372 55.3707 40.4766 56.4317 40.1975C58.6865 44.093 60.9763 49.2658 60.9065 53.7476C59.0077 53.4123 56.9832 53.9707 55.5172 55.4299ZM62.987 54.2081C63.2312 49.2726 60.7181 43.4992 58.2679 39.2269C58.3517 39.157 58.4353 39.0802 58.5121 39.0035C60.3203 37.2023 60.3272 34.2773 58.5121 32.4762C58.4982 32.4553 58.4772 32.4413 58.4563 32.4204C60.8717 28.1549 63.2034 22.64 62.973 17.7812C70.4705 28.7276 70.4845 43.234 62.987 54.2081Z" fill="white"/>
</svg>
