<svg width="26" height="30" viewBox="0 0 26 30" fill="none" xmlns="http://www.w3.org/2000/svg">
    <path d="M0 11.3255H7.2V18.7248H0V11.3255Z" fill="#80887E"/>
    <path d="M26 11.3255H18.8V18.7248H26V11.3255Z" fill="#80887E"/>
    <path d="M3.6 7.60067H10.8V15H3.6V7.60067Z" fill="#80887E"/>
    <path d="M3.7 18.1208H10.9V30H3.7V18.1208Z" fill="#80887E"/>
    <path d="M15.2 18.1208H22.4V30H15.2V18.1208Z" fill="#80887E"/>
    <path d="M22.4 7.60067H15.2V15H22.4V7.60067Z" fill="#80887E"/>
    <path d="M7.45 3.77517H14.65V11.1745H7.45V3.77517Z" fill="#80887E"/>
    <path d="M11.2 0H14.8V4.42953H11.2V0Z" fill="#80887E"/>
    <path d="M18.55 3.77517H11.35V11.1745H18.55V3.77517Z" fill="#80887E"/>
    <path d="M19.65 10.5705H6.65V22.3993H19.65V10.5705Z" fill="#80887E"/>
</svg>
