<svg width="140" height="140" viewBox="0 0 140 140" fill="none" xmlns="http://www.w3.org/2000/svg">
    <g filter="url(#filter0_i_338_7808)">
        <rect width="140" height="140" rx="70" fill="url(#paint0_linear_338_7808)"/>
    </g>
    <rect x="2" y="2" width="136" height="136" rx="68" stroke="#79D851" stroke-width="4"/>
    <path d="M55.8945 43.6825C55.8945 42.3784 54.8617 41.3213 53.5878 41.3213C52.3138 41.3213 51.281 42.3784 51.281 43.6825C51.281 44.9865 52.3138 46.0437 53.5878 46.0437C54.8617 46.0437 55.8945 44.9865 55.8945 43.6825Z" fill="white"/>
    <path d="M55.8945 48.3986C55.8945 47.0945 54.8617 46.0374 53.5878 46.0374C52.3138 46.0374 51.281 47.0945 51.281 48.3986C51.281 49.7026 52.3138 50.7598 53.5878 50.7598C54.8617 50.7598 55.8945 49.7026 55.8945 48.3986Z" fill="white"/>
    <path d="M55.8945 53.121C55.8945 51.8169 54.8617 50.7598 53.5878 50.7598C52.3138 50.7598 51.281 51.8169 51.281 53.121C51.281 54.425 52.3138 55.4822 53.5878 55.4822C54.8617 55.4822 55.8945 54.425 55.8945 53.121Z" fill="white"/>
    <path d="M55.8945 57.838C55.8945 56.534 54.8617 55.4768 53.5878 55.4768C52.3138 55.4768 51.281 56.534 51.281 57.838C51.281 59.1421 52.3138 60.1992 53.5878 60.1992C54.8617 60.1992 55.8945 59.1421 55.8945 57.838Z" fill="white"/>
    <path d="M51.281 43.6825C51.281 42.3784 50.2482 41.3213 48.9743 41.3213C47.7003 41.3213 46.6675 42.3784 46.6675 43.6825C46.6675 44.9865 47.7003 46.0437 48.9743 46.0437C50.2482 46.0437 51.281 44.9865 51.281 43.6825Z" fill="white"/>
    <path d="M51.281 48.3986C51.281 47.0945 50.2482 46.0374 48.9743 46.0374C47.7003 46.0374 46.6675 47.0945 46.6675 48.3986C46.6675 49.7026 47.7003 50.7598 48.9743 50.7598C50.2482 50.7598 51.281 49.7026 51.281 48.3986Z" fill="white"/>
    <path d="M51.281 53.121C51.281 51.8169 50.2482 50.7598 48.9743 50.7598C47.7003 50.7598 46.6675 51.8169 46.6675 53.121C46.6675 54.425 47.7003 55.4822 48.9743 55.4822C50.2482 55.4822 51.281 54.425 51.281 53.121Z" fill="white"/>
    <path d="M51.281 57.838C51.281 56.534 50.2482 55.4768 48.9743 55.4768C47.7003 55.4768 46.6675 56.534 46.6675 57.838C46.6675 59.1421 47.7003 60.1992 48.9743 60.1992C50.2482 60.1992 51.281 59.1421 51.281 57.838Z" fill="white"/>
    <path d="M55.8945 90.8763C55.8945 89.5723 54.8617 88.5151 53.5878 88.5151C52.3138 88.5151 51.281 89.5723 51.281 90.8763C51.281 92.1804 52.3138 93.2375 53.5878 93.2375C54.8617 93.2375 55.8945 92.1804 55.8945 90.8763Z" fill="white"/>
    <path d="M55.8945 95.5924C55.8945 94.2883 54.8617 93.2312 53.5878 93.2312C52.3138 93.2312 51.281 94.2883 51.281 95.5924C51.281 96.8965 52.3138 97.9536 53.5878 97.9536C54.8617 97.9536 55.8945 96.8965 55.8945 95.5924Z" fill="white"/>
    <path d="M55.8945 86.1539C55.8945 84.8499 54.8617 83.7927 53.5878 83.7927C52.3138 83.7927 51.281 84.8499 51.281 86.1539C51.281 87.458 52.3138 88.5151 53.5878 88.5151C54.8617 88.5151 55.8945 87.458 55.8945 86.1539Z" fill="white"/>
    <path d="M55.8945 81.4379C55.8945 80.1338 54.8617 79.0767 53.5878 79.0767C52.3138 79.0767 51.281 80.1338 51.281 81.4379C51.281 82.7419 52.3138 83.7991 53.5878 83.7991C54.8617 83.7991 55.8945 82.7419 55.8945 81.4379Z" fill="white"/>
    <path d="M51.281 90.8763C51.281 89.5723 50.2482 88.5151 48.9743 88.5151C47.7003 88.5151 46.6675 89.5723 46.6675 90.8763C46.6675 92.1804 47.7003 93.2375 48.9743 93.2375C50.2482 93.2375 51.281 92.1804 51.281 90.8763Z" fill="white"/>
    <path d="M51.281 95.5924C51.281 94.2883 50.2482 93.2312 48.9743 93.2312C47.7003 93.2312 46.6675 94.2883 46.6675 95.5924C46.6675 96.8965 47.7003 97.9536 48.9743 97.9536C50.2482 97.9536 51.281 96.8965 51.281 95.5924Z" fill="white"/>
    <path d="M51.281 86.1539C51.281 84.8499 50.2482 83.7927 48.9743 83.7927C47.7003 83.7927 46.6675 84.8499 46.6675 86.1539C46.6675 87.458 47.7003 88.5151 48.9743 88.5151C50.2482 88.5151 51.281 87.458 51.281 86.1539Z" fill="white"/>
    <path d="M51.281 81.4379C51.281 80.1338 50.2482 79.0767 48.9743 79.0767C47.7003 79.0767 46.6675 80.1338 46.6675 81.4379C46.6675 82.7419 47.7003 83.7991 48.9743 83.7991C50.2482 83.7991 51.281 82.7419 51.281 81.4379Z" fill="white"/>
    <path d="M46.6734 43.6825C46.6734 42.3784 45.6406 41.3213 44.3667 41.3213C43.0927 41.3213 42.0599 42.3784 42.0599 43.6825C42.0599 44.9865 43.0927 46.0437 44.3667 46.0437C45.6406 46.0437 46.6734 44.9865 46.6734 43.6825Z" fill="white"/>
    <path d="M46.6734 48.3986C46.6734 47.0945 45.6406 46.0374 44.3667 46.0374C43.0927 46.0374 42.0599 47.0945 42.0599 48.3986C42.0599 49.7026 43.0927 50.7598 44.3667 50.7598C45.6406 50.7598 46.6734 49.7026 46.6734 48.3986Z" fill="white"/>
    <path d="M46.6734 53.121C46.6734 51.8169 45.6406 50.7598 44.3667 50.7598C43.0927 50.7598 42.0599 51.8169 42.0599 53.121C42.0599 54.425 43.0927 55.4822 44.3667 55.4822C45.6406 55.4822 46.6734 54.425 46.6734 53.121Z" fill="white"/>
    <path d="M46.6734 57.838C46.6734 56.534 45.6406 55.4768 44.3667 55.4768C43.0927 55.4768 42.0599 56.534 42.0599 57.838C42.0599 59.1421 43.0927 60.1992 44.3667 60.1992C45.6406 60.1992 46.6734 59.1421 46.6734 57.838Z" fill="white"/>
    <path d="M46.6734 90.8763C46.6734 89.5723 45.6406 88.5151 44.3667 88.5151C43.0927 88.5151 42.0599 89.5723 42.0599 90.8763C42.0599 92.1804 43.0927 93.2375 44.3667 93.2375C45.6406 93.2375 46.6734 92.1804 46.6734 90.8763Z" fill="white"/>
    <path d="M46.6734 95.5924C46.6734 94.2883 45.6406 93.2312 44.3667 93.2312C43.0927 93.2312 42.0599 94.2883 42.0599 95.5924C42.0599 96.8965 43.0927 97.9536 44.3667 97.9536C45.6406 97.9536 46.6734 96.8965 46.6734 95.5924Z" fill="white"/>
    <path d="M46.6734 86.1539C46.6734 84.8499 45.6406 83.7927 44.3667 83.7927C43.0927 83.7927 42.0599 84.8499 42.0599 86.1539C42.0599 87.458 43.0927 88.5151 44.3667 88.5151C45.6406 88.5151 46.6734 87.458 46.6734 86.1539Z" fill="white"/>
    <path d="M46.6734 81.4379C46.6734 80.1338 45.6406 79.0767 44.3667 79.0767C43.0927 79.0767 42.0599 80.1338 42.0599 81.4379C42.0599 82.7419 43.0927 83.7991 44.3667 83.7991C45.6406 83.7991 46.6734 82.7419 46.6734 81.4379Z" fill="white"/>
    <path d="M42.0599 43.6825C42.0599 42.3784 41.0271 41.3213 39.7531 41.3213C38.4792 41.3213 37.4464 42.3784 37.4464 43.6825C37.4464 44.9865 38.4792 46.0437 39.7531 46.0437C41.0271 46.0437 42.0599 44.9865 42.0599 43.6825Z" fill="white"/>
    <path d="M42.0599 48.3986C42.0599 47.0945 41.0271 46.0374 39.7531 46.0374C38.4792 46.0374 37.4464 47.0945 37.4464 48.3986C37.4464 49.7026 38.4792 50.7598 39.7531 50.7598C41.0271 50.7598 42.0599 49.7026 42.0599 48.3986Z" fill="white"/>
    <path d="M42.0599 53.121C42.0599 51.8169 41.0271 50.7598 39.7531 50.7598C38.4792 50.7598 37.4464 51.8169 37.4464 53.121C37.4464 54.425 38.4792 55.4822 39.7531 55.4822C41.0271 55.4822 42.0599 54.425 42.0599 53.121Z" fill="white"/>
    <path d="M42.0599 57.838C42.0599 56.534 41.0271 55.4768 39.7531 55.4768C38.4792 55.4768 37.4464 56.534 37.4464 57.838C37.4464 59.1421 38.4792 60.1992 39.7531 60.1992C41.0271 60.1992 42.0599 59.1421 42.0599 57.838Z" fill="white"/>
    <path d="M42.0599 90.8763C42.0599 89.5723 41.0271 88.5151 39.7531 88.5151C38.4792 88.5151 37.4464 89.5723 37.4464 90.8763C37.4464 92.1804 38.4792 93.2375 39.7531 93.2375C41.0271 93.2375 42.0599 92.1804 42.0599 90.8763Z" fill="white"/>
    <path d="M42.0599 95.5924C42.0599 94.2883 41.0271 93.2312 39.7531 93.2312C38.4792 93.2312 37.4464 94.2883 37.4464 95.5924C37.4464 96.8965 38.4792 97.9536 39.7531 97.9536C41.0271 97.9536 42.0599 96.8965 42.0599 95.5924Z" fill="white"/>
    <path d="M42.0599 86.1539C42.0599 84.8499 41.0271 83.7927 39.7531 83.7927C38.4792 83.7927 37.4464 84.8499 37.4464 86.1539C37.4464 87.458 38.4792 88.5151 39.7531 88.5151C41.0271 88.5151 42.0599 87.458 42.0599 86.1539Z" fill="white"/>
    <path d="M42.0599 81.4379C42.0599 80.1338 41.0271 79.0767 39.7531 79.0767C38.4792 79.0767 37.4464 80.1338 37.4464 81.4379C37.4464 82.7419 38.4792 83.7991 39.7531 83.7991C41.0271 83.7991 42.0599 82.7419 42.0599 81.4379Z" fill="white"/>
    <path d="M97.3865 50.7599V46.0375H92.7731V41.321H88.1654V36.5986H83.552H78.9443H74.3309H69.7232H65.1098H60.5021H55.8887V41.321V46.0375V50.7599V55.4763V60.1987V64.9151V69.6375V74.354V79.0764V83.7928V88.5152V93.2316V97.954V102.676H60.5021H65.1098H69.7232H74.3309H78.9443H83.552H88.1654V97.954H92.7731V93.2316H97.3865V88.5152H102V83.7928V79.0764V74.354V69.6375V64.9151V60.1987V55.4763V50.7599H97.3865Z" fill="white"/>
    <defs>
        <filter id="filter0_i_338_7808" x="0" y="0" width="148" height="148" filterUnits="userSpaceOnUse" color-interpolation-filters="sRGB">
            <feFlood flood-opacity="0" result="BackgroundImageFix"/>
            <feBlend mode="normal" in="SourceGraphic" in2="BackgroundImageFix" result="shape"/>
            <feColorMatrix in="SourceAlpha" type="matrix" values="0 0 0 0 0 0 0 0 0 0 0 0 0 0 0 0 0 0 127 0" result="hardAlpha"/>
            <feOffset dx="8" dy="8"/>
            <feGaussianBlur stdDeviation="9.95"/>
            <feComposite in2="hardAlpha" operator="arithmetic" k2="-1" k3="1"/>
            <feColorMatrix type="matrix" values="0 0 0 0 0 0 0 0 0 0 0 0 0 0 0 0 0 0 0.25 0"/>
            <feBlend mode="normal" in2="shape" result="effect1_innerShadow_338_7808"/>
        </filter>
        <linearGradient id="paint0_linear_338_7808" x1="62" y1="57" x2="107.5" y2="140" gradientUnits="userSpaceOnUse">
            <stop stop-color="#42D405"/>
            <stop offset="1" stop-color="#226E03"/>
        </linearGradient>
    </defs>
</svg>