<svg width="283" height="34" viewBox="0 0 283 34" fill="none" xmlns="http://www.w3.org/2000/svg">
<g clip-path="url(#clip0_338_7809)">
<path d="M104.098 1.21494C104.098 0.543949 103.548 0 102.87 0C102.191 0 101.641 0.543949 101.641 1.21494C101.641 1.88594 102.191 2.42989 102.87 2.42989C103.548 2.42989 104.098 1.88594 104.098 1.21494Z" fill="#42D405"/>
<path d="M104.098 3.64487C104.098 2.97388 103.548 2.42993 102.87 2.42993C102.191 2.42993 101.641 2.97388 101.641 3.64487C101.641 4.31587 102.191 4.85982 102.87 4.85982C103.548 4.85982 104.098 4.31587 104.098 3.64487Z" fill="#42D405"/>
<path d="M104.098 6.07163C104.098 5.40064 103.548 4.85669 102.87 4.85669C102.191 4.85669 101.641 5.40064 101.641 6.07163C101.641 6.74263 102.191 7.28658 102.87 7.28658C103.548 7.28658 104.098 6.74263 104.098 6.07163Z" fill="#42D405"/>
<path d="M106.552 1.21494C106.552 0.543949 106.002 0 105.324 0C104.645 0 104.095 0.543949 104.095 1.21494C104.095 1.88594 104.645 2.42989 105.324 2.42989C106.002 2.42989 106.552 1.88594 106.552 1.21494Z" fill="#42D405"/>
<path d="M106.552 3.64487C106.552 2.97388 106.002 2.42993 105.324 2.42993C104.645 2.42993 104.095 2.97388 104.095 3.64487C104.095 4.31587 104.645 4.85982 105.324 4.85982C106.002 4.85982 106.552 4.31587 106.552 3.64487Z" fill="#42D405"/>
<path d="M106.552 6.07163C106.552 5.40064 106.002 4.85669 105.324 4.85669C104.645 4.85669 104.095 5.40064 104.095 6.07163C104.095 6.74263 104.645 7.28658 105.324 7.28658C106.002 7.28658 106.552 6.74263 106.552 6.07163Z" fill="#42D405"/>
<path d="M109.009 1.21494C109.009 0.543949 108.459 0 107.781 0C107.102 0 106.552 0.543949 106.552 1.21494C106.552 1.88594 107.102 2.42989 107.781 2.42989C108.459 2.42989 109.009 1.88594 109.009 1.21494Z" fill="#42D405"/>
<path d="M109.009 3.64487C109.009 2.97388 108.459 2.42993 107.781 2.42993C107.102 2.42993 106.552 2.97388 106.552 3.64487C106.552 4.31587 107.102 4.85982 107.781 4.85982C108.459 4.85982 109.009 4.31587 109.009 3.64487Z" fill="#42D405"/>
<path d="M109.009 6.07163C109.009 5.40064 108.459 4.85669 107.781 4.85669C107.102 4.85669 106.552 5.40064 106.552 6.07163C106.552 6.74263 107.102 7.28658 107.781 7.28658C108.459 7.28658 109.009 6.74263 109.009 6.07163Z" fill="#42D405"/>
<path d="M111.466 1.21494C111.466 0.543949 110.916 0 110.238 0C109.559 0 109.009 0.543949 109.009 1.21494C109.009 1.88594 109.559 2.42989 110.238 2.42989C110.916 2.42989 111.466 1.88594 111.466 1.21494Z" fill="#42D405"/>
<path d="M111.466 3.64487C111.466 2.97388 110.916 2.42993 110.238 2.42993C109.559 2.42993 109.009 2.97388 109.009 3.64487C109.009 4.31587 109.559 4.85982 110.238 4.85982C110.916 4.85982 111.466 4.31587 111.466 3.64487Z" fill="#42D405"/>
<path d="M111.466 6.07163C111.466 5.40064 110.916 4.85669 110.238 4.85669C109.559 4.85669 109.009 5.40064 109.009 6.07163C109.009 6.74263 109.559 7.28658 110.238 7.28658C110.916 7.28658 111.466 6.74263 111.466 6.07163Z" fill="#42D405"/>
<path d="M113.92 1.21494C113.92 0.543949 113.37 0 112.692 0C112.013 0 111.463 0.543949 111.463 1.21494C111.463 1.88594 112.013 2.42989 112.692 2.42989C113.37 2.42989 113.92 1.88594 113.92 1.21494Z" fill="#42D405"/>
<path d="M113.92 3.64487C113.92 2.97388 113.37 2.42993 112.692 2.42993C112.013 2.42993 111.463 2.97388 111.463 3.64487C111.463 4.31587 112.013 4.85982 112.692 4.85982C113.37 4.85982 113.92 4.31587 113.92 3.64487Z" fill="#42D405"/>
<path d="M113.92 6.07163C113.92 5.40064 113.37 4.85669 112.692 4.85669C112.013 4.85669 111.463 5.40064 111.463 6.07163C111.463 6.74263 112.013 7.28658 112.692 7.28658C113.37 7.28658 113.92 6.74263 113.92 6.07163Z" fill="#42D405"/>
<path d="M116.377 1.21494C116.377 0.543949 115.827 0 115.149 0C114.47 0 113.92 0.543949 113.92 1.21494C113.92 1.88594 114.47 2.42989 115.149 2.42989C115.827 2.42989 116.377 1.88594 116.377 1.21494Z" fill="#42D405"/>
<path d="M116.377 3.64487C116.377 2.97388 115.827 2.42993 115.149 2.42993C114.47 2.42993 113.92 2.97388 113.92 3.64487C113.92 4.31587 114.47 4.85982 115.149 4.85982C115.827 4.85982 116.377 4.31587 116.377 3.64487Z" fill="#42D405"/>
<path d="M116.377 6.07163C116.377 5.40064 115.827 4.85669 115.149 4.85669C114.47 4.85669 113.92 5.40064 113.92 6.07163C113.92 6.74263 114.47 7.28658 115.149 7.28658C115.827 7.28658 116.377 6.74263 116.377 6.07163Z" fill="#42D405"/>
<path d="M118.831 1.21494C118.831 0.543949 118.281 0 117.603 0C116.924 0 116.374 0.543949 116.374 1.21494C116.374 1.88594 116.924 2.42989 117.603 2.42989C118.281 2.42989 118.831 1.88594 118.831 1.21494Z" fill="#42D405"/>
<path d="M118.831 3.64487C118.831 2.97388 118.281 2.42993 117.603 2.42993C116.924 2.42993 116.374 2.97388 116.374 3.64487C116.374 4.31587 116.924 4.85982 117.603 4.85982C118.281 4.85982 118.831 4.31587 118.831 3.64487Z" fill="#42D405"/>
<path d="M118.831 6.07163C118.831 5.40064 118.281 4.85669 117.603 4.85669C116.924 4.85669 116.374 5.40064 116.374 6.07163C116.374 6.74263 116.924 7.28658 117.603 7.28658C118.281 7.28658 118.831 6.74263 118.831 6.07163Z" fill="#42D405"/>
<path d="M121.288 1.21494C121.288 0.543949 120.738 0 120.06 0C119.381 0 118.831 0.543949 118.831 1.21494C118.831 1.88594 119.381 2.42989 120.06 2.42989C120.738 2.42989 121.288 1.88594 121.288 1.21494Z" fill="#42D405"/>
<path d="M121.288 3.64487C121.288 2.97388 120.738 2.42993 120.06 2.42993C119.381 2.42993 118.831 2.97388 118.831 3.64487C118.831 4.31587 119.381 4.85982 120.06 4.85982C120.738 4.85982 121.288 4.31587 121.288 3.64487Z" fill="#42D405"/>
<path d="M121.288 6.07163C121.288 5.40064 120.738 4.85669 120.06 4.85669C119.381 4.85669 118.831 5.40064 118.831 6.07163C118.831 6.74263 119.381 7.28658 120.06 7.28658C120.738 7.28658 121.288 6.74263 121.288 6.07163Z" fill="#42D405"/>
<path d="M104.098 8.50156C104.098 7.83057 103.548 7.28662 102.87 7.28662C102.191 7.28662 101.641 7.83057 101.641 8.50156C101.641 9.17256 102.191 9.71651 102.87 9.71651C103.548 9.71651 104.098 9.17256 104.098 8.50156Z" fill="#42D405"/>
<path d="M106.552 8.50156C106.552 7.83057 106.002 7.28662 105.324 7.28662C104.645 7.28662 104.095 7.83057 104.095 8.50156C104.095 9.17256 104.645 9.71651 105.324 9.71651C106.002 9.71651 106.552 9.17256 106.552 8.50156Z" fill="#42D405"/>
<path d="M109.009 8.50156C109.009 7.83057 108.459 7.28662 107.781 7.28662C107.102 7.28662 106.552 7.83057 106.552 8.50156C106.552 9.17256 107.102 9.71651 107.781 9.71651C108.459 9.71651 109.009 9.17256 109.009 8.50156Z" fill="#42D405"/>
<path d="M111.466 8.50156C111.466 7.83057 110.916 7.28662 110.238 7.28662C109.559 7.28662 109.009 7.83057 109.009 8.50156C109.009 9.17256 109.559 9.71651 110.238 9.71651C110.916 9.71651 111.466 9.17256 111.466 8.50156Z" fill="#42D405"/>
<path d="M113.92 8.50156C113.92 7.83057 113.37 7.28662 112.692 7.28662C112.013 7.28662 111.463 7.83057 111.463 8.50156C111.463 9.17256 112.013 9.71651 112.692 9.71651C113.37 9.71651 113.92 9.17256 113.92 8.50156Z" fill="#42D405"/>
<path d="M116.377 8.50156C116.377 7.83057 115.827 7.28662 115.149 7.28662C114.47 7.28662 113.92 7.83057 113.92 8.50156C113.92 9.17256 114.47 9.71651 115.149 9.71651C115.827 9.71651 116.377 9.17256 116.377 8.50156Z" fill="#42D405"/>
<path d="M118.831 8.50156C118.831 7.83057 118.281 7.28662 117.603 7.28662C116.924 7.28662 116.374 7.83057 116.374 8.50156C116.374 9.17256 116.924 9.71651 117.603 9.71651C118.281 9.71651 118.831 9.17256 118.831 8.50156Z" fill="#42D405"/>
<path d="M121.288 8.50156C121.288 7.83057 120.738 7.28662 120.06 7.28662C119.381 7.28662 118.831 7.83057 118.831 8.50156C118.831 9.17256 119.381 9.71651 120.06 9.71651C120.738 9.71651 121.288 9.17256 121.288 8.50156Z" fill="#42D405"/>
<path d="M118.831 24.2835H116.374H113.92H111.463H109.009H106.552H104.095H101.641V21.8567H104.095H106.552H109.009H111.463H113.92V19.4268V17V14.5701V12.1433H111.463H109.009H106.552H104.095H101.641V9.71341V7.28659V4.8567V2.42989V0H99.1843H96.7304H94.2734H91.8194H89.3624H86.9085H84.4514V2.42989V4.8567V7.28659V9.71341V12.1433V14.5701V17V19.4268V21.8567V24.2835V26.7134V29.1402V31.5701V34H86.9085H89.3624H91.8194H94.2734H96.7304H99.1843H101.641H104.095H106.552H109.009H111.463H113.92H116.374H118.831H121.285V31.5701V29.1402V26.7134V24.2835H118.831Z" fill="#42D405"/>
<path d="M192.322 27.9284C192.322 27.2574 191.772 26.7135 191.094 26.7135C190.415 26.7135 189.865 27.2574 189.865 27.9284C189.865 28.5994 190.415 29.1434 191.094 29.1434C191.772 29.1434 192.322 28.5994 192.322 27.9284Z" fill="#42D405"/>
<path d="M192.322 30.3552C192.322 29.6842 191.772 29.1403 191.094 29.1403C190.415 29.1403 189.865 29.6842 189.865 30.3552C189.865 31.0262 190.415 31.5701 191.094 31.5701C191.772 31.5701 192.322 31.0262 192.322 30.3552Z" fill="#42D405"/>
<path d="M192.322 32.7851C192.322 32.1141 191.772 31.5702 191.094 31.5702C190.415 31.5702 189.865 32.1141 189.865 32.7851C189.865 33.4561 190.415 34.0001 191.094 34.0001C191.772 34.0001 192.322 33.4561 192.322 32.7851Z" fill="#42D405"/>
<path d="M194.779 27.9284C194.779 27.2574 194.229 26.7135 193.551 26.7135C192.872 26.7135 192.322 27.2574 192.322 27.9284C192.322 28.5994 192.872 29.1434 193.551 29.1434C194.229 29.1434 194.779 28.5994 194.779 27.9284Z" fill="#42D405"/>
<path d="M194.779 30.3552C194.779 29.6842 194.229 29.1403 193.551 29.1403C192.872 29.1403 192.322 29.6842 192.322 30.3552C192.322 31.0262 192.872 31.5701 193.551 31.5701C194.229 31.5701 194.779 31.0262 194.779 30.3552Z" fill="#42D405"/>
<path d="M194.779 32.7851C194.779 32.1141 194.229 31.5702 193.551 31.5702C192.872 31.5702 192.322 32.1141 192.322 32.7851C192.322 33.4561 192.872 34.0001 193.551 34.0001C194.229 34.0001 194.779 33.4561 194.779 32.7851Z" fill="#42D405"/>
<path d="M197.233 27.9284C197.233 27.2574 196.683 26.7135 196.005 26.7135C195.326 26.7135 194.776 27.2574 194.776 27.9284C194.776 28.5994 195.326 29.1434 196.005 29.1434C196.683 29.1434 197.233 28.5994 197.233 27.9284Z" fill="#42D405"/>
<path d="M197.233 30.3552C197.233 29.6842 196.683 29.1403 196.005 29.1403C195.326 29.1403 194.776 29.6842 194.776 30.3552C194.776 31.0262 195.326 31.5701 196.005 31.5701C196.683 31.5701 197.233 31.0262 197.233 30.3552Z" fill="#42D405"/>
<path d="M197.233 32.7851C197.233 32.1141 196.683 31.5702 196.005 31.5702C195.326 31.5702 194.776 32.1141 194.776 32.7851C194.776 33.4561 195.326 34.0001 196.005 34.0001C196.683 34.0001 197.233 33.4561 197.233 32.7851Z" fill="#42D405"/>
<path d="M199.69 27.9284C199.69 27.2574 199.14 26.7135 198.462 26.7135C197.783 26.7135 197.233 27.2574 197.233 27.9284C197.233 28.5994 197.783 29.1434 198.462 29.1434C199.14 29.1434 199.69 28.5994 199.69 27.9284Z" fill="#42D405"/>
<path d="M199.69 30.3552C199.69 29.6842 199.14 29.1403 198.462 29.1403C197.783 29.1403 197.233 29.6842 197.233 30.3552C197.233 31.0262 197.783 31.5701 198.462 31.5701C199.14 31.5701 199.69 31.0262 199.69 30.3552Z" fill="#42D405"/>
<path d="M199.69 32.7851C199.69 32.1141 199.14 31.5702 198.462 31.5702C197.783 31.5702 197.233 32.1141 197.233 32.7851C197.233 33.4561 197.783 34.0001 198.462 34.0001C199.14 34.0001 199.69 33.4561 199.69 32.7851Z" fill="#42D405"/>
<path d="M202.144 27.9284C202.144 27.2574 201.594 26.7135 200.916 26.7135C200.237 26.7135 199.687 27.2574 199.687 27.9284C199.687 28.5994 200.237 29.1434 200.916 29.1434C201.594 29.1434 202.144 28.5994 202.144 27.9284Z" fill="#42D405"/>
<path d="M202.144 30.3552C202.144 29.6842 201.594 29.1403 200.916 29.1403C200.237 29.1403 199.687 29.6842 199.687 30.3552C199.687 31.0262 200.237 31.5701 200.916 31.5701C201.594 31.5701 202.144 31.0262 202.144 30.3552Z" fill="#42D405"/>
<path d="M202.144 32.7851C202.144 32.1141 201.594 31.5702 200.916 31.5702C200.237 31.5702 199.687 32.1141 199.687 32.7851C199.687 33.4561 200.237 34.0001 200.916 34.0001C201.594 34.0001 202.144 33.4561 202.144 32.7851Z" fill="#42D405"/>
<path d="M184.954 27.9284C184.954 27.2574 184.404 26.7135 183.726 26.7135C183.047 26.7135 182.497 27.2574 182.497 27.9284C182.497 28.5994 183.047 29.1434 183.726 29.1434C184.404 29.1434 184.954 28.5994 184.954 27.9284Z" fill="#42D405"/>
<path d="M184.954 30.3552C184.954 29.6842 184.404 29.1403 183.726 29.1403C183.047 29.1403 182.497 29.6842 182.497 30.3552C182.497 31.0262 183.047 31.5701 183.726 31.5701C184.404 31.5701 184.954 31.0262 184.954 30.3552Z" fill="#42D405"/>
<path d="M184.954 32.7851C184.954 32.1141 184.404 31.5702 183.726 31.5702C183.047 31.5702 182.497 32.1141 182.497 32.7851C182.497 33.4561 183.047 34.0001 183.726 34.0001C184.404 34.0001 184.954 33.4561 184.954 32.7851Z" fill="#42D405"/>
<path d="M187.411 27.9284C187.411 27.2574 186.861 26.7135 186.183 26.7135C185.504 26.7135 184.954 27.2574 184.954 27.9284C184.954 28.5994 185.504 29.1434 186.183 29.1434C186.861 29.1434 187.411 28.5994 187.411 27.9284Z" fill="#42D405"/>
<path d="M187.411 30.3552C187.411 29.6842 186.861 29.1403 186.183 29.1403C185.504 29.1403 184.954 29.6842 184.954 30.3552C184.954 31.0262 185.504 31.5701 186.183 31.5701C186.861 31.5701 187.411 31.0262 187.411 30.3552Z" fill="#42D405"/>
<path d="M187.411 32.7851C187.411 32.1141 186.861 31.5702 186.183 31.5702C185.504 31.5702 184.954 32.1141 184.954 32.7851C184.954 33.4561 185.504 34.0001 186.183 34.0001C186.861 34.0001 187.411 33.4561 187.411 32.7851Z" fill="#42D405"/>
<path d="M189.865 27.9284C189.865 27.2574 189.315 26.7135 188.637 26.7135C187.958 26.7135 187.408 27.2574 187.408 27.9284C187.408 28.5994 187.958 29.1434 188.637 29.1434C189.315 29.1434 189.865 28.5994 189.865 27.9284Z" fill="#42D405"/>
<path d="M192.322 25.4985C192.322 24.8275 191.772 24.2836 191.094 24.2836C190.415 24.2836 189.865 24.8275 189.865 25.4985C189.865 26.1695 190.415 26.7135 191.094 26.7135C191.772 26.7135 192.322 26.1695 192.322 25.4985Z" fill="#42D405"/>
<path d="M194.779 25.4985C194.779 24.8275 194.229 24.2836 193.551 24.2836C192.872 24.2836 192.322 24.8275 192.322 25.4985C192.322 26.1695 192.872 26.7135 193.551 26.7135C194.229 26.7135 194.779 26.1695 194.779 25.4985Z" fill="#42D405"/>
<path d="M197.233 25.4985C197.233 24.8275 196.683 24.2836 196.005 24.2836C195.326 24.2836 194.776 24.8275 194.776 25.4985C194.776 26.1695 195.326 26.7135 196.005 26.7135C196.683 26.7135 197.233 26.1695 197.233 25.4985Z" fill="#42D405"/>
<path d="M199.69 25.4985C199.69 24.8275 199.14 24.2836 198.462 24.2836C197.783 24.2836 197.233 24.8275 197.233 25.4985C197.233 26.1695 197.783 26.7135 198.462 26.7135C199.14 26.7135 199.69 26.1695 199.69 25.4985Z" fill="#42D405"/>
<path d="M202.144 25.4985C202.144 24.8275 201.594 24.2836 200.916 24.2836C200.237 24.2836 199.687 24.8275 199.687 25.4985C199.687 26.1695 200.237 26.7135 200.916 26.7135C201.594 26.7135 202.144 26.1695 202.144 25.4985Z" fill="#42D405"/>
<path d="M184.954 25.4985C184.954 24.8275 184.404 24.2836 183.726 24.2836C183.047 24.2836 182.497 24.8275 182.497 25.4985C182.497 26.1695 183.047 26.7135 183.726 26.7135C184.404 26.7135 184.954 26.1695 184.954 25.4985Z" fill="#42D405"/>
<path d="M187.411 25.4985C187.411 24.8275 186.861 24.2836 186.183 24.2836C185.504 24.2836 184.954 24.8275 184.954 25.4985C184.954 26.1695 185.504 26.7135 186.183 26.7135C186.861 26.7135 187.411 26.1695 187.411 25.4985Z" fill="#42D405"/>
<path d="M189.865 25.4985C189.865 24.8275 189.315 24.2836 188.637 24.2836C187.958 24.2836 187.408 24.8275 187.408 25.4985C187.408 26.1695 187.958 26.7135 188.637 26.7135C189.315 26.7135 189.865 26.1695 189.865 25.4985Z" fill="#42D405"/>
<path d="M189.865 30.3552C189.865 29.6842 189.315 29.1403 188.637 29.1403C187.958 29.1403 187.408 29.6842 187.408 30.3552C187.408 31.0262 187.958 31.5701 188.637 31.5701C189.315 31.5701 189.865 31.0262 189.865 30.3552Z" fill="#42D405"/>
<path d="M189.865 32.7851C189.865 32.1141 189.315 31.5702 188.637 31.5702C187.958 31.5702 187.408 32.1141 187.408 32.7851C187.408 33.4561 187.958 34.0001 188.637 34.0001C189.315 34.0001 189.865 33.4561 189.865 32.7851Z" fill="#42D405"/>
<path d="M144.528 18.2149C144.528 17.5439 143.978 17 143.299 17C142.621 17 142.071 17.5439 142.071 18.2149C142.071 18.8859 142.621 19.4299 143.299 19.4299C143.978 19.4299 144.528 18.8859 144.528 18.2149Z" fill="#42D405"/>
<path d="M144.528 15.785C144.528 15.114 143.978 14.5701 143.299 14.5701C142.621 14.5701 142.071 15.114 142.071 15.785C142.071 16.456 142.621 17 143.299 17C143.978 17 144.528 16.456 144.528 15.785Z" fill="#42D405"/>
<path d="M144.528 20.6417C144.528 19.9707 143.978 19.4268 143.299 19.4268C142.621 19.4268 142.071 19.9707 142.071 20.6417C142.071 21.3127 142.621 21.8566 143.299 21.8566C143.978 21.8566 144.528 21.3127 144.528 20.6417Z" fill="#42D405"/>
<path d="M144.528 23.0716C144.528 22.4006 143.978 21.8567 143.299 21.8567C142.621 21.8567 142.071 22.4006 142.071 23.0716C142.071 23.7426 142.621 24.2866 143.299 24.2866C143.978 24.2866 144.528 23.7426 144.528 23.0716Z" fill="#42D405"/>
<path d="M146.982 18.2149C146.982 17.5439 146.432 17 145.753 17C145.075 17 144.525 17.5439 144.525 18.2149C144.525 18.8859 145.075 19.4299 145.753 19.4299C146.432 19.4299 146.982 18.8859 146.982 18.2149Z" fill="#42D405"/>
<path d="M146.982 20.6417C146.982 19.9707 146.432 19.4268 145.753 19.4268C145.075 19.4268 144.525 19.9707 144.525 20.6417C144.525 21.3127 145.075 21.8566 145.753 21.8566C146.432 21.8566 146.982 21.3127 146.982 20.6417Z" fill="#42D405"/>
<path d="M146.982 23.0716C146.982 22.4006 146.432 21.8567 145.753 21.8567C145.075 21.8567 144.525 22.4006 144.525 23.0716C144.525 23.7426 145.075 24.2866 145.753 24.2866C146.432 24.2866 146.982 23.7426 146.982 23.0716Z" fill="#42D405"/>
<path d="M149.439 18.2149C149.439 17.5439 148.889 17 148.21 17C147.532 17 146.982 17.5439 146.982 18.2149C146.982 18.8859 147.532 19.4299 148.21 19.4299C148.889 19.4299 149.439 18.8859 149.439 18.2149Z" fill="#42D405"/>
<path d="M149.439 20.6417C149.439 19.9707 148.889 19.4268 148.21 19.4268C147.532 19.4268 146.982 19.9707 146.982 20.6417C146.982 21.3127 147.532 21.8566 148.21 21.8566C148.889 21.8566 149.439 21.3127 149.439 20.6417Z" fill="#42D405"/>
<path d="M149.439 23.0716C149.439 22.4006 148.889 21.8567 148.21 21.8567C147.532 21.8567 146.982 22.4006 146.982 23.0716C146.982 23.7426 147.532 24.2866 148.21 24.2866C148.889 24.2866 149.439 23.7426 149.439 23.0716Z" fill="#42D405"/>
<path d="M144.528 1.21494C144.528 0.543949 143.978 0 143.299 0C142.621 0 142.071 0.543949 142.071 1.21494C142.071 1.88594 142.621 2.42989 143.299 2.42989C143.978 2.42989 144.528 1.88594 144.528 1.21494Z" fill="#42D405"/>
<path d="M144.528 3.64487C144.528 2.97388 143.978 2.42993 143.299 2.42993C142.621 2.42993 142.071 2.97388 142.071 3.64487C142.071 4.31587 142.621 4.85982 143.299 4.85982C143.978 4.85982 144.528 4.31587 144.528 3.64487Z" fill="#42D405"/>
<path d="M144.528 6.07163C144.528 5.40064 143.978 4.85669 143.299 4.85669C142.621 4.85669 142.071 5.40064 142.071 6.07163C142.071 6.74263 142.621 7.28658 143.299 7.28658C143.978 7.28658 144.528 6.74263 144.528 6.07163Z" fill="#42D405"/>
<path d="M144.528 8.50156C144.528 7.83057 143.978 7.28662 143.299 7.28662C142.621 7.28662 142.071 7.83057 142.071 8.50156C142.071 9.17256 142.621 9.71651 143.299 9.71651C143.978 9.71651 144.528 9.17256 144.528 8.50156Z" fill="#42D405"/>
<path d="M146.982 1.21494C146.982 0.543949 146.432 0 145.753 0C145.075 0 144.525 0.543949 144.525 1.21494C144.525 1.88594 145.075 2.42989 145.753 2.42989C146.432 2.42989 146.982 1.88594 146.982 1.21494Z" fill="#42D405"/>
<path d="M146.982 3.64487C146.982 2.97388 146.432 2.42993 145.753 2.42993C145.075 2.42993 144.525 2.97388 144.525 3.64487C144.525 4.31587 145.075 4.85982 145.753 4.85982C146.432 4.85982 146.982 4.31587 146.982 3.64487Z" fill="#42D405"/>
<path d="M146.982 6.07163C146.982 5.40064 146.432 4.85669 145.753 4.85669C145.075 4.85669 144.525 5.40064 144.525 6.07163C144.525 6.74263 145.075 7.28658 145.753 7.28658C146.432 7.28658 146.982 6.74263 146.982 6.07163Z" fill="#42D405"/>
<path d="M149.439 1.21494C149.439 0.543949 148.889 0 148.21 0C147.532 0 146.982 0.543949 146.982 1.21494C146.982 1.88594 147.532 2.42989 148.21 2.42989C148.889 2.42989 149.439 1.88594 149.439 1.21494Z" fill="#42D405"/>
<path d="M149.439 3.64487C149.439 2.97388 148.889 2.42993 148.21 2.42993C147.532 2.42993 146.982 2.97388 146.982 3.64487C146.982 4.31587 147.532 4.85982 148.21 4.85982C148.889 4.85982 149.439 4.31587 149.439 3.64487Z" fill="#42D405"/>
<path d="M149.439 6.07163C149.439 5.40064 148.889 4.85669 148.21 4.85669C147.532 4.85669 146.982 5.40064 146.982 6.07163C146.982 6.74263 147.532 7.28658 148.21 7.28658C148.889 7.28658 149.439 6.74263 149.439 6.07163Z" fill="#42D405"/>
<path d="M151.893 1.21494C151.893 0.543949 151.343 0 150.664 0C149.986 0 149.436 0.543949 149.436 1.21494C149.436 1.88594 149.986 2.42989 150.664 2.42989C151.343 2.42989 151.893 1.88594 151.893 1.21494Z" fill="#42D405"/>
<path d="M151.893 3.64487C151.893 2.97388 151.343 2.42993 150.664 2.42993C149.986 2.42993 149.436 2.97388 149.436 3.64487C149.436 4.31587 149.986 4.85982 150.664 4.85982C151.343 4.85982 151.893 4.31587 151.893 3.64487Z" fill="#42D405"/>
<path d="M151.893 6.07163C151.893 5.40064 151.343 4.85669 150.664 4.85669C149.986 4.85669 149.436 5.40064 149.436 6.07163C149.436 6.74263 149.986 7.28658 150.664 7.28658C151.343 7.28658 151.893 6.74263 151.893 6.07163Z" fill="#42D405"/>
<path d="M154.35 1.21494C154.35 0.543949 153.8 0 153.121 0C152.443 0 151.893 0.543949 151.893 1.21494C151.893 1.88594 152.443 2.42989 153.121 2.42989C153.8 2.42989 154.35 1.88594 154.35 1.21494Z" fill="#42D405"/>
<path d="M154.35 3.64487C154.35 2.97388 153.8 2.42993 153.121 2.42993C152.443 2.42993 151.893 2.97388 151.893 3.64487C151.893 4.31587 152.443 4.85982 153.121 4.85982C153.8 4.85982 154.35 4.31587 154.35 3.64487Z" fill="#42D405"/>
<path d="M156.804 3.64487C156.804 2.97388 156.254 2.42993 155.575 2.42993C154.897 2.42993 154.347 2.97388 154.347 3.64487C154.347 4.31587 154.897 4.85982 155.575 4.85982C156.254 4.85982 156.804 4.31587 156.804 3.64487Z" fill="#42D405"/>
<path d="M154.35 6.07163C154.35 5.40064 153.8 4.85669 153.121 4.85669C152.443 4.85669 151.893 5.40064 151.893 6.07163C151.893 6.74263 152.443 7.28658 153.121 7.28658C153.8 7.28658 154.35 6.74263 154.35 6.07163Z" fill="#42D405"/>
<path d="M156.804 6.07163C156.804 5.40064 156.254 4.85669 155.575 4.85669C154.897 4.85669 154.347 5.40064 154.347 6.07163C154.347 6.74263 154.897 7.28658 155.575 7.28658C156.254 7.28658 156.804 6.74263 156.804 6.07163Z" fill="#42D405"/>
<path d="M159.261 6.07163C159.261 5.40064 158.711 4.85669 158.032 4.85669C157.354 4.85669 156.804 5.40064 156.804 6.07163C156.804 6.74263 157.354 7.28658 158.032 7.28658C158.711 7.28658 159.261 6.74263 159.261 6.07163Z" fill="#42D405"/>
<path d="M151.893 8.50156C151.893 7.83057 151.343 7.28662 150.664 7.28662C149.986 7.28662 149.436 7.83057 149.436 8.50156C149.436 9.17256 149.986 9.71651 150.664 9.71651C151.343 9.71651 151.893 9.17256 151.893 8.50156Z" fill="#42D405"/>
<path d="M151.893 15.785C151.893 15.114 151.343 14.5701 150.664 14.5701C149.986 14.5701 149.436 15.114 149.436 15.785C149.436 16.456 149.986 17 150.664 17C151.343 17 151.893 16.456 151.893 15.785Z" fill="#42D405"/>
<path d="M154.35 8.50156C154.35 7.83057 153.8 7.28662 153.121 7.28662C152.443 7.28662 151.893 7.83057 151.893 8.50156C151.893 9.17256 152.443 9.71651 153.121 9.71651C153.8 9.71651 154.35 9.17256 154.35 8.50156Z" fill="#42D405"/>
<path d="M154.35 15.785C154.35 15.114 153.8 14.5701 153.121 14.5701C152.443 14.5701 151.893 15.114 151.893 15.785C151.893 16.456 152.443 17 153.121 17C153.8 17 154.35 16.456 154.35 15.785Z" fill="#42D405"/>
<path d="M156.804 8.50156C156.804 7.83057 156.254 7.28662 155.575 7.28662C154.897 7.28662 154.347 7.83057 154.347 8.50156C154.347 9.17256 154.897 9.71651 155.575 9.71651C156.254 9.71651 156.804 9.17256 156.804 8.50156Z" fill="#42D405"/>
<path d="M156.804 15.785C156.804 15.114 156.254 14.5701 155.575 14.5701C154.897 14.5701 154.347 15.114 154.347 15.785C154.347 16.456 154.897 17 155.575 17C156.254 17 156.804 16.456 156.804 15.785Z" fill="#42D405"/>
<path d="M159.261 8.50156C159.261 7.83057 158.711 7.28662 158.032 7.28662C157.354 7.28662 156.804 7.83057 156.804 8.50156C156.804 9.17256 157.354 9.71651 158.032 9.71651C158.711 9.71651 159.261 9.17256 159.261 8.50156Z" fill="#42D405"/>
<path d="M159.261 15.785C159.261 15.114 158.711 14.5701 158.032 14.5701C157.354 14.5701 156.804 15.114 156.804 15.785C156.804 16.456 157.354 17 158.032 17C158.711 17 159.261 16.456 159.261 15.785Z" fill="#42D405"/>
<path d="M151.893 18.2149C151.893 17.5439 151.343 17 150.664 17C149.986 17 149.436 17.5439 149.436 18.2149C149.436 18.8859 149.986 19.4299 150.664 19.4299C151.343 19.4299 151.893 18.8859 151.893 18.2149Z" fill="#42D405"/>
<path d="M154.35 18.2149C154.35 17.5439 153.8 17 153.121 17C152.443 17 151.893 17.5439 151.893 18.2149C151.893 18.8859 152.443 19.4299 153.121 19.4299C153.8 19.4299 154.35 18.8859 154.35 18.2149Z" fill="#42D405"/>
<path d="M156.804 18.2149C156.804 17.5439 156.254 17 155.575 17C154.897 17 154.347 17.5439 154.347 18.2149C154.347 18.8859 154.897 19.4299 155.575 19.4299C156.254 19.4299 156.804 18.8859 156.804 18.2149Z" fill="#42D405"/>
<path d="M151.893 20.6417C151.893 19.9707 151.343 19.4268 150.664 19.4268C149.986 19.4268 149.436 19.9707 149.436 20.6417C149.436 21.3127 149.986 21.8566 150.664 21.8566C151.343 21.8566 151.893 21.3127 151.893 20.6417Z" fill="#42D405"/>
<path d="M154.35 20.6417C154.35 19.9707 153.8 19.4268 153.121 19.4268C152.443 19.4268 151.893 19.9707 151.893 20.6417C151.893 21.3127 152.443 21.8566 153.121 21.8566C153.8 21.8566 154.35 21.3127 154.35 20.6417Z" fill="#42D405"/>
<path d="M151.893 23.0716C151.893 22.4006 151.343 21.8567 150.664 21.8567C149.986 21.8567 149.436 22.4006 149.436 23.0716C149.436 23.7426 149.986 24.2866 150.664 24.2866C151.343 24.2866 151.893 23.7426 151.893 23.0716Z" fill="#42D405"/>
<path d="M154.35 23.0716C154.35 22.4006 153.8 21.8567 153.121 21.8567C152.443 21.8567 151.893 22.4006 151.893 23.0716C151.893 23.7426 152.443 24.2866 153.121 24.2866C153.8 24.2866 154.35 23.7426 154.35 23.0716Z" fill="#42D405"/>
<path d="M156.804 20.6417C156.804 19.9707 156.254 19.4268 155.575 19.4268C154.897 19.4268 154.347 19.9707 154.347 20.6417C154.347 21.3127 154.897 21.8566 155.575 21.8566C156.254 21.8566 156.804 21.3127 156.804 20.6417Z" fill="#42D405"/>
<path d="M159.261 18.2149C159.261 17.5439 158.711 17 158.032 17C157.354 17 156.804 17.5439 156.804 18.2149C156.804 18.8859 157.354 19.4299 158.032 19.4299C158.711 19.4299 159.261 18.8859 159.261 18.2149Z" fill="#42D405"/>
<path d="M161.715 8.50156C161.715 7.83057 161.165 7.28662 160.486 7.28662C159.808 7.28662 159.258 7.83057 159.258 8.50156C159.258 9.17256 159.808 9.71651 160.486 9.71651C161.165 9.71651 161.715 9.17256 161.715 8.50156Z" fill="#42D405"/>
<path d="M161.715 15.785C161.715 15.114 161.165 14.5701 160.486 14.5701C159.808 14.5701 159.258 15.114 159.258 15.785C159.258 16.456 159.808 17 160.486 17C161.165 17 161.715 16.456 161.715 15.785Z" fill="#42D405"/>
<path d="M151.893 10.9283C151.893 10.2573 151.343 9.71338 150.664 9.71338C149.986 9.71338 149.436 10.2573 149.436 10.9283C149.436 11.5993 149.986 12.1433 150.664 12.1433C151.343 12.1433 151.893 11.5993 151.893 10.9283Z" fill="#42D405"/>
<path d="M151.893 13.3583C151.893 12.6873 151.343 12.1433 150.664 12.1433C149.986 12.1433 149.436 12.6873 149.436 13.3583C149.436 14.0292 149.986 14.5732 150.664 14.5732C151.343 14.5732 151.893 14.0292 151.893 13.3583Z" fill="#42D405"/>
<path d="M149.439 8.50156C149.439 7.83057 148.889 7.28662 148.21 7.28662C147.532 7.28662 146.982 7.83057 146.982 8.50156C146.982 9.17256 147.532 9.71651 148.21 9.71651C148.889 9.71651 149.439 9.17256 149.439 8.50156Z" fill="#42D405"/>
<path d="M149.439 15.785C149.439 15.114 148.889 14.5701 148.21 14.5701C147.532 14.5701 146.982 15.114 146.982 15.785C146.982 16.456 147.532 17 148.21 17C148.889 17 149.439 16.456 149.439 15.785Z" fill="#42D405"/>
<path d="M149.439 10.9283C149.439 10.2573 148.889 9.71338 148.21 9.71338C147.532 9.71338 146.982 10.2573 146.982 10.9283C146.982 11.5993 147.532 12.1433 148.21 12.1433C148.889 12.1433 149.439 11.5993 149.439 10.9283Z" fill="#42D405"/>
<path d="M149.439 13.3583C149.439 12.6873 148.889 12.1433 148.21 12.1433C147.532 12.1433 146.982 12.6873 146.982 13.3583C146.982 14.0292 147.532 14.5732 148.21 14.5732C148.889 14.5732 149.439 14.0292 149.439 13.3583Z" fill="#42D405"/>
<path d="M146.982 8.50156C146.982 7.83057 146.432 7.28662 145.753 7.28662C145.075 7.28662 144.525 7.83057 144.525 8.50156C144.525 9.17256 145.075 9.71651 145.753 9.71651C146.432 9.71651 146.982 9.17256 146.982 8.50156Z" fill="#42D405"/>
<path d="M146.982 15.785C146.982 15.114 146.432 14.5701 145.753 14.5701C145.075 14.5701 144.525 15.114 144.525 15.785C144.525 16.456 145.075 17 145.753 17C146.432 17 146.982 16.456 146.982 15.785Z" fill="#42D405"/>
<path d="M146.982 10.9283C146.982 10.2573 146.432 9.71338 145.753 9.71338C145.075 9.71338 144.525 10.2573 144.525 10.9283C144.525 11.5993 145.075 12.1433 145.753 12.1433C146.432 12.1433 146.982 11.5993 146.982 10.9283Z" fill="#42D405"/>
<path d="M146.982 13.3583C146.982 12.6873 146.432 12.1433 145.753 12.1433C145.075 12.1433 144.525 12.6873 144.525 13.3583C144.525 14.0292 145.075 14.5732 145.753 14.5732C146.432 14.5732 146.982 14.0292 146.982 13.3583Z" fill="#42D405"/>
<path d="M154.35 10.9283C154.35 10.2573 153.8 9.71338 153.121 9.71338C152.443 9.71338 151.893 10.2573 151.893 10.9283C151.893 11.5993 152.443 12.1433 153.121 12.1433C153.8 12.1433 154.35 11.5993 154.35 10.9283Z" fill="#42D405"/>
<path d="M154.35 13.3583C154.35 12.6873 153.8 12.1433 153.121 12.1433C152.443 12.1433 151.893 12.6873 151.893 13.3583C151.893 14.0292 152.443 14.5732 153.121 14.5732C153.8 14.5732 154.35 14.0292 154.35 13.3583Z" fill="#42D405"/>
<path d="M156.804 10.9283C156.804 10.2573 156.254 9.71338 155.575 9.71338C154.897 9.71338 154.347 10.2573 154.347 10.9283C154.347 11.5993 154.897 12.1433 155.575 12.1433C156.254 12.1433 156.804 11.5993 156.804 10.9283Z" fill="#42D405"/>
<path d="M156.804 13.3583C156.804 12.6873 156.254 12.1433 155.575 12.1433C154.897 12.1433 154.347 12.6873 154.347 13.3583C154.347 14.0292 154.897 14.5732 155.575 14.5732C156.254 14.5732 156.804 14.0292 156.804 13.3583Z" fill="#42D405"/>
<path d="M159.261 10.9283C159.261 10.2573 158.711 9.71338 158.032 9.71338C157.354 9.71338 156.804 10.2573 156.804 10.9283C156.804 11.5993 157.354 12.1433 158.032 12.1433C158.711 12.1433 159.261 11.5993 159.261 10.9283Z" fill="#42D405"/>
<path d="M159.261 13.3583C159.261 12.6873 158.711 12.1433 158.032 12.1433C157.354 12.1433 156.804 12.6873 156.804 13.3583C156.804 14.0292 157.354 14.5732 158.032 14.5732C158.711 14.5732 159.261 14.0292 159.261 13.3583Z" fill="#42D405"/>
<path d="M161.715 10.9283C161.715 10.2573 161.165 9.71338 160.486 9.71338C159.808 9.71338 159.258 10.2573 159.258 10.9283C159.258 11.5993 159.808 12.1433 160.486 12.1433C161.165 12.1433 161.715 11.5993 161.715 10.9283Z" fill="#42D405"/>
<path d="M161.715 13.3583C161.715 12.6873 161.165 12.1433 160.486 12.1433C159.808 12.1433 159.258 12.6873 159.258 13.3583C159.258 14.0292 159.808 14.5732 160.486 14.5732C161.165 14.5732 161.715 14.0292 161.715 13.3583Z" fill="#42D405"/>
<path d="M222.93 27.9284C222.93 27.2574 222.38 26.7135 221.701 26.7135C221.023 26.7135 220.473 27.2574 220.473 27.9284C220.473 28.5994 221.023 29.1434 221.701 29.1434C222.38 29.1434 222.93 28.5994 222.93 27.9284Z" fill="#42D405"/>
<path d="M222.93 30.3552C222.93 29.6842 222.38 29.1403 221.701 29.1403C221.023 29.1403 220.473 29.6842 220.473 30.3552C220.473 31.0262 221.023 31.5701 221.701 31.5701C222.38 31.5701 222.93 31.0262 222.93 30.3552Z" fill="#42D405"/>
<path d="M222.93 32.7851C222.93 32.1141 222.38 31.5702 221.701 31.5702C221.023 31.5702 220.473 32.1141 220.473 32.7851C220.473 33.4561 221.023 34.0001 221.701 34.0001C222.38 34.0001 222.93 33.4561 222.93 32.7851Z" fill="#42D405"/>
<path d="M225.384 27.9284C225.384 27.2574 224.834 26.7135 224.155 26.7135C223.477 26.7135 222.927 27.2574 222.927 27.9284C222.927 28.5994 223.477 29.1434 224.155 29.1434C224.834 29.1434 225.384 28.5994 225.384 27.9284Z" fill="#42D405"/>
<path d="M225.384 30.3552C225.384 29.6842 224.834 29.1403 224.155 29.1403C223.477 29.1403 222.927 29.6842 222.927 30.3552C222.927 31.0262 223.477 31.5701 224.155 31.5701C224.834 31.5701 225.384 31.0262 225.384 30.3552Z" fill="#42D405"/>
<path d="M225.384 32.7851C225.384 32.1141 224.834 31.5702 224.155 31.5702C223.477 31.5702 222.927 32.1141 222.927 32.7851C222.927 33.4561 223.477 34.0001 224.155 34.0001C224.834 34.0001 225.384 33.4561 225.384 32.7851Z" fill="#42D405"/>
<path d="M227.841 27.9284C227.841 27.2574 227.291 26.7135 226.612 26.7135C225.934 26.7135 225.384 27.2574 225.384 27.9284C225.384 28.5994 225.934 29.1434 226.612 29.1434C227.291 29.1434 227.841 28.5994 227.841 27.9284Z" fill="#42D405"/>
<path d="M227.841 30.3552C227.841 29.6842 227.291 29.1403 226.612 29.1403C225.934 29.1403 225.384 29.6842 225.384 30.3552C225.384 31.0262 225.934 31.5701 226.612 31.5701C227.291 31.5701 227.841 31.0262 227.841 30.3552Z" fill="#42D405"/>
<path d="M227.841 32.7851C227.841 32.1141 227.291 31.5702 226.612 31.5702C225.934 31.5702 225.384 32.1141 225.384 32.7851C225.384 33.4561 225.934 34.0001 226.612 34.0001C227.291 34.0001 227.841 33.4561 227.841 32.7851Z" fill="#42D405"/>
<path d="M230.295 27.9284C230.295 27.2574 229.745 26.7135 229.066 26.7135C228.388 26.7135 227.838 27.2574 227.838 27.9284C227.838 28.5994 228.388 29.1434 229.066 29.1434C229.745 29.1434 230.295 28.5994 230.295 27.9284Z" fill="#42D405"/>
<path d="M230.295 30.3552C230.295 29.6842 229.745 29.1403 229.066 29.1403C228.388 29.1403 227.838 29.6842 227.838 30.3552C227.838 31.0262 228.388 31.5701 229.066 31.5701C229.745 31.5701 230.295 31.0262 230.295 30.3552Z" fill="#42D405"/>
<path d="M230.295 32.7851C230.295 32.1141 229.745 31.5702 229.066 31.5702C228.388 31.5702 227.838 32.1141 227.838 32.7851C227.838 33.4561 228.388 34.0001 229.066 34.0001C229.745 34.0001 230.295 33.4561 230.295 32.7851Z" fill="#42D405"/>
<path d="M232.752 27.9284C232.752 27.2574 232.202 26.7135 231.523 26.7135C230.845 26.7135 230.295 27.2574 230.295 27.9284C230.295 28.5994 230.845 29.1434 231.523 29.1434C232.202 29.1434 232.752 28.5994 232.752 27.9284Z" fill="#42D405"/>
<path d="M232.752 25.4985C232.752 24.8275 232.202 24.2836 231.523 24.2836C230.845 24.2836 230.295 24.8275 230.295 25.4985C230.295 26.1695 230.845 26.7135 231.523 26.7135C232.202 26.7135 232.752 26.1695 232.752 25.4985Z" fill="#42D405"/>
<path d="M232.752 30.3552C232.752 29.6842 232.202 29.1403 231.523 29.1403C230.845 29.1403 230.295 29.6842 230.295 30.3552C230.295 31.0262 230.845 31.5701 231.523 31.5701C232.202 31.5701 232.752 31.0262 232.752 30.3552Z" fill="#42D405"/>
<path d="M232.752 32.7851C232.752 32.1141 232.202 31.5702 231.523 31.5702C230.845 31.5702 230.295 32.1141 230.295 32.7851C230.295 33.4561 230.845 34.0001 231.523 34.0001C232.202 34.0001 232.752 33.4561 232.752 32.7851Z" fill="#42D405"/>
<path d="M241.345 26.7135C242.024 26.7135 242.574 26.1695 242.574 25.4985C242.574 24.8275 242.024 24.2836 241.345 24.2836C240.667 24.2836 240.117 24.8275 240.117 25.4985C240.117 26.1695 240.667 26.7135 241.345 26.7135Z" fill="#42D405"/>
<path d="M238.888 26.7135C239.567 26.7135 240.117 26.1695 240.117 25.4985C240.117 24.8275 239.567 24.2836 238.888 24.2836C238.21 24.2836 237.66 24.8275 237.66 25.4985C237.66 26.1695 238.21 26.7135 238.888 26.7135Z" fill="#42D405"/>
<path d="M238.888 29.1434C239.567 29.1434 240.117 28.5994 240.117 27.9285C240.117 27.2575 239.567 26.7135 238.888 26.7135C238.21 26.7135 237.66 27.2575 237.66 27.9285C237.66 28.5994 238.21 29.1434 238.888 29.1434Z" fill="#42D405"/>
<path d="M236.434 26.7165C237.113 26.7165 237.663 26.1726 237.663 25.5016C237.663 24.8306 237.113 24.2866 236.434 24.2866C235.756 24.2866 235.206 24.8306 235.206 25.5016C235.206 26.1726 235.756 26.7165 236.434 26.7165Z" fill="#42D405"/>
<path d="M236.431 29.1434C237.11 29.1434 237.66 28.5994 237.66 27.9285C237.66 27.2575 237.11 26.7135 236.431 26.7135C235.753 26.7135 235.203 27.2575 235.203 27.9285C235.203 28.5994 235.753 29.1434 236.431 29.1434Z" fill="#42D405"/>
<path d="M236.434 31.5732C237.113 31.5732 237.663 31.0293 237.663 30.3583C237.663 29.6873 237.113 29.1433 236.434 29.1433C235.756 29.1433 235.206 29.6873 235.206 30.3583C235.206 31.0293 235.756 31.5732 236.434 31.5732Z" fill="#42D405"/>
<path d="M233.977 26.7135C234.656 26.7135 235.206 26.1695 235.206 25.4985C235.206 24.8275 234.656 24.2836 233.977 24.2836C233.299 24.2836 232.749 24.8275 232.749 25.4985C232.749 26.1695 233.299 26.7135 233.977 26.7135Z" fill="#42D405"/>
<path d="M214.333 26.7135C215.012 26.7135 215.562 26.1695 215.562 25.4985C215.562 24.8275 215.012 24.2836 214.333 24.2836C213.655 24.2836 213.105 24.8275 213.105 25.4985C213.105 26.1695 213.655 26.7135 214.333 26.7135Z" fill="#42D405"/>
<path d="M233.977 29.1434C234.656 29.1434 235.206 28.5994 235.206 27.9285C235.206 27.2575 234.656 26.7135 233.977 26.7135C233.299 26.7135 232.749 27.2575 232.749 27.9285C232.749 28.5994 233.299 29.1434 233.977 29.1434Z" fill="#42D405"/>
<path d="M214.33 29.1434C215.009 29.1434 215.559 28.5994 215.559 27.9285C215.559 27.2575 215.009 26.7135 214.33 26.7135C213.652 26.7135 213.102 27.2575 213.102 27.9285C213.102 28.5994 213.652 29.1434 214.33 29.1434Z" fill="#42D405"/>
<path d="M233.977 31.5701C234.656 31.5701 235.206 31.0262 235.206 30.3552C235.206 29.6842 234.656 29.1403 233.977 29.1403C233.299 29.1403 232.749 29.6842 232.749 30.3552C232.749 31.0262 233.299 31.5701 233.977 31.5701Z" fill="#42D405"/>
<path d="M214.333 31.5702C215.012 31.5702 215.562 31.0262 215.562 30.3552C215.562 29.6842 215.012 29.1403 214.333 29.1403C213.655 29.1403 213.105 29.6842 213.105 30.3552C213.105 31.0262 213.655 31.5702 214.333 31.5702Z" fill="#42D405"/>
<path d="M211.876 26.7135C212.555 26.7135 213.105 26.1695 213.105 25.4985C213.105 24.8275 212.555 24.2836 211.876 24.2836C211.198 24.2836 210.648 24.8275 210.648 25.4985C210.648 26.1695 211.198 26.7135 211.876 26.7135Z" fill="#42D405"/>
<path d="M211.876 29.1403C212.555 29.1403 213.105 28.5964 213.105 27.9254C213.105 27.2544 212.555 26.7104 211.876 26.7104C211.198 26.7104 210.648 27.2544 210.648 27.9254C210.648 28.5964 211.198 29.1403 211.876 29.1403Z" fill="#42D405"/>
<path d="M209.422 26.7135C210.101 26.7135 210.651 26.1695 210.651 25.4985C210.651 24.8275 210.101 24.2836 209.422 24.2836C208.744 24.2836 208.194 24.8275 208.194 25.4985C208.194 26.1695 208.744 26.7135 209.422 26.7135Z" fill="#42D405"/>
<path d="M206.965 26.7135C207.644 26.7135 208.194 26.1695 208.194 25.4985C208.194 24.8275 207.644 24.2836 206.965 24.2836C206.287 24.2836 205.737 24.8275 205.737 25.4985C205.737 26.1695 206.287 26.7135 206.965 26.7135Z" fill="#42D405"/>
<path d="M209.419 29.1434C210.098 29.1434 210.648 28.5994 210.648 27.9284C210.648 27.2574 210.098 26.7135 209.419 26.7135C208.741 26.7135 208.191 27.2574 208.191 27.9284C208.191 28.5994 208.741 29.1434 209.419 29.1434Z" fill="#42D405"/>
<path d="M211.876 31.5701C212.555 31.5701 213.105 31.0262 213.105 30.3552C213.105 29.6842 212.555 29.1403 211.876 29.1403C211.198 29.1403 210.648 29.6842 210.648 30.3552C210.648 31.0262 211.198 31.5701 211.876 31.5701Z" fill="#42D405"/>
<path d="M233.977 34.0001C234.656 34.0001 235.206 33.4561 235.206 32.7851C235.206 32.1141 234.656 31.5702 233.977 31.5702C233.299 31.5702 232.749 32.1141 232.749 32.7851C232.749 33.4561 233.299 34.0001 233.977 34.0001Z" fill="#42D405"/>
<path d="M214.333 34.0001C215.012 34.0001 215.562 33.4561 215.562 32.7851C215.562 32.1141 215.012 31.5702 214.333 31.5702C213.655 31.5702 213.105 32.1141 213.105 32.7851C213.105 33.4561 213.655 34.0001 214.333 34.0001Z" fill="#42D405"/>
<path d="M216.787 26.7165C217.466 26.7165 218.016 26.1725 218.016 25.5016C218.016 24.8306 217.466 24.2866 216.787 24.2866C216.109 24.2866 215.559 24.8306 215.559 25.5016C215.559 26.1725 216.109 26.7165 216.787 26.7165Z" fill="#42D405"/>
<path d="M219.244 29.1434C219.923 29.1434 220.473 28.5994 220.473 27.9285C220.473 27.2575 219.923 26.7135 219.244 26.7135C218.566 26.7135 218.016 27.2575 218.016 27.9285C218.016 28.5994 218.566 29.1434 219.244 29.1434Z" fill="#42D405"/>
<path d="M222.93 25.4985C222.93 24.8275 222.38 24.2836 221.701 24.2836C221.023 24.2836 220.473 24.8275 220.473 25.4985C220.473 26.1695 221.023 26.7135 221.701 26.7135C222.38 26.7135 222.93 26.1695 222.93 25.4985Z" fill="#42D405"/>
<path d="M225.384 25.4985C225.384 24.8275 224.834 24.2836 224.155 24.2836C223.477 24.2836 222.927 24.8275 222.927 25.4985C222.927 26.1695 223.477 26.7135 224.155 26.7135C224.834 26.7135 225.384 26.1695 225.384 25.4985Z" fill="#42D405"/>
<path d="M227.841 25.4985C227.841 24.8275 227.291 24.2836 226.612 24.2836C225.934 24.2836 225.384 24.8275 225.384 25.4985C225.384 26.1695 225.934 26.7135 226.612 26.7135C227.291 26.7135 227.841 26.1695 227.841 25.4985Z" fill="#42D405"/>
<path d="M230.295 25.4985C230.295 24.8275 229.745 24.2836 229.066 24.2836C228.388 24.2836 227.838 24.8275 227.838 25.4985C227.838 26.1695 228.388 26.7135 229.066 26.7135C229.745 26.7135 230.295 26.1695 230.295 25.4985Z" fill="#42D405"/>
<path d="M219.244 26.7135C219.923 26.7135 220.473 26.1695 220.473 25.4985C220.473 24.8275 219.923 24.2836 219.244 24.2836C218.566 24.2836 218.016 24.8275 218.016 25.4985C218.016 26.1695 218.566 26.7135 219.244 26.7135Z" fill="#42D405"/>
<path d="M216.787 29.1434C217.466 29.1434 218.016 28.5994 218.016 27.9284C218.016 27.2574 217.466 26.7135 216.787 26.7135C216.109 26.7135 215.559 27.2574 215.559 27.9284C215.559 28.5994 216.109 29.1434 216.787 29.1434Z" fill="#42D405"/>
<path d="M219.244 31.5701C219.923 31.5701 220.473 31.0262 220.473 30.3552C220.473 29.6842 219.923 29.1403 219.244 29.1403C218.566 29.1403 218.016 29.6842 218.016 30.3552C218.016 31.0262 218.566 31.5701 219.244 31.5701Z" fill="#42D405"/>
<path d="M216.79 31.5732C217.469 31.5732 218.019 31.0292 218.019 30.3582C218.019 29.6872 217.469 29.1433 216.79 29.1433C216.112 29.1433 215.562 29.6872 215.562 30.3582C215.562 31.0292 216.112 31.5732 216.79 31.5732Z" fill="#42D405"/>
<path d="M219.244 34.0001C219.923 34.0001 220.473 33.4561 220.473 32.7851C220.473 32.1141 219.923 31.5702 219.244 31.5702C218.566 31.5702 218.016 32.1141 218.016 32.7851C218.016 33.4561 218.566 34.0001 219.244 34.0001Z" fill="#42D405"/>
<path d="M216.787 34.0001C217.466 34.0001 218.016 33.4561 218.016 32.7851C218.016 32.1141 217.466 31.5702 216.787 31.5702C216.109 31.5702 215.559 32.1141 215.559 32.7851C215.559 33.4561 216.109 34.0001 216.787 34.0001Z" fill="#42D405"/>
<path d="M139.614 0H137.16H134.703H132.249H129.792H127.335H124.881V2.42989V4.8567V7.28659V9.71341V12.1433V14.5701V17V19.4268V21.8567V24.2835V26.7134V29.1402V31.5701V34H127.335H129.792H132.249H134.703H137.16H139.614H142.071V31.5701V29.1402V26.7134V24.2835V21.8567V19.4268V17V14.5701V12.1433V9.71341V7.28659V4.8567V2.42989V0H139.614Z" fill="#42D405"/>
<path d="M180.043 0H177.586H175.132H172.675H170.221H167.764H165.31V2.42989V4.8567V7.28659V9.71341V12.1433V14.5701V17V19.4268V21.8567V24.2835V26.7134V29.1402V31.5701V34H167.764H170.221H172.675H175.132H177.586H180.043H182.497V31.5701V29.1402V26.7134V24.2835V21.8567V19.4268V17V14.5701V12.1433V9.71341V7.28659V4.8567V2.42989V0H180.043Z" fill="#42D405"/>
<path d="M218.016 0H215.562H213.105H210.648H208.194H205.737V2.42989V4.8567V7.28659V9.71341V12.1433V14.5701V17V19.4268V21.8567V24.2835H208.194H210.648H213.105H215.562H218.016H220.473H222.927V21.8567V19.4268V17V14.5701V12.1433V9.71341V7.28659V4.8567V2.42989V0H220.473H218.016Z" fill="#42D405"/>
<path d="M240.117 0H237.66H235.206H232.749H230.295H227.838H225.384V2.42989V4.8567V7.28659V9.71341V12.1433V14.5701V17V19.4268V21.8567V24.2835H227.838H230.295H232.749H235.206H237.66H240.117H242.571V21.8567V19.4268V17V14.5701V12.1433V9.71341V7.28659V4.8567V2.42989V0H240.117Z" fill="#42D405"/>
<path d="M58.758 0H56.3009H53.847H51.39H48.936H46.479H44.0219V2.42989V4.8567V7.28659V9.71341V12.1433V14.5701V17V19.4268V21.8567V24.2835V26.7134V29.1402V31.5701V34H46.479H48.936H51.39H53.847H56.3009H58.758H61.2119V31.5701V29.1402V26.7134V24.2835V21.8567V19.4268V17V14.5701V12.1433V9.71341V7.28659V4.8567V2.42989V0H58.758Z" fill="#42D405"/>
<path d="M63.669 1.21494C63.669 0.543949 63.1189 0 62.4404 0C61.7619 0 61.2119 0.543949 61.2119 1.21494C61.2119 1.88594 61.7619 2.42989 62.4404 2.42989C63.1189 2.42989 63.669 1.88594 63.669 1.21494Z" fill="#42D405"/>
<path d="M63.669 3.64487C63.669 2.97388 63.1189 2.42993 62.4404 2.42993C61.7619 2.42993 61.2119 2.97388 61.2119 3.64487C61.2119 4.31587 61.7619 4.85982 62.4404 4.85982C63.1189 4.85982 63.669 4.31587 63.669 3.64487Z" fill="#42D405"/>
<path d="M63.669 6.07163C63.669 5.40064 63.1189 4.85669 62.4404 4.85669C61.7619 4.85669 61.2119 5.40064 61.2119 6.07163C61.2119 6.74263 61.7619 7.28658 62.4404 7.28658C63.1189 7.28658 63.669 6.74263 63.669 6.07163Z" fill="#42D405"/>
<path d="M66.126 1.21494C66.126 0.543949 65.576 0 64.8975 0C64.219 0 63.6689 0.543949 63.6689 1.21494C63.6689 1.88594 64.219 2.42989 64.8975 2.42989C65.576 2.42989 66.126 1.88594 66.126 1.21494Z" fill="#42D405"/>
<path d="M66.126 3.64487C66.126 2.97388 65.576 2.42993 64.8975 2.42993C64.219 2.42993 63.6689 2.97388 63.6689 3.64487C63.6689 4.31587 64.219 4.85982 64.8975 4.85982C65.576 4.85982 66.126 4.31587 66.126 3.64487Z" fill="#42D405"/>
<path d="M66.126 6.07163C66.126 5.40064 65.576 4.85669 64.8975 4.85669C64.219 4.85669 63.6689 5.40064 63.6689 6.07163C63.6689 6.74263 64.219 7.28658 64.8975 7.28658C65.576 7.28658 66.126 6.74263 66.126 6.07163Z" fill="#42D405"/>
<path d="M68.5799 1.21494C68.5799 0.543949 68.0299 0 67.3514 0C66.6729 0 66.1229 0.543949 66.1229 1.21494C66.1229 1.88594 66.6729 2.42989 67.3514 2.42989C68.0299 2.42989 68.5799 1.88594 68.5799 1.21494Z" fill="#42D405"/>
<path d="M68.5799 3.64487C68.5799 2.97388 68.0299 2.42993 67.3514 2.42993C66.6729 2.42993 66.1229 2.97388 66.1229 3.64487C66.1229 4.31587 66.6729 4.85982 67.3514 4.85982C68.0299 4.85982 68.5799 4.31587 68.5799 3.64487Z" fill="#42D405"/>
<path d="M68.5799 6.07163C68.5799 5.40064 68.0299 4.85669 67.3514 4.85669C66.6729 4.85669 66.1229 5.40064 66.1229 6.07163C66.1229 6.74263 66.6729 7.28658 67.3514 7.28658C68.0299 7.28658 68.5799 6.74263 68.5799 6.07163Z" fill="#42D405"/>
<path d="M71.037 1.21494C71.037 0.543949 70.4869 0 69.8084 0C69.13 0 68.5799 0.543949 68.5799 1.21494C68.5799 1.88594 69.13 2.42989 69.8084 2.42989C70.4869 2.42989 71.037 1.88594 71.037 1.21494Z" fill="#42D405"/>
<path d="M71.037 3.64487C71.037 2.97388 70.4869 2.42993 69.8084 2.42993C69.13 2.42993 68.5799 2.97388 68.5799 3.64487C68.5799 4.31587 69.13 4.85982 69.8084 4.85982C70.4869 4.85982 71.037 4.31587 71.037 3.64487Z" fill="#42D405"/>
<path d="M71.037 6.07163C71.037 5.40064 70.4869 4.85669 69.8084 4.85669C69.13 4.85669 68.5799 5.40064 68.5799 6.07163C68.5799 6.74263 69.13 7.28658 69.8084 7.28658C70.4869 7.28658 71.037 6.74263 71.037 6.07163Z" fill="#42D405"/>
<path d="M73.4909 1.21494C73.4909 0.543949 72.9409 0 72.2624 0C71.5839 0 71.0339 0.543949 71.0339 1.21494C71.0339 1.88594 71.5839 2.42989 72.2624 2.42989C72.9409 2.42989 73.4909 1.88594 73.4909 1.21494Z" fill="#42D405"/>
<path d="M73.4909 3.64487C73.4909 2.97388 72.9409 2.42993 72.2624 2.42993C71.5839 2.42993 71.0339 2.97388 71.0339 3.64487C71.0339 4.31587 71.5839 4.85982 72.2624 4.85982C72.9409 4.85982 73.4909 4.31587 73.4909 3.64487Z" fill="#42D405"/>
<path d="M75.9479 3.64487C75.9479 2.97388 75.3979 2.42993 74.7194 2.42993C74.0409 2.42993 73.4909 2.97388 73.4909 3.64487C73.4909 4.31587 74.0409 4.85982 74.7194 4.85982C75.3979 4.85982 75.9479 4.31587 75.9479 3.64487Z" fill="#42D405"/>
<path d="M73.4909 6.07163C73.4909 5.40064 72.9409 4.85669 72.2624 4.85669C71.5839 4.85669 71.0339 5.40064 71.0339 6.07163C71.0339 6.74263 71.5839 7.28658 72.2624 7.28658C72.9409 7.28658 73.4909 6.74263 73.4909 6.07163Z" fill="#42D405"/>
<path d="M75.9479 6.07163C75.9479 5.40064 75.3979 4.85669 74.7194 4.85669C74.0409 4.85669 73.4909 5.40064 73.4909 6.07163C73.4909 6.74263 74.0409 7.28658 74.7194 7.28658C75.3979 7.28658 75.9479 6.74263 75.9479 6.07163Z" fill="#42D405"/>
<path d="M78.4019 6.07163C78.4019 5.40064 77.8518 4.85669 77.1734 4.85669C76.4949 4.85669 75.9448 5.40064 75.9448 6.07163C75.9448 6.74263 76.4949 7.28658 77.1734 7.28658C77.8518 7.28658 78.4019 6.74263 78.4019 6.07163Z" fill="#42D405"/>
<path d="M63.669 8.50156C63.669 7.83057 63.1189 7.28662 62.4404 7.28662C61.7619 7.28662 61.2119 7.83057 61.2119 8.50156C61.2119 9.17256 61.7619 9.71651 62.4404 9.71651C63.1189 9.71651 63.669 9.17256 63.669 8.50156Z" fill="#42D405"/>
<path d="M66.126 8.50156C66.126 7.83057 65.576 7.28662 64.8975 7.28662C64.219 7.28662 63.6689 7.83057 63.6689 8.50156C63.6689 9.17256 64.219 9.71651 64.8975 9.71651C65.576 9.71651 66.126 9.17256 66.126 8.50156Z" fill="#42D405"/>
<path d="M68.5799 8.50156C68.5799 7.83057 68.0299 7.28662 67.3514 7.28662C66.6729 7.28662 66.1229 7.83057 66.1229 8.50156C66.1229 9.17256 66.6729 9.71651 67.3514 9.71651C68.0299 9.71651 68.5799 9.17256 68.5799 8.50156Z" fill="#42D405"/>
<path d="M71.037 8.50156C71.037 7.83057 70.4869 7.28662 69.8084 7.28662C69.13 7.28662 68.5799 7.83057 68.5799 8.50156C68.5799 9.17256 69.13 9.71651 69.8084 9.71651C70.4869 9.71651 71.037 9.17256 71.037 8.50156Z" fill="#42D405"/>
<path d="M71.037 10.9283C71.037 10.2573 70.4869 9.71338 69.8084 9.71338C69.13 9.71338 68.5799 10.2573 68.5799 10.9283C68.5799 11.5993 69.13 12.1433 69.8084 12.1433C70.4869 12.1433 71.037 11.5993 71.037 10.9283Z" fill="#42D405"/>
<path d="M71.037 13.3583C71.037 12.6873 70.4869 12.1433 69.8084 12.1433C69.13 12.1433 68.5799 12.6873 68.5799 13.3583C68.5799 14.0292 69.13 14.5732 69.8084 14.5732C70.4869 14.5732 71.037 14.0292 71.037 13.3583Z" fill="#42D405"/>
<path d="M71.037 15.785C71.037 15.114 70.4869 14.5701 69.8084 14.5701C69.13 14.5701 68.5799 15.114 68.5799 15.785C68.5799 16.456 69.13 17 69.8084 17C70.4869 17 71.037 16.456 71.037 15.785Z" fill="#42D405"/>
<path d="M71.037 18.2149C71.037 17.5439 70.4869 17 69.8084 17C69.13 17 68.5799 17.5439 68.5799 18.2149C68.5799 18.8859 69.13 19.4299 69.8084 19.4299C70.4869 19.4299 71.037 18.8859 71.037 18.2149Z" fill="#42D405"/>
<path d="M71.037 20.6417C71.037 19.9707 70.4869 19.4268 69.8084 19.4268C69.13 19.4268 68.5799 19.9707 68.5799 20.6417C68.5799 21.3127 69.13 21.8566 69.8084 21.8566C70.4869 21.8566 71.037 21.3127 71.037 20.6417Z" fill="#42D405"/>
<path d="M71.037 23.0716C71.037 22.4006 70.4869 21.8567 69.8084 21.8567C69.13 21.8567 68.5799 22.4006 68.5799 23.0716C68.5799 23.7426 69.13 24.2866 69.8084 24.2866C70.4869 24.2866 71.037 23.7426 71.037 23.0716Z" fill="#42D405"/>
<path d="M71.037 25.4985C71.037 24.8275 70.4869 24.2836 69.8084 24.2836C69.13 24.2836 68.5799 24.8275 68.5799 25.4985C68.5799 26.1695 69.13 26.7135 69.8084 26.7135C70.4869 26.7135 71.037 26.1695 71.037 25.4985Z" fill="#42D405"/>
<path d="M68.5799 10.9283C68.5799 10.2573 68.0299 9.71338 67.3514 9.71338C66.6729 9.71338 66.1229 10.2573 66.1229 10.9283C66.1229 11.5993 66.6729 12.1433 67.3514 12.1433C68.0299 12.1433 68.5799 11.5993 68.5799 10.9283Z" fill="#42D405"/>
<path d="M68.5799 13.3583C68.5799 12.6873 68.0299 12.1433 67.3514 12.1433C66.6729 12.1433 66.1229 12.6873 66.1229 13.3583C66.1229 14.0292 66.6729 14.5732 67.3514 14.5732C68.0299 14.5732 68.5799 14.0292 68.5799 13.3583Z" fill="#42D405"/>
<path d="M68.5799 15.785C68.5799 15.114 68.0299 14.5701 67.3514 14.5701C66.6729 14.5701 66.1229 15.114 66.1229 15.785C66.1229 16.456 66.6729 17 67.3514 17C68.0299 17 68.5799 16.456 68.5799 15.785Z" fill="#42D405"/>
<path d="M68.5799 18.2149C68.5799 17.5439 68.0299 17 67.3514 17C66.6729 17 66.1229 17.5439 66.1229 18.2149C66.1229 18.8859 66.6729 19.4299 67.3514 19.4299C68.0299 19.4299 68.5799 18.8859 68.5799 18.2149Z" fill="#42D405"/>
<path d="M68.5799 20.6417C68.5799 19.9707 68.0299 19.4268 67.3514 19.4268C66.6729 19.4268 66.1229 19.9707 66.1229 20.6417C66.1229 21.3127 66.6729 21.8566 67.3514 21.8566C68.0299 21.8566 68.5799 21.3127 68.5799 20.6417Z" fill="#42D405"/>
<path d="M68.5799 23.0716C68.5799 22.4006 68.0299 21.8567 67.3514 21.8567C66.6729 21.8567 66.1229 22.4006 66.1229 23.0716C66.1229 23.7426 66.6729 24.2866 67.3514 24.2866C68.0299 24.2866 68.5799 23.7426 68.5799 23.0716Z" fill="#42D405"/>
<path d="M68.5799 25.4985C68.5799 24.8275 68.0299 24.2836 67.3514 24.2836C66.6729 24.2836 66.1229 24.8275 66.1229 25.4985C66.1229 26.1695 66.6729 26.7135 67.3514 26.7135C68.0299 26.7135 68.5799 26.1695 68.5799 25.4985Z" fill="#42D405"/>
<path d="M66.126 10.9283C66.126 10.2573 65.576 9.71338 64.8975 9.71338C64.219 9.71338 63.6689 10.2573 63.6689 10.9283C63.6689 11.5993 64.219 12.1433 64.8975 12.1433C65.576 12.1433 66.126 11.5993 66.126 10.9283Z" fill="#42D405"/>
<path d="M66.126 13.3583C66.126 12.6873 65.576 12.1433 64.8975 12.1433C64.219 12.1433 63.6689 12.6873 63.6689 13.3583C63.6689 14.0292 64.219 14.5732 64.8975 14.5732C65.576 14.5732 66.126 14.0292 66.126 13.3583Z" fill="#42D405"/>
<path d="M66.126 15.785C66.126 15.114 65.576 14.5701 64.8975 14.5701C64.219 14.5701 63.6689 15.114 63.6689 15.785C63.6689 16.456 64.219 17 64.8975 17C65.576 17 66.126 16.456 66.126 15.785Z" fill="#42D405"/>
<path d="M66.126 18.2149C66.126 17.5439 65.576 17 64.8975 17C64.219 17 63.6689 17.5439 63.6689 18.2149C63.6689 18.8859 64.219 19.4299 64.8975 19.4299C65.576 19.4299 66.126 18.8859 66.126 18.2149Z" fill="#42D405"/>
<path d="M66.126 20.6417C66.126 19.9707 65.576 19.4268 64.8975 19.4268C64.219 19.4268 63.6689 19.9707 63.6689 20.6417C63.6689 21.3127 64.219 21.8566 64.8975 21.8566C65.576 21.8566 66.126 21.3127 66.126 20.6417Z" fill="#42D405"/>
<path d="M66.126 23.0716C66.126 22.4006 65.576 21.8567 64.8975 21.8567C64.219 21.8567 63.6689 22.4006 63.6689 23.0716C63.6689 23.7426 64.219 24.2866 64.8975 24.2866C65.576 24.2866 66.126 23.7426 66.126 23.0716Z" fill="#42D405"/>
<path d="M66.126 25.4985C66.126 24.8275 65.576 24.2836 64.8975 24.2836C64.219 24.2836 63.6689 24.8275 63.6689 25.4985C63.6689 26.1695 64.219 26.7135 64.8975 26.7135C65.576 26.7135 66.126 26.1695 66.126 25.4985Z" fill="#42D405"/>
<path d="M73.4909 8.50156C73.4909 7.83057 72.9409 7.28662 72.2624 7.28662C71.5839 7.28662 71.0339 7.83057 71.0339 8.50156C71.0339 9.17256 71.5839 9.71651 72.2624 9.71651C72.9409 9.71651 73.4909 9.17256 73.4909 8.50156Z" fill="#42D405"/>
<path d="M73.4909 10.9283C73.4909 10.2573 72.9409 9.71338 72.2624 9.71338C71.5839 9.71338 71.0339 10.2573 71.0339 10.9283C71.0339 11.5993 71.5839 12.1433 72.2624 12.1433C72.9409 12.1433 73.4909 11.5993 73.4909 10.9283Z" fill="#42D405"/>
<path d="M73.4909 13.3583C73.4909 12.6873 72.9409 12.1433 72.2624 12.1433C71.5839 12.1433 71.0339 12.6873 71.0339 13.3583C71.0339 14.0292 71.5839 14.5732 72.2624 14.5732C72.9409 14.5732 73.4909 14.0292 73.4909 13.3583Z" fill="#42D405"/>
<path d="M73.4909 15.785C73.4909 15.114 72.9409 14.5701 72.2624 14.5701C71.5839 14.5701 71.0339 15.114 71.0339 15.785C71.0339 16.456 71.5839 17 72.2624 17C72.9409 17 73.4909 16.456 73.4909 15.785Z" fill="#42D405"/>
<path d="M73.4909 18.2149C73.4909 17.5439 72.9409 17 72.2624 17C71.5839 17 71.0339 17.5439 71.0339 18.2149C71.0339 18.8859 71.5839 19.4299 72.2624 19.4299C72.9409 19.4299 73.4909 18.8859 73.4909 18.2149Z" fill="#42D405"/>
<path d="M73.4909 20.6417C73.4909 19.9707 72.9409 19.4268 72.2624 19.4268C71.5839 19.4268 71.0339 19.9707 71.0339 20.6417C71.0339 21.3127 71.5839 21.8566 72.2624 21.8566C72.9409 21.8566 73.4909 21.3127 73.4909 20.6417Z" fill="#42D405"/>
<path d="M73.4909 23.0716C73.4909 22.4006 72.9409 21.8567 72.2624 21.8567C71.5839 21.8567 71.0339 22.4006 71.0339 23.0716C71.0339 23.7426 71.5839 24.2866 72.2624 24.2866C72.9409 24.2866 73.4909 23.7426 73.4909 23.0716Z" fill="#42D405"/>
<path d="M73.4909 25.4985C73.4909 24.8275 72.9409 24.2836 72.2624 24.2836C71.5839 24.2836 71.0339 24.8275 71.0339 25.4985C71.0339 26.1695 71.5839 26.7135 72.2624 26.7135C72.9409 26.7135 73.4909 26.1695 73.4909 25.4985Z" fill="#42D405"/>
<path d="M75.9479 8.50156C75.9479 7.83057 75.3979 7.28662 74.7194 7.28662C74.0409 7.28662 73.4909 7.83057 73.4909 8.50156C73.4909 9.17256 74.0409 9.71651 74.7194 9.71651C75.3979 9.71651 75.9479 9.17256 75.9479 8.50156Z" fill="#42D405"/>
<path d="M75.9479 10.9283C75.9479 10.2573 75.3979 9.71338 74.7194 9.71338C74.0409 9.71338 73.4909 10.2573 73.4909 10.9283C73.4909 11.5993 74.0409 12.1433 74.7194 12.1433C75.3979 12.1433 75.9479 11.5993 75.9479 10.9283Z" fill="#42D405"/>
<path d="M75.9479 13.3583C75.9479 12.6873 75.3979 12.1433 74.7194 12.1433C74.0409 12.1433 73.4909 12.6873 73.4909 13.3583C73.4909 14.0292 74.0409 14.5732 74.7194 14.5732C75.3979 14.5732 75.9479 14.0292 75.9479 13.3583Z" fill="#42D405"/>
<path d="M75.9479 15.785C75.9479 15.114 75.3979 14.5701 74.7194 14.5701C74.0409 14.5701 73.4909 15.114 73.4909 15.785C73.4909 16.456 74.0409 17 74.7194 17C75.3979 17 75.9479 16.456 75.9479 15.785Z" fill="#42D405"/>
<path d="M75.9479 18.2149C75.9479 17.5439 75.3979 17 74.7194 17C74.0409 17 73.4909 17.5439 73.4909 18.2149C73.4909 18.8859 74.0409 19.4299 74.7194 19.4299C75.3979 19.4299 75.9479 18.8859 75.9479 18.2149Z" fill="#42D405"/>
<path d="M75.9479 20.6417C75.9479 19.9707 75.3979 19.4268 74.7194 19.4268C74.0409 19.4268 73.4909 19.9707 73.4909 20.6417C73.4909 21.3127 74.0409 21.8566 74.7194 21.8566C75.3979 21.8566 75.9479 21.3127 75.9479 20.6417Z" fill="#42D405"/>
<path d="M75.9479 23.0716C75.9479 22.4006 75.3979 21.8567 74.7194 21.8567C74.0409 21.8567 73.4909 22.4006 73.4909 23.0716C73.4909 23.7426 74.0409 24.2866 74.7194 24.2866C75.3979 24.2866 75.9479 23.7426 75.9479 23.0716Z" fill="#42D405"/>
<path d="M75.9479 25.4985C75.9479 24.8275 75.3979 24.2836 74.7194 24.2836C74.0409 24.2836 73.4909 24.8275 73.4909 25.4985C73.4909 26.1695 74.0409 26.7135 74.7194 26.7135C75.3979 26.7135 75.9479 26.1695 75.9479 25.4985Z" fill="#42D405"/>
<path d="M78.4019 8.50156C78.4019 7.83057 77.8518 7.28662 77.1734 7.28662C76.4949 7.28662 75.9448 7.83057 75.9448 8.50156C75.9448 9.17256 76.4949 9.71651 77.1734 9.71651C77.8518 9.71651 78.4019 9.17256 78.4019 8.50156Z" fill="#42D405"/>
<path d="M78.4019 10.9283C78.4019 10.2573 77.8518 9.71338 77.1734 9.71338C76.4949 9.71338 75.9448 10.2573 75.9448 10.9283C75.9448 11.5993 76.4949 12.1433 77.1734 12.1433C77.8518 12.1433 78.4019 11.5993 78.4019 10.9283Z" fill="#42D405"/>
<path d="M78.4019 13.3583C78.4019 12.6873 77.8518 12.1433 77.1734 12.1433C76.4949 12.1433 75.9448 12.6873 75.9448 13.3583C75.9448 14.0292 76.4949 14.5732 77.1734 14.5732C77.8518 14.5732 78.4019 14.0292 78.4019 13.3583Z" fill="#42D405"/>
<path d="M78.4019 15.785C78.4019 15.114 77.8518 14.5701 77.1734 14.5701C76.4949 14.5701 75.9448 15.114 75.9448 15.785C75.9448 16.456 76.4949 17 77.1734 17C77.8518 17 78.4019 16.456 78.4019 15.785Z" fill="#42D405"/>
<path d="M78.4019 18.2149C78.4019 17.5439 77.8518 17 77.1734 17C76.4949 17 75.9448 17.5439 75.9448 18.2149C75.9448 18.8859 76.4949 19.4299 77.1734 19.4299C77.8518 19.4299 78.4019 18.8859 78.4019 18.2149Z" fill="#42D405"/>
<path d="M78.4019 20.6417C78.4019 19.9707 77.8518 19.4268 77.1734 19.4268C76.4949 19.4268 75.9448 19.9707 75.9448 20.6417C75.9448 21.3127 76.4949 21.8566 77.1734 21.8566C77.8518 21.8566 78.4019 21.3127 78.4019 20.6417Z" fill="#42D405"/>
<path d="M78.4019 23.0716C78.4019 22.4006 77.8518 21.8567 77.1734 21.8567C76.4949 21.8567 75.9448 22.4006 75.9448 23.0716C75.9448 23.7426 76.4949 24.2866 77.1734 24.2866C77.8518 24.2866 78.4019 23.7426 78.4019 23.0716Z" fill="#42D405"/>
<path d="M78.4019 25.4985C78.4019 24.8275 77.8518 24.2836 77.1734 24.2836C76.4949 24.2836 75.9448 24.8275 75.9448 25.4985C75.9448 26.1695 76.4949 26.7135 77.1734 26.7135C77.8518 26.7135 78.4019 26.1695 78.4019 25.4985Z" fill="#42D405"/>
<path d="M71.037 27.9283C71.037 27.2573 70.4869 26.7134 69.8084 26.7134C69.13 26.7134 68.5799 27.2573 68.5799 27.9283C68.5799 28.5993 69.13 29.1433 69.8084 29.1433C70.4869 29.1433 71.037 28.5993 71.037 27.9283Z" fill="#42D405"/>
<path d="M73.4909 27.9283C73.4909 27.2573 72.9409 26.7134 72.2624 26.7134C71.5839 26.7134 71.0339 27.2573 71.0339 27.9283C71.0339 28.5993 71.5839 29.1433 72.2624 29.1433C72.9409 29.1433 73.4909 28.5993 73.4909 27.9283Z" fill="#42D405"/>
<path d="M75.9479 27.9283C75.9479 27.2573 75.3979 26.7134 74.7194 26.7134C74.0409 26.7134 73.4909 27.2573 73.4909 27.9283C73.4909 28.5993 74.0409 29.1433 74.7194 29.1433C75.3979 29.1433 75.9479 28.5993 75.9479 27.9283Z" fill="#42D405"/>
<path d="M71.037 30.3552C71.037 29.6842 70.4869 29.1403 69.8084 29.1403C69.13 29.1403 68.5799 29.6842 68.5799 30.3552C68.5799 31.0262 69.13 31.5701 69.8084 31.5701C70.4869 31.5701 71.037 31.0262 71.037 30.3552Z" fill="#42D405"/>
<path d="M73.4909 30.3552C73.4909 29.6842 72.9409 29.1403 72.2624 29.1403C71.5839 29.1403 71.0339 29.6842 71.0339 30.3552C71.0339 31.0262 71.5839 31.5701 72.2624 31.5701C72.9409 31.5701 73.4909 31.0262 73.4909 30.3552Z" fill="#42D405"/>
<path d="M71.037 32.785C71.037 32.114 70.4869 31.5701 69.8084 31.5701C69.13 31.5701 68.5799 32.114 68.5799 32.785C68.5799 33.456 69.13 34 69.8084 34C70.4869 34 71.037 33.456 71.037 32.785Z" fill="#42D405"/>
<path d="M73.4909 32.785C73.4909 32.114 72.9409 31.5701 72.2624 31.5701C71.5839 31.5701 71.0339 32.114 71.0339 32.785C71.0339 33.456 71.5839 34 72.2624 34C72.9409 34 73.4909 33.456 73.4909 32.785Z" fill="#42D405"/>
<path d="M75.9479 30.3552C75.9479 29.6842 75.3979 29.1403 74.7194 29.1403C74.0409 29.1403 73.4909 29.6842 73.4909 30.3552C73.4909 31.0262 74.0409 31.5701 74.7194 31.5701C75.3979 31.5701 75.9479 31.0262 75.9479 30.3552Z" fill="#42D405"/>
<path d="M78.4019 27.9283C78.4019 27.2573 77.8518 26.7134 77.1734 26.7134C76.4949 26.7134 75.9448 27.2573 75.9448 27.9283C75.9448 28.5993 76.4949 29.1433 77.1734 29.1433C77.8518 29.1433 78.4019 28.5993 78.4019 27.9283Z" fill="#42D405"/>
<path d="M80.8589 8.50156C80.8589 7.83057 80.3089 7.28662 79.6304 7.28662C78.9519 7.28662 78.4019 7.83057 78.4019 8.50156C78.4019 9.17256 78.9519 9.71651 79.6304 9.71651C80.3089 9.71651 80.8589 9.17256 80.8589 8.50156Z" fill="#42D405"/>
<path d="M80.8589 10.9283C80.8589 10.2573 80.3089 9.71338 79.6304 9.71338C78.9519 9.71338 78.4019 10.2573 78.4019 10.9283C78.4019 11.5993 78.9519 12.1433 79.6304 12.1433C80.3089 12.1433 80.8589 11.5993 80.8589 10.9283Z" fill="#42D405"/>
<path d="M80.8589 13.3583C80.8589 12.6873 80.3089 12.1433 79.6304 12.1433C78.9519 12.1433 78.4019 12.6873 78.4019 13.3583C78.4019 14.0292 78.9519 14.5732 79.6304 14.5732C80.3089 14.5732 80.8589 14.0292 80.8589 13.3583Z" fill="#42D405"/>
<path d="M80.8589 15.785C80.8589 15.114 80.3089 14.5701 79.6304 14.5701C78.9519 14.5701 78.4019 15.114 78.4019 15.785C78.4019 16.456 78.9519 17 79.6304 17C80.3089 17 80.8589 16.456 80.8589 15.785Z" fill="#42D405"/>
<path d="M80.8589 18.2149C80.8589 17.5439 80.3089 17 79.6304 17C78.9519 17 78.4019 17.5439 78.4019 18.2149C78.4019 18.8859 78.9519 19.4299 79.6304 19.4299C80.3089 19.4299 80.8589 18.8859 80.8589 18.2149Z" fill="#42D405"/>
<path d="M80.8589 20.6417C80.8589 19.9707 80.3089 19.4268 79.6304 19.4268C78.9519 19.4268 78.4019 19.9707 78.4019 20.6417C78.4019 21.3127 78.9519 21.8566 79.6304 21.8566C80.3089 21.8566 80.8589 21.3127 80.8589 20.6417Z" fill="#42D405"/>
<path d="M80.8589 23.0716C80.8589 22.4006 80.3089 21.8567 79.6304 21.8567C78.9519 21.8567 78.4019 22.4006 78.4019 23.0716C78.4019 23.7426 78.9519 24.2866 79.6304 24.2866C80.3089 24.2866 80.8589 23.7426 80.8589 23.0716Z" fill="#42D405"/>
<path d="M80.8589 25.4985C80.8589 24.8275 80.3089 24.2836 79.6304 24.2836C78.9519 24.2836 78.4019 24.8275 78.4019 25.4985C78.4019 26.1695 78.9519 26.7135 79.6304 26.7135C80.3089 26.7135 80.8589 26.1695 80.8589 25.4985Z" fill="#42D405"/>
<path d="M63.669 27.9283C63.669 27.2573 63.1189 26.7134 62.4404 26.7134C61.7619 26.7134 61.2119 27.2573 61.2119 27.9283C61.2119 28.5993 61.7619 29.1433 62.4404 29.1433C63.1189 29.1433 63.669 28.5993 63.669 27.9283Z" fill="#42D405"/>
<path d="M63.669 25.4985C63.669 24.8275 63.1189 24.2836 62.4404 24.2836C61.7619 24.2836 61.2119 24.8275 61.2119 25.4985C61.2119 26.1695 61.7619 26.7135 62.4404 26.7135C63.1189 26.7135 63.669 26.1695 63.669 25.4985Z" fill="#42D405"/>
<path d="M63.669 30.3552C63.669 29.6842 63.1189 29.1403 62.4404 29.1403C61.7619 29.1403 61.2119 29.6842 61.2119 30.3552C61.2119 31.0262 61.7619 31.5701 62.4404 31.5701C63.1189 31.5701 63.669 31.0262 63.669 30.3552Z" fill="#42D405"/>
<path d="M63.669 32.785C63.669 32.114 63.1189 31.5701 62.4404 31.5701C61.7619 31.5701 61.2119 32.114 61.2119 32.785C61.2119 33.456 61.7619 34 62.4404 34C63.1189 34 63.669 33.456 63.669 32.785Z" fill="#42D405"/>
<path d="M66.126 27.9283C66.126 27.2573 65.576 26.7134 64.8975 26.7134C64.219 26.7134 63.6689 27.2573 63.6689 27.9283C63.6689 28.5993 64.219 29.1433 64.8975 29.1433C65.576 29.1433 66.126 28.5993 66.126 27.9283Z" fill="#42D405"/>
<path d="M66.126 30.3552C66.126 29.6842 65.576 29.1403 64.8975 29.1403C64.219 29.1403 63.6689 29.6842 63.6689 30.3552C63.6689 31.0262 64.219 31.5701 64.8975 31.5701C65.576 31.5701 66.126 31.0262 66.126 30.3552Z" fill="#42D405"/>
<path d="M66.126 32.785C66.126 32.114 65.576 31.5701 64.8975 31.5701C64.219 31.5701 63.6689 32.114 63.6689 32.785C63.6689 33.456 64.219 34 64.8975 34C65.576 34 66.126 33.456 66.126 32.785Z" fill="#42D405"/>
<path d="M68.5799 27.9283C68.5799 27.2573 68.0299 26.7134 67.3514 26.7134C66.6729 26.7134 66.1229 27.2573 66.1229 27.9283C66.1229 28.5993 66.6729 29.1433 67.3514 29.1433C68.0299 29.1433 68.5799 28.5993 68.5799 27.9283Z" fill="#42D405"/>
<path d="M68.5799 30.3552C68.5799 29.6842 68.0299 29.1403 67.3514 29.1403C66.6729 29.1403 66.1229 29.6842 66.1229 30.3552C66.1229 31.0262 66.6729 31.5701 67.3514 31.5701C68.0299 31.5701 68.5799 31.0262 68.5799 30.3552Z" fill="#42D405"/>
<path d="M68.5799 32.785C68.5799 32.114 68.0299 31.5701 67.3514 31.5701C66.6729 31.5701 66.1229 32.114 66.1229 32.785C66.1229 33.456 66.6729 34 67.3514 34C68.0299 34 68.5799 33.456 68.5799 32.785Z" fill="#42D405"/>
<path d="M9.82505 3.64487C9.82505 2.97388 9.27502 2.42993 8.59653 2.42993C7.91804 2.42993 7.36801 2.97388 7.36801 3.64487C7.36801 4.31587 7.91804 4.85982 8.59653 4.85982C9.27502 4.85982 9.82505 4.31587 9.82505 3.64487Z" fill="#42D405"/>
<path d="M9.82505 6.07163C9.82505 5.40064 9.27502 4.85669 8.59653 4.85669C7.91804 4.85669 7.36801 5.40064 7.36801 6.07163C7.36801 6.74263 7.91804 7.28658 8.59653 7.28658C9.27502 7.28658 9.82505 6.74263 9.82505 6.07163Z" fill="#42D405"/>
<path d="M9.82505 8.50156C9.82505 7.83057 9.27502 7.28662 8.59653 7.28662C7.91804 7.28662 7.36801 7.83057 7.36801 8.50156C7.36801 9.17256 7.91804 9.71651 8.59653 9.71651C9.27502 9.71651 9.82505 9.17256 9.82505 8.50156Z" fill="#42D405"/>
<path d="M9.82505 10.9284C9.82505 10.2574 9.27502 9.7135 8.59653 9.7135C7.91804 9.7135 7.36801 10.2574 7.36801 10.9284C7.36801 11.5994 7.91804 12.1434 8.59653 12.1434C9.27502 12.1434 9.82505 11.5994 9.82505 10.9284Z" fill="#42D405"/>
<path d="M7.36801 3.64487C7.36801 2.97388 6.81798 2.42993 6.13949 2.42993C5.461 2.42993 4.91097 2.97388 4.91097 3.64487C4.91097 4.31587 5.461 4.85982 6.13949 4.85982C6.81798 4.85982 7.36801 4.31587 7.36801 3.64487Z" fill="#42D405"/>
<path d="M7.36801 6.07163C7.36801 5.40064 6.81798 4.85669 6.13949 4.85669C5.461 4.85669 4.91097 5.40064 4.91097 6.07163C4.91097 6.74263 5.461 7.28658 6.13949 7.28658C6.81798 7.28658 7.36801 6.74263 7.36801 6.07163Z" fill="#42D405"/>
<path d="M7.36801 8.50156C7.36801 7.83057 6.81798 7.28662 6.13949 7.28662C5.461 7.28662 4.91097 7.83057 4.91097 8.50156C4.91097 9.17256 5.461 9.71651 6.13949 9.71651C6.81798 9.71651 7.36801 9.17256 7.36801 8.50156Z" fill="#42D405"/>
<path d="M7.36801 10.9284C7.36801 10.2574 6.81798 9.7135 6.13949 9.7135C5.461 9.7135 4.91097 10.2574 4.91097 10.9284C4.91097 11.5994 5.461 12.1434 6.13949 12.1434C6.81798 12.1434 7.36801 11.5994 7.36801 10.9284Z" fill="#42D405"/>
<path d="M9.82505 27.9284C9.82505 27.2574 9.27502 26.7135 8.59653 26.7135C7.91804 26.7135 7.36801 27.2574 7.36801 27.9284C7.36801 28.5994 7.91804 29.1434 8.59653 29.1434C9.27502 29.1434 9.82505 28.5994 9.82505 27.9284Z" fill="#42D405"/>
<path d="M9.82505 30.3552C9.82505 29.6842 9.27502 29.1403 8.59653 29.1403C7.91804 29.1403 7.36801 29.6842 7.36801 30.3552C7.36801 31.0262 7.91804 31.5701 8.59653 31.5701C9.27502 31.5701 9.82505 31.0262 9.82505 30.3552Z" fill="#42D405"/>
<path d="M9.82505 25.4985C9.82505 24.8275 9.27502 24.2836 8.59653 24.2836C7.91804 24.2836 7.36801 24.8275 7.36801 25.4985C7.36801 26.1695 7.91804 26.7135 8.59653 26.7135C9.27502 26.7135 9.82505 26.1695 9.82505 25.4985Z" fill="#42D405"/>
<path d="M9.82505 23.0716C9.82505 22.4006 9.27502 21.8567 8.59653 21.8567C7.91804 21.8567 7.36801 22.4006 7.36801 23.0716C7.36801 23.7426 7.91804 24.2866 8.59653 24.2866C9.27502 24.2866 9.82505 23.7426 9.82505 23.0716Z" fill="#42D405"/>
<path d="M7.36801 27.9284C7.36801 27.2574 6.81798 26.7135 6.13949 26.7135C5.461 26.7135 4.91097 27.2574 4.91097 27.9284C4.91097 28.5994 5.461 29.1434 6.13949 29.1434C6.81798 29.1434 7.36801 28.5994 7.36801 27.9284Z" fill="#42D405"/>
<path d="M7.36801 30.3552C7.36801 29.6842 6.81798 29.1403 6.13949 29.1403C5.461 29.1403 4.91097 29.6842 4.91097 30.3552C4.91097 31.0262 5.461 31.5701 6.13949 31.5701C6.81798 31.5701 7.36801 31.0262 7.36801 30.3552Z" fill="#42D405"/>
<path d="M7.36801 25.4985C7.36801 24.8275 6.81798 24.2836 6.13949 24.2836C5.461 24.2836 4.91097 24.8275 4.91097 25.4985C4.91097 26.1695 5.461 26.7135 6.13949 26.7135C6.81798 26.7135 7.36801 26.1695 7.36801 25.4985Z" fill="#42D405"/>
<path d="M7.36801 23.0716C7.36801 22.4006 6.81798 21.8567 6.13949 21.8567C5.461 21.8567 4.91097 22.4006 4.91097 23.0716C4.91097 23.7426 5.461 24.2866 6.13949 24.2866C6.81798 24.2866 7.36801 23.7426 7.36801 23.0716Z" fill="#42D405"/>
<path d="M4.91408 3.64487C4.91408 2.97388 4.36405 2.42993 3.68556 2.42993C3.00707 2.42993 2.45704 2.97388 2.45704 3.64487C2.45704 4.31587 3.00707 4.85982 3.68556 4.85982C4.36405 4.85982 4.91408 4.31587 4.91408 3.64487Z" fill="#42D405"/>
<path d="M4.91408 6.07163C4.91408 5.40064 4.36405 4.85669 3.68556 4.85669C3.00707 4.85669 2.45704 5.40064 2.45704 6.07163C2.45704 6.74263 3.00707 7.28658 3.68556 7.28658C4.36405 7.28658 4.91408 6.74263 4.91408 6.07163Z" fill="#42D405"/>
<path d="M4.91408 8.50156C4.91408 7.83057 4.36405 7.28662 3.68556 7.28662C3.00707 7.28662 2.45704 7.83057 2.45704 8.50156C2.45704 9.17256 3.00707 9.71651 3.68556 9.71651C4.36405 9.71651 4.91408 9.17256 4.91408 8.50156Z" fill="#42D405"/>
<path d="M4.91408 10.9284C4.91408 10.2574 4.36405 9.7135 3.68556 9.7135C3.00707 9.7135 2.45704 10.2574 2.45704 10.9284C2.45704 11.5994 3.00707 12.1434 3.68556 12.1434C4.36405 12.1434 4.91408 11.5994 4.91408 10.9284Z" fill="#42D405"/>
<path d="M4.91408 27.9284C4.91408 27.2574 4.36405 26.7135 3.68556 26.7135C3.00707 26.7135 2.45704 27.2574 2.45704 27.9284C2.45704 28.5994 3.00707 29.1434 3.68556 29.1434C4.36405 29.1434 4.91408 28.5994 4.91408 27.9284Z" fill="#42D405"/>
<path d="M4.91408 30.3552C4.91408 29.6842 4.36405 29.1403 3.68556 29.1403C3.00707 29.1403 2.45704 29.6842 2.45704 30.3552C2.45704 31.0262 3.00707 31.5701 3.68556 31.5701C4.36405 31.5701 4.91408 31.0262 4.91408 30.3552Z" fill="#42D405"/>
<path d="M4.91408 25.4985C4.91408 24.8275 4.36405 24.2836 3.68556 24.2836C3.00707 24.2836 2.45704 24.8275 2.45704 25.4985C2.45704 26.1695 3.00707 26.7135 3.68556 26.7135C4.36405 26.7135 4.91408 26.1695 4.91408 25.4985Z" fill="#42D405"/>
<path d="M4.91408 23.0716C4.91408 22.4006 4.36405 21.8567 3.68556 21.8567C3.00707 21.8567 2.45704 22.4006 2.45704 23.0716C2.45704 23.7426 3.00707 24.2866 3.68556 24.2866C4.36405 24.2866 4.91408 23.7426 4.91408 23.0716Z" fill="#42D405"/>
<path d="M2.45704 3.64487C2.45704 2.97388 1.90701 2.42993 1.22852 2.42993C0.550027 2.42993 0 2.97388 0 3.64487C0 4.31587 0.550027 4.85982 1.22852 4.85982C1.90701 4.85982 2.45704 4.31587 2.45704 3.64487Z" fill="#42D405"/>
<path d="M2.45704 6.07163C2.45704 5.40064 1.90701 4.85669 1.22852 4.85669C0.550027 4.85669 0 5.40064 0 6.07163C0 6.74263 0.550027 7.28658 1.22852 7.28658C1.90701 7.28658 2.45704 6.74263 2.45704 6.07163Z" fill="#42D405"/>
<path d="M2.45704 8.50156C2.45704 7.83057 1.90701 7.28662 1.22852 7.28662C0.550027 7.28662 0 7.83057 0 8.50156C0 9.17256 0.550027 9.71651 1.22852 9.71651C1.90701 9.71651 2.45704 9.17256 2.45704 8.50156Z" fill="#42D405"/>
<path d="M2.45704 10.9284C2.45704 10.2574 1.90701 9.7135 1.22852 9.7135C0.550027 9.7135 0 10.2574 0 10.9284C0 11.5994 0.550027 12.1434 1.22852 12.1434C1.90701 12.1434 2.45704 11.5994 2.45704 10.9284Z" fill="#42D405"/>
<path d="M2.45704 27.9284C2.45704 27.2574 1.90701 26.7135 1.22852 26.7135C0.550027 26.7135 0 27.2574 0 27.9284C0 28.5994 0.550027 29.1434 1.22852 29.1434C1.90701 29.1434 2.45704 28.5994 2.45704 27.9284Z" fill="#42D405"/>
<path d="M2.45704 30.3552C2.45704 29.6842 1.90701 29.1403 1.22852 29.1403C0.550027 29.1403 0 29.6842 0 30.3552C0 31.0262 0.550027 31.5701 1.22852 31.5701C1.90701 31.5701 2.45704 31.0262 2.45704 30.3552Z" fill="#42D405"/>
<path d="M2.45704 25.4985C2.45704 24.8275 1.90701 24.2836 1.22852 24.2836C0.550027 24.2836 0 24.8275 0 25.4985C0 26.1695 0.550027 26.7135 1.22852 26.7135C1.90701 26.7135 2.45704 26.1695 2.45704 25.4985Z" fill="#42D405"/>
<path d="M2.45704 23.0716C2.45704 22.4006 1.90701 21.8567 1.22852 21.8567C0.550027 21.8567 0 22.4006 0 23.0716C0 23.7426 0.550027 24.2866 1.22852 24.2866C1.90701 24.2866 2.45704 23.7426 2.45704 23.0716Z" fill="#42D405"/>
<path d="M31.9229 7.28659V4.8567H29.4658V2.42989H27.0119V0H24.5549H22.1009H19.6439H17.19H14.7329H12.279H9.82195V2.42989V4.8567V7.28659V9.71341V12.1433V14.5701V17V19.4268V21.8567V24.2835V26.7134V29.1402V31.5701V34H12.279H14.7329H17.19H19.6439H22.1009H24.5549H27.0119V31.5701H29.4658V29.1402H31.9229V26.7134H34.3799V24.2835V21.8567V19.4268V17V14.5701V12.1433V9.71341V7.28659H31.9229Z" fill="#42D405"/>
<path d="M280.543 32.782C280.543 33.453 281.093 33.9969 281.772 33.9969C282.45 33.9969 283 33.453 283 32.782C283 32.111 282.45 31.5671 281.772 31.5671C281.093 31.5671 280.543 32.111 280.543 32.782Z" fill="#42D405"/>
<path d="M280.543 30.3552C280.543 31.0262 281.093 31.5702 281.772 31.5702C282.45 31.5702 283 31.0262 283 30.3552C283 29.6843 282.45 29.1403 281.772 29.1403C281.093 29.1403 280.543 29.6843 280.543 30.3552Z" fill="#42D405"/>
<path d="M280.543 27.9253C280.543 28.5963 281.093 29.1403 281.772 29.1403C282.45 29.1403 283 28.5963 283 27.9253C283 27.2543 282.45 26.7104 281.772 26.7104C281.093 26.7104 280.543 27.2543 280.543 27.9253Z" fill="#42D405"/>
<path d="M280.543 25.4986C280.543 26.1696 281.093 26.7135 281.772 26.7135C282.45 26.7135 283 26.1696 283 25.4986C283 24.8276 282.45 24.2836 281.772 24.2836C281.093 24.2836 280.543 24.8276 280.543 25.4986Z" fill="#42D405"/>
<path d="M280.543 23.0686C280.543 23.7396 281.093 24.2836 281.772 24.2836C282.45 24.2836 283 23.7396 283 23.0686C283 22.3976 282.45 21.8537 281.772 21.8537C281.093 21.8537 280.543 22.3976 280.543 23.0686Z" fill="#42D405"/>
<path d="M280.543 20.6417C280.543 21.3127 281.093 21.8567 281.772 21.8567C282.45 21.8567 283 21.3127 283 20.6417C283 19.9708 282.45 19.4268 281.772 19.4268C281.093 19.4268 280.543 19.9708 280.543 20.6417Z" fill="#42D405"/>
<path d="M280.543 18.2119C280.543 18.8829 281.093 19.4269 281.772 19.4269C282.45 19.4269 283 18.8829 283 18.2119C283 17.5409 282.45 16.997 281.772 16.997C281.093 16.997 280.543 17.5409 280.543 18.2119Z" fill="#42D405"/>
<path d="M280.543 15.7851C280.543 16.4561 281.093 17 281.772 17C282.45 17 283 16.4561 283 15.7851C283 15.1141 282.45 14.5701 281.772 14.5701C281.093 14.5701 280.543 15.1141 280.543 15.7851Z" fill="#42D405"/>
<path d="M280.543 13.3552C280.543 14.0262 281.093 14.5702 281.772 14.5702C282.45 14.5702 283 14.0262 283 13.3552C283 12.6843 282.45 12.1403 281.772 12.1403C281.093 12.1403 280.543 12.6843 280.543 13.3552Z" fill="#42D405"/>
<path d="M278.089 32.782C278.089 33.453 278.639 33.9969 279.318 33.9969C279.996 33.9969 280.546 33.453 280.546 32.782C280.546 32.111 279.996 31.5671 279.318 31.5671C278.639 31.5671 278.089 32.111 278.089 32.782Z" fill="#42D405"/>
<path d="M278.089 30.3552C278.089 31.0262 278.639 31.5702 279.318 31.5702C279.996 31.5702 280.546 31.0262 280.546 30.3552C280.546 29.6843 279.996 29.1403 279.318 29.1403C278.639 29.1403 278.089 29.6843 278.089 30.3552Z" fill="#42D405"/>
<path d="M278.089 27.9253C278.089 28.5963 278.639 29.1403 279.318 29.1403C279.996 29.1403 280.546 28.5963 280.546 27.9253C280.546 27.2543 279.996 26.7104 279.318 26.7104C278.639 26.7104 278.089 27.2543 278.089 27.9253Z" fill="#42D405"/>
<path d="M278.089 25.4986C278.089 26.1696 278.639 26.7135 279.318 26.7135C279.996 26.7135 280.546 26.1696 280.546 25.4986C280.546 24.8276 279.996 24.2836 279.318 24.2836C278.639 24.2836 278.089 24.8276 278.089 25.4986Z" fill="#42D405"/>
<path d="M278.089 23.0686C278.089 23.7396 278.639 24.2836 279.318 24.2836C279.996 24.2836 280.546 23.7396 280.546 23.0686C280.546 22.3976 279.996 21.8537 279.318 21.8537C278.639 21.8537 278.089 22.3976 278.089 23.0686Z" fill="#42D405"/>
<path d="M278.089 20.6417C278.089 21.3127 278.639 21.8567 279.318 21.8567C279.996 21.8567 280.546 21.3127 280.546 20.6417C280.546 19.9708 279.996 19.4268 279.318 19.4268C278.639 19.4268 278.089 19.9708 278.089 20.6417Z" fill="#42D405"/>
<path d="M278.089 18.2119C278.089 18.8829 278.639 19.4269 279.318 19.4269C279.996 19.4269 280.546 18.8829 280.546 18.2119C280.546 17.5409 279.996 16.997 279.318 16.997C278.639 16.997 278.089 17.5409 278.089 18.2119Z" fill="#42D405"/>
<path d="M278.089 15.7851C278.089 16.4561 278.639 17 279.318 17C279.996 17 280.546 16.4561 280.546 15.7851C280.546 15.1141 279.996 14.5701 279.318 14.5701C278.639 14.5701 278.089 15.1141 278.089 15.7851Z" fill="#42D405"/>
<path d="M278.089 13.3552C278.089 14.0262 278.639 14.5702 279.318 14.5702C279.996 14.5702 280.546 14.0262 280.546 13.3552C280.546 12.6843 279.996 12.1403 279.318 12.1403C278.639 12.1403 278.089 12.6843 278.089 13.3552Z" fill="#42D405"/>
<path d="M275.632 32.782C275.632 33.453 276.182 33.9969 276.861 33.9969C277.539 33.9969 278.089 33.453 278.089 32.782C278.089 32.111 277.539 31.5671 276.861 31.5671C276.182 31.5671 275.632 32.111 275.632 32.782Z" fill="#42D405"/>
<path d="M275.632 30.3552C275.632 31.0262 276.182 31.5702 276.861 31.5702C277.539 31.5702 278.089 31.0262 278.089 30.3552C278.089 29.6843 277.539 29.1403 276.861 29.1403C276.182 29.1403 275.632 29.6843 275.632 30.3552Z" fill="#42D405"/>
<path d="M275.632 27.9253C275.632 28.5963 276.182 29.1403 276.861 29.1403C277.539 29.1403 278.089 28.5963 278.089 27.9253C278.089 27.2543 277.539 26.7104 276.861 26.7104C276.182 26.7104 275.632 27.2543 275.632 27.9253Z" fill="#42D405"/>
<path d="M275.632 25.4986C275.632 26.1696 276.182 26.7135 276.861 26.7135C277.539 26.7135 278.089 26.1696 278.089 25.4986C278.089 24.8276 277.539 24.2836 276.861 24.2836C276.182 24.2836 275.632 24.8276 275.632 25.4986Z" fill="#42D405"/>
<path d="M275.632 23.0686C275.632 23.7396 276.182 24.2836 276.861 24.2836C277.539 24.2836 278.089 23.7396 278.089 23.0686C278.089 22.3976 277.539 21.8537 276.861 21.8537C276.182 21.8537 275.632 22.3976 275.632 23.0686Z" fill="#42D405"/>
<path d="M275.632 20.6417C275.632 21.3127 276.182 21.8567 276.861 21.8567C277.539 21.8567 278.089 21.3127 278.089 20.6417C278.089 19.9708 277.539 19.4268 276.861 19.4268C276.182 19.4268 275.632 19.9708 275.632 20.6417Z" fill="#42D405"/>
<path d="M275.632 18.2119C275.632 18.8829 276.182 19.4269 276.861 19.4269C277.539 19.4269 278.089 18.8829 278.089 18.2119C278.089 17.5409 277.539 16.997 276.861 16.997C276.182 16.997 275.632 17.5409 275.632 18.2119Z" fill="#42D405"/>
<path d="M275.632 15.7851C275.632 16.4561 276.182 17 276.861 17C277.539 17 278.089 16.4561 278.089 15.7851C278.089 15.1141 277.539 14.5701 276.861 14.5701C276.182 14.5701 275.632 15.1141 275.632 15.7851Z" fill="#42D405"/>
<path d="M275.632 13.3552C275.632 14.0262 276.182 14.5702 276.861 14.5702C277.539 14.5702 278.089 14.0262 278.089 13.3552C278.089 12.6843 277.539 12.1403 276.861 12.1403C276.182 12.1403 275.632 12.6843 275.632 13.3552Z" fill="#42D405"/>
<path d="M273.178 32.782C273.178 33.453 273.728 33.9969 274.407 33.9969C275.085 33.9969 275.635 33.453 275.635 32.782C275.635 32.111 275.085 31.5671 274.407 31.5671C273.728 31.5671 273.178 32.111 273.178 32.782Z" fill="#42D405"/>
<path d="M273.178 30.3552C273.178 31.0262 273.728 31.5702 274.407 31.5702C275.085 31.5702 275.635 31.0262 275.635 30.3552C275.635 29.6843 275.085 29.1403 274.407 29.1403C273.728 29.1403 273.178 29.6843 273.178 30.3552Z" fill="#42D405"/>
<path d="M273.178 27.9253C273.178 28.5963 273.728 29.1403 274.407 29.1403C275.085 29.1403 275.635 28.5963 275.635 27.9253C275.635 27.2543 275.085 26.7104 274.407 26.7104C273.728 26.7104 273.178 27.2543 273.178 27.9253Z" fill="#42D405"/>
<path d="M273.178 25.4986C273.178 26.1696 273.728 26.7135 274.407 26.7135C275.085 26.7135 275.635 26.1696 275.635 25.4986C275.635 24.8276 275.085 24.2836 274.407 24.2836C273.728 24.2836 273.178 24.8276 273.178 25.4986Z" fill="#42D405"/>
<path d="M273.178 23.0686C273.178 23.7396 273.728 24.2836 274.407 24.2836C275.085 24.2836 275.635 23.7396 275.635 23.0686C275.635 22.3976 275.085 21.8537 274.407 21.8537C273.728 21.8537 273.178 22.3976 273.178 23.0686Z" fill="#42D405"/>
<path d="M273.178 20.6417C273.178 21.3127 273.728 21.8567 274.407 21.8567C275.085 21.8567 275.635 21.3127 275.635 20.6417C275.635 19.9708 275.085 19.4268 274.407 19.4268C273.728 19.4268 273.178 19.9708 273.178 20.6417Z" fill="#42D405"/>
<path d="M273.178 18.2119C273.178 18.8829 273.728 19.4269 274.407 19.4269C275.085 19.4269 275.635 18.8829 275.635 18.2119C275.635 17.5409 275.085 16.997 274.407 16.997C273.728 16.997 273.178 17.5409 273.178 18.2119Z" fill="#42D405"/>
<path d="M273.178 15.7851C273.178 16.4561 273.728 17 274.407 17C275.085 17 275.635 16.4561 275.635 15.7851C275.635 15.1141 275.085 14.5701 274.407 14.5701C273.728 14.5701 273.178 15.1141 273.178 15.7851Z" fill="#42D405"/>
<path d="M273.178 13.3552C273.178 14.0262 273.728 14.5702 274.407 14.5702C275.085 14.5702 275.635 14.0262 275.635 13.3552C275.635 12.6843 275.085 12.1403 274.407 12.1403C273.728 12.1403 273.178 12.6843 273.178 13.3552Z" fill="#42D405"/>
<path d="M270.724 32.782C270.724 33.453 271.274 33.9969 271.953 33.9969C272.631 33.9969 273.181 33.453 273.181 32.782C273.181 32.111 272.631 31.5671 271.953 31.5671C271.274 31.5671 270.724 32.111 270.724 32.782Z" fill="#42D405"/>
<path d="M270.724 30.3552C270.724 31.0262 271.274 31.5702 271.953 31.5702C272.631 31.5702 273.181 31.0262 273.181 30.3552C273.181 29.6843 272.631 29.1403 271.953 29.1403C271.274 29.1403 270.724 29.6843 270.724 30.3552Z" fill="#42D405"/>
<path d="M270.724 27.9253C270.724 28.5963 271.274 29.1403 271.953 29.1403C272.631 29.1403 273.181 28.5963 273.181 27.9253C273.181 27.2543 272.631 26.7104 271.953 26.7104C271.274 26.7104 270.724 27.2543 270.724 27.9253Z" fill="#42D405"/>
<path d="M268.264 32.782C268.264 33.453 268.814 33.9969 269.493 33.9969C270.171 33.9969 270.721 33.453 270.721 32.782C270.721 32.111 270.171 31.5671 269.493 31.5671C268.814 31.5671 268.264 32.111 268.264 32.782Z" fill="#42D405"/>
<path d="M268.264 30.3552C268.264 31.0262 268.814 31.5702 269.493 31.5702C270.171 31.5702 270.721 31.0262 270.721 30.3552C270.721 29.6843 270.171 29.1403 269.493 29.1403C268.814 29.1403 268.264 29.6843 268.264 30.3552Z" fill="#42D405"/>
<path d="M268.264 27.9253C268.264 28.5963 268.814 29.1403 269.493 29.1403C270.171 29.1403 270.721 28.5963 270.721 27.9253C270.721 27.2543 270.171 26.7104 269.493 26.7104C268.814 26.7104 268.264 27.2543 268.264 27.9253Z" fill="#42D405"/>
<path d="M265.81 32.782C265.81 33.453 266.36 33.9969 267.039 33.9969C267.717 33.9969 268.267 33.453 268.267 32.782C268.267 32.111 267.717 31.5671 267.039 31.5671C266.36 31.5671 265.81 32.111 265.81 32.782Z" fill="#42D405"/>
<path d="M265.81 30.3552C265.81 31.0262 266.36 31.5702 267.039 31.5702C267.717 31.5702 268.267 31.0262 268.267 30.3552C268.267 29.6843 267.717 29.1403 267.039 29.1403C266.36 29.1403 265.81 29.6843 265.81 30.3552Z" fill="#42D405"/>
<path d="M265.81 27.9253C265.81 28.5963 266.36 29.1403 267.039 29.1403C267.717 29.1403 268.267 28.5963 268.267 27.9253C268.267 27.2543 267.717 26.7104 267.039 26.7104C266.36 26.7104 265.81 27.2543 265.81 27.9253Z" fill="#42D405"/>
<path d="M263.353 32.782C263.353 33.453 263.903 33.9969 264.582 33.9969C265.26 33.9969 265.81 33.453 265.81 32.782C265.81 32.111 265.26 31.5671 264.582 31.5671C263.903 31.5671 263.353 32.111 263.353 32.782Z" fill="#42D405"/>
<path d="M263.353 30.3552C263.353 31.0262 263.903 31.5702 264.582 31.5702C265.26 31.5702 265.81 31.0262 265.81 30.3552C265.81 29.6843 265.26 29.1403 264.582 29.1403C263.903 29.1403 263.353 29.6843 263.353 30.3552Z" fill="#42D405"/>
<path d="M263.353 27.9253C263.353 28.5963 263.903 29.1403 264.582 29.1403C265.26 29.1403 265.81 28.5963 265.81 27.9253C265.81 27.2543 265.26 26.7104 264.582 26.7104C263.903 26.7104 263.353 27.2543 263.353 27.9253Z" fill="#42D405"/>
<path d="M268.264 25.4986C268.264 26.1696 268.814 26.7135 269.493 26.7135C270.171 26.7135 270.721 26.1696 270.721 25.4986C270.721 24.8276 270.171 24.2836 269.493 24.2836C268.814 24.2836 268.264 24.8276 268.264 25.4986Z" fill="#42D405"/>
<path d="M265.81 25.4986C265.81 26.1696 266.36 26.7135 267.039 26.7135C267.717 26.7135 268.267 26.1696 268.267 25.4986C268.267 24.8276 267.717 24.2836 267.039 24.2836C266.36 24.2836 265.81 24.8276 265.81 25.4986Z" fill="#42D405"/>
<path d="M263.353 25.4986C263.353 26.1696 263.903 26.7135 264.582 26.7135C265.26 26.7135 265.81 26.1696 265.81 25.4986C265.81 24.8276 265.26 24.2836 264.582 24.2836C263.903 24.2836 263.353 24.8276 263.353 25.4986Z" fill="#42D405"/>
<path d="M270.724 25.4986C270.724 26.1696 271.274 26.7135 271.953 26.7135C272.631 26.7135 273.181 26.1696 273.181 25.4986C273.181 24.8276 272.631 24.2836 271.953 24.2836C271.274 24.2836 270.724 24.8276 270.724 25.4986Z" fill="#42D405"/>
<path d="M270.724 23.0686C270.724 23.7396 271.274 24.2836 271.953 24.2836C272.631 24.2836 273.181 23.7396 273.181 23.0686C273.181 22.3976 272.631 21.8537 271.953 21.8537C271.274 21.8537 270.724 22.3976 270.724 23.0686Z" fill="#42D405"/>
<path d="M268.264 23.0686C268.264 23.7396 268.814 24.2836 269.493 24.2836C270.171 24.2836 270.721 23.7396 270.721 23.0686C270.721 22.3976 270.171 21.8537 269.493 21.8537C268.814 21.8537 268.264 22.3976 268.264 23.0686Z" fill="#42D405"/>
<path d="M270.724 20.6417C270.724 21.3127 271.274 21.8567 271.953 21.8567C272.631 21.8567 273.181 21.3127 273.181 20.6417C273.181 19.9708 272.631 19.4268 271.953 19.4268C271.274 19.4268 270.724 19.9708 270.724 20.6417Z" fill="#42D405"/>
<path d="M270.724 18.2119C270.724 18.8829 271.274 19.4269 271.953 19.4269C272.631 19.4269 273.181 18.8829 273.181 18.2119C273.181 17.5409 272.631 16.997 271.953 16.997C271.274 16.997 270.724 17.5409 270.724 18.2119Z" fill="#42D405"/>
<path d="M270.724 15.7851C270.724 16.4561 271.274 17 271.953 17C272.631 17 273.181 16.4561 273.181 15.7851C273.181 15.1141 272.631 14.5701 271.953 14.5701C271.274 14.5701 270.724 15.1141 270.724 15.7851Z" fill="#42D405"/>
<path d="M270.724 13.3552C270.724 14.0262 271.274 14.5702 271.953 14.5702C272.631 14.5702 273.181 14.0262 273.181 13.3552C273.181 12.6843 272.631 12.1403 271.953 12.1403C271.274 12.1403 270.724 12.6843 270.724 13.3552Z" fill="#42D405"/>
<path d="M268.264 18.2119C268.264 18.8829 268.814 19.4269 269.493 19.4269C270.171 19.4269 270.721 18.8829 270.721 18.2119C270.721 17.5409 270.171 16.997 269.493 16.997C268.814 16.997 268.264 17.5409 268.264 18.2119Z" fill="#42D405"/>
<path d="M268.264 15.7851C268.264 16.4561 268.814 17 269.493 17C270.171 17 270.721 16.4561 270.721 15.7851C270.721 15.1141 270.171 14.5701 269.493 14.5701C268.814 14.5701 268.264 15.1141 268.264 15.7851Z" fill="#42D405"/>
<path d="M268.264 13.3552C268.264 14.0262 268.814 14.5702 269.493 14.5702C270.171 14.5702 270.721 14.0262 270.721 13.3552C270.721 12.6843 270.171 12.1403 269.493 12.1403C268.814 12.1403 268.264 12.6843 268.264 13.3552Z" fill="#42D405"/>
<path d="M265.81 18.2119C265.81 18.8829 266.36 19.4269 267.039 19.4269C267.717 19.4269 268.267 18.8829 268.267 18.2119C268.267 17.5409 267.717 16.997 267.039 16.997C266.36 16.997 265.81 17.5409 265.81 18.2119Z" fill="#42D405"/>
<path d="M268.264 20.6417C268.264 21.3127 268.814 21.8567 269.493 21.8567C270.171 21.8567 270.721 21.3127 270.721 20.6417C270.721 19.9708 270.171 19.4268 269.493 19.4268C268.814 19.4268 268.264 19.9708 268.264 20.6417Z" fill="#42D405"/>
<path d="M265.81 20.6417C265.81 21.3127 266.36 21.8567 267.039 21.8567C267.717 21.8567 268.267 21.3127 268.267 20.6417C268.267 19.9708 267.717 19.4268 267.039 19.4268C266.36 19.4268 265.81 19.9708 265.81 20.6417Z" fill="#42D405"/>
<path d="M265.81 15.7851C265.81 16.4561 266.36 17 267.039 17C267.717 17 268.267 16.4561 268.267 15.7851C268.267 15.1141 267.717 14.5701 267.039 14.5701C266.36 14.5701 265.81 15.1141 265.81 15.7851Z" fill="#42D405"/>
<path d="M265.81 13.3552C265.81 14.0262 266.36 14.5702 267.039 14.5702C267.717 14.5702 268.267 14.0262 268.267 13.3552C268.267 12.6843 267.717 12.1403 267.039 12.1403C266.36 12.1403 265.81 12.6843 265.81 13.3552Z" fill="#42D405"/>
<path d="M280.254 0H277.509H274.76H272.015H269.269H266.524H263.775H263.356H261.029H260.899H258.445H255.988H253.534V2.42989H251.077V4.8567H248.623V7.28659H246.166V9.71341V12.1433V14.5701V17V19.4268V21.8567V24.2835V26.7134H248.623V29.1402H251.077V31.5701H253.534V34H255.988H258.445H260.899H263.356V31.5701V29.1402V26.7134V24.2835V21.8567V19.4268V17V14.5701V12.1433V9.71341H263.775H266.524H269.269H272.015H274.76H277.509H280.254H283V7.28659V4.8567V2.42989V0H280.254Z" fill="#42D405"/>
</g>
<defs>
<clipPath id="clip0_338_7809">
<rect width="283" height="34" fill="white"/>
</clipPath>
</defs>
</svg>
