<svg width="25" height="25" viewBox="0 0 25 25" fill="none" xmlns="http://www.w3.org/2000/svg">
<path d="M7.68433 3.2595C7.68433 2.79464 7.29646 2.4178 6.818 2.4178C6.33953 2.4178 5.95166 2.79464 5.95166 3.2595C5.95166 3.72436 6.33953 4.1012 6.818 4.1012C7.29646 4.1012 7.68433 3.72436 7.68433 3.2595Z" fill="white"/>
<path d="M7.68433 4.94078C7.68433 4.47592 7.29646 4.09908 6.818 4.09908C6.33953 4.09908 5.95166 4.47592 5.95166 4.94078C5.95166 5.40563 6.33953 5.78248 6.818 5.78248C7.29646 5.78248 7.68433 5.40563 7.68433 4.94078Z" fill="white"/>
<path d="M7.68433 6.6242C7.68433 6.15934 7.29646 5.7825 6.818 5.7825C6.33953 5.7825 5.95166 6.15934 5.95166 6.6242C5.95166 7.08906 6.33953 7.4659 6.818 7.4659C7.29646 7.4659 7.68433 7.08906 7.68433 6.6242Z" fill="white"/>
<path d="M7.68433 8.30545C7.68433 7.84059 7.29646 7.46375 6.818 7.46375C6.33953 7.46375 5.95166 7.84059 5.95166 8.30545C5.95166 8.7703 6.33953 9.14715 6.818 9.14715C7.29646 9.14715 7.68433 8.7703 7.68433 8.30545Z" fill="white"/>
<path d="M5.95191 3.2595C5.95191 2.79464 5.56404 2.4178 5.08557 2.4178C4.60711 2.4178 4.21924 2.79464 4.21924 3.2595C4.21924 3.72436 4.60711 4.1012 5.08557 4.1012C5.56404 4.1012 5.95191 3.72436 5.95191 3.2595Z" fill="white"/>
<path d="M5.95191 4.94078C5.95191 4.47592 5.56404 4.09908 5.08557 4.09908C4.60711 4.09908 4.21924 4.47592 4.21924 4.94078C4.21924 5.40563 4.60711 5.78248 5.08557 5.78248C5.56404 5.78248 5.95191 5.40563 5.95191 4.94078Z" fill="white"/>
<path d="M5.95191 6.6242C5.95191 6.15934 5.56404 5.7825 5.08557 5.7825C4.60711 5.7825 4.21924 6.15934 4.21924 6.6242C4.21924 7.08906 4.60711 7.4659 5.08557 7.4659C5.56404 7.4659 5.95191 7.08906 5.95191 6.6242Z" fill="white"/>
<path d="M5.95191 8.30545C5.95191 7.84059 5.56404 7.46375 5.08557 7.46375C4.60711 7.46375 4.21924 7.84059 4.21924 8.30545C4.21924 8.7703 4.60711 9.14715 5.08557 9.14715C5.56404 9.14715 5.95191 8.7703 5.95191 8.30545Z" fill="white"/>
<path d="M7.68433 20.0829C7.68433 19.618 7.29646 19.2412 6.818 19.2412C6.33953 19.2412 5.95166 19.618 5.95166 20.0829C5.95166 20.5477 6.33953 20.9246 6.818 20.9246C7.29646 20.9246 7.68433 20.5477 7.68433 20.0829Z" fill="white"/>
<path d="M7.68433 21.7642C7.68433 21.2994 7.29646 20.9225 6.818 20.9225C6.33953 20.9225 5.95166 21.2994 5.95166 21.7642C5.95166 22.2291 6.33953 22.6059 6.818 22.6059C7.29646 22.6059 7.68433 22.2291 7.68433 21.7642Z" fill="white"/>
<path d="M7.68433 18.3995C7.68433 17.9347 7.29646 17.5578 6.818 17.5578C6.33953 17.5578 5.95166 17.9347 5.95166 18.3995C5.95166 18.8644 6.33953 19.2412 6.818 19.2412C7.29646 19.2412 7.68433 18.8644 7.68433 18.3995Z" fill="white"/>
<path d="M7.68433 16.7182C7.68433 16.2534 7.29646 15.8765 6.818 15.8765C6.33953 15.8765 5.95166 16.2534 5.95166 16.7182C5.95166 17.1831 6.33953 17.5599 6.818 17.5599C7.29646 17.5599 7.68433 17.1831 7.68433 16.7182Z" fill="white"/>
<path d="M5.95191 20.0829C5.95191 19.618 5.56404 19.2412 5.08557 19.2412C4.60711 19.2412 4.21924 19.618 4.21924 20.0829C4.21924 20.5477 4.60711 20.9246 5.08557 20.9246C5.56404 20.9246 5.95191 20.5477 5.95191 20.0829Z" fill="white"/>
<path d="M5.95191 21.7642C5.95191 21.2994 5.56404 20.9225 5.08557 20.9225C4.60711 20.9225 4.21924 21.2994 4.21924 21.7642C4.21924 22.2291 4.60711 22.6059 5.08557 22.6059C5.56404 22.6059 5.95191 22.2291 5.95191 21.7642Z" fill="white"/>
<path d="M5.95191 18.3995C5.95191 17.9347 5.56404 17.5578 5.08557 17.5578C4.60711 17.5578 4.21924 17.9347 4.21924 18.3995C4.21924 18.8644 4.60711 19.2412 5.08557 19.2412C5.56404 19.2412 5.95191 18.8644 5.95191 18.3995Z" fill="white"/>
<path d="M5.95191 16.7182C5.95191 16.2534 5.56404 15.8765 5.08557 15.8765C4.60711 15.8765 4.21924 16.2534 4.21924 16.7182C4.21924 17.1831 4.60711 17.5599 5.08557 17.5599C5.56404 17.5599 5.95191 17.1831 5.95191 16.7182Z" fill="white"/>
<path d="M4.22144 3.2595C4.22144 2.79464 3.83357 2.4178 3.35511 2.4178C2.87664 2.4178 2.48877 2.79464 2.48877 3.2595C2.48877 3.72436 2.87664 4.1012 3.35511 4.1012C3.83357 4.1012 4.22144 3.72436 4.22144 3.2595Z" fill="white"/>
<path d="M4.22144 4.94078C4.22144 4.47592 3.83357 4.09908 3.35511 4.09908C2.87664 4.09908 2.48877 4.47592 2.48877 4.94078C2.48877 5.40563 2.87664 5.78248 3.35511 5.78248C3.83357 5.78248 4.22144 5.40563 4.22144 4.94078Z" fill="white"/>
<path d="M4.22144 6.6242C4.22144 6.15934 3.83357 5.7825 3.35511 5.7825C2.87664 5.7825 2.48877 6.15934 2.48877 6.6242C2.48877 7.08906 2.87664 7.4659 3.35511 7.4659C3.83357 7.4659 4.22144 7.08906 4.22144 6.6242Z" fill="white"/>
<path d="M4.22144 8.30545C4.22144 7.84059 3.83357 7.46375 3.35511 7.46375C2.87664 7.46375 2.48877 7.84059 2.48877 8.30545C2.48877 8.7703 2.87664 9.14715 3.35511 9.14715C3.83357 9.14715 4.22144 8.7703 4.22144 8.30545Z" fill="white"/>
<path d="M4.22144 20.0829C4.22144 19.618 3.83357 19.2412 3.35511 19.2412C2.87664 19.2412 2.48877 19.618 2.48877 20.0829C2.48877 20.5477 2.87664 20.9246 3.35511 20.9246C3.83357 20.9246 4.22144 20.5477 4.22144 20.0829Z" fill="white"/>
<path d="M4.22144 21.7642C4.22144 21.2994 3.83357 20.9225 3.35511 20.9225C2.87664 20.9225 2.48877 21.2994 2.48877 21.7642C2.48877 22.2291 2.87664 22.6059 3.35511 22.6059C3.83357 22.6059 4.22144 22.2291 4.22144 21.7642Z" fill="white"/>
<path d="M4.22144 18.3995C4.22144 17.9347 3.83357 17.5578 3.35511 17.5578C2.87664 17.5578 2.48877 17.9347 2.48877 18.3995C2.48877 18.8644 2.87664 19.2412 3.35511 19.2412C3.83357 19.2412 4.22144 18.8644 4.22144 18.3995Z" fill="white"/>
<path d="M4.22144 16.7182C4.22144 16.2534 3.83357 15.8765 3.35511 15.8765C2.87664 15.8765 2.48877 16.2534 2.48877 16.7182C2.48877 17.1831 2.87664 17.5599 3.35511 17.5599C3.83357 17.5599 4.22144 17.1831 4.22144 16.7182Z" fill="white"/>
<path d="M2.48853 3.25949C2.48853 2.79463 2.10066 2.41779 1.6222 2.41779C1.14373 2.41779 0.755859 2.79463 0.755859 3.25949C0.755859 3.72434 1.14373 4.10119 1.6222 4.10119C2.10066 4.10119 2.48853 3.72434 2.48853 3.25949Z" fill="white"/>
<path d="M2.48853 4.94078C2.48853 4.47592 2.10066 4.09908 1.6222 4.09908C1.14373 4.09908 0.755859 4.47592 0.755859 4.94078C0.755859 5.40563 1.14373 5.78248 1.6222 5.78248C2.10066 5.78248 2.48853 5.40563 2.48853 4.94078Z" fill="white"/>
<path d="M2.48853 6.6242C2.48853 6.15934 2.10066 5.7825 1.6222 5.7825C1.14373 5.7825 0.755859 6.15934 0.755859 6.6242C0.755859 7.08906 1.14373 7.4659 1.6222 7.4659C2.10066 7.4659 2.48853 7.08906 2.48853 6.6242Z" fill="white"/>
<path d="M2.48853 8.30545C2.48853 7.84059 2.10066 7.46375 1.6222 7.46375C1.14373 7.46375 0.755859 7.84059 0.755859 8.30545C0.755859 8.7703 1.14373 9.14715 1.6222 9.14715C2.10066 9.14715 2.48853 8.7703 2.48853 8.30545Z" fill="white"/>
<path d="M2.48853 20.0829C2.48853 19.618 2.10066 19.2412 1.6222 19.2412C1.14373 19.2412 0.755859 19.618 0.755859 20.0829C0.755859 20.5477 1.14373 20.9246 1.6222 20.9246C2.10066 20.9246 2.48853 20.5477 2.48853 20.0829Z" fill="white"/>
<path d="M2.48853 21.7642C2.48853 21.2994 2.10066 20.9225 1.6222 20.9225C1.14373 20.9225 0.755859 21.2994 0.755859 21.7642C0.755859 22.2291 1.14373 22.6059 1.6222 22.6059C2.10066 22.6059 2.48853 22.2291 2.48853 21.7642Z" fill="white"/>
<path d="M2.48853 18.3995C2.48853 17.9347 2.10066 17.5578 1.6222 17.5578C1.14373 17.5578 0.755859 17.9347 0.755859 18.3995C0.755859 18.8644 1.14373 19.2412 1.6222 19.2412C2.10066 19.2412 2.48853 18.8644 2.48853 18.3995Z" fill="white"/>
<path d="M2.48853 16.7182C2.48853 16.2534 2.10066 15.8765 1.6222 15.8765C1.14373 15.8765 0.755859 16.2534 0.755859 16.7182C0.755859 17.1831 1.14373 17.5599 1.6222 17.5599C2.10066 17.5599 2.48853 17.1831 2.48853 16.7182Z" fill="white"/>
<path d="M23.2674 5.78247V4.09907H21.5348V2.41779L19.8043 2.41779V0.73439L18.0716 0.73439L16.3411 0.73439L14.6084 0.73439L12.878 0.73439L11.1453 0.73439L9.4148 0.73439L7.68213 0.73439V2.41779L7.68213 4.09907V5.78247V7.46374L7.68213 9.14715V10.8284V12.5118L7.68213 14.1931V15.8765V17.5578L7.68213 19.2412V20.9225V22.6059V24.2893H9.4148H11.1453H12.878H14.6084H16.3411H18.0716L19.8043 24.2893V22.6059H21.5348V20.9225H23.2674V19.2412H25.0001V17.5578V15.8765V14.1931V12.5118L25.0001 10.8284V9.14715V7.46374V5.78247H23.2674Z" fill="white"/>
</svg>
