<svg width="36" height="36" viewBox="0 0 36 36" fill="none" xmlns="http://www.w3.org/2000/svg">
    <circle cx="18" cy="18" r="18" fill="#42D405"/>
    <path d="M14.1771 12.2824C14.1771 11.9814 13.9122 11.7374 13.5855 11.7374C13.2589 11.7374 12.994 11.9814 12.994 12.2824C12.994 12.5833 13.2589 12.8273 13.5855 12.8273C13.9122 12.8273 14.1771 12.5833 14.1771 12.2824Z" fill="black"/>
    <path d="M14.1771 13.3707C14.1771 13.0698 13.9122 12.8258 13.5855 12.8258C13.2589 12.8258 12.994 13.0698 12.994 13.3707C12.994 13.6717 13.2589 13.9157 13.5855 13.9157C13.9122 13.9157 14.1771 13.6717 14.1771 13.3707Z" fill="black"/>
    <path d="M14.1771 14.4606C14.1771 14.1596 13.9122 13.9156 13.5855 13.9156C13.2589 13.9156 12.994 14.1596 12.994 14.4606C12.994 14.7615 13.2589 15.0055 13.5855 15.0055C13.9122 15.0055 14.1771 14.7615 14.1771 14.4606Z" fill="black"/>
    <path d="M14.1771 15.5492C14.1771 15.2482 13.9122 15.0043 13.5855 15.0043C13.2589 15.0043 12.994 15.2482 12.994 15.5492C12.994 15.8502 13.2589 16.0941 13.5855 16.0941C13.9122 16.0941 14.1771 15.8502 14.1771 15.5492Z" fill="black"/>
    <path d="M12.994 12.2824C12.994 11.9814 12.7292 11.7374 12.4025 11.7374C12.0758 11.7374 11.811 11.9814 11.811 12.2824C11.811 12.5833 12.0758 12.8273 12.4025 12.8273C12.7292 12.8273 12.994 12.5833 12.994 12.2824Z" fill="black"/>
    <path d="M12.994 13.3707C12.994 13.0698 12.7292 12.8258 12.4025 12.8258C12.0758 12.8258 11.811 13.0698 11.811 13.3707C11.811 13.6717 12.0758 13.9157 12.4025 13.9157C12.7292 13.9157 12.994 13.6717 12.994 13.3707Z" fill="black"/>
    <path d="M12.994 14.4606C12.994 14.1596 12.7292 13.9156 12.4025 13.9156C12.0758 13.9156 11.811 14.1596 11.811 14.4606C11.811 14.7615 12.0758 15.0055 12.4025 15.0055C12.7292 15.0055 12.994 14.7615 12.994 14.4606Z" fill="black"/>
    <path d="M12.994 15.5492C12.994 15.2482 12.7292 15.0043 12.4025 15.0043C12.0758 15.0043 11.811 15.2482 11.811 15.5492C11.811 15.8502 12.0758 16.0941 12.4025 16.0941C12.7292 16.0941 12.994 15.8502 12.994 15.5492Z" fill="black"/>
    <path d="M14.1771 23.1741C14.1771 22.8731 13.9122 22.6292 13.5855 22.6292C13.2589 22.6292 12.994 22.8731 12.994 23.1741C12.994 23.475 13.2589 23.719 13.5855 23.719C13.9122 23.719 14.1771 23.475 14.1771 23.1741Z" fill="black"/>
    <path d="M14.1771 24.2626C14.1771 23.9616 13.9122 23.7177 13.5855 23.7177C13.2589 23.7177 12.994 23.9616 12.994 24.2626C12.994 24.5636 13.2589 24.8075 13.5855 24.8075C13.9122 24.8075 14.1771 24.5636 14.1771 24.2626Z" fill="black"/>
    <path d="M14.1771 22.0842C14.1771 21.7833 13.9122 21.5393 13.5855 21.5393C13.2589 21.5393 12.994 21.7833 12.994 22.0842C12.994 22.3852 13.2589 22.6292 13.5855 22.6292C13.9122 22.6292 14.1771 22.3852 14.1771 22.0842Z" fill="black"/>
    <path d="M14.1771 20.9956C14.1771 20.6947 13.9122 20.4507 13.5855 20.4507C13.2589 20.4507 12.994 20.6947 12.994 20.9956C12.994 21.2966 13.2589 21.5406 13.5855 21.5406C13.9122 21.5406 14.1771 21.2966 14.1771 20.9956Z" fill="black"/>
    <path d="M12.994 23.1741C12.994 22.8731 12.7292 22.6292 12.4025 22.6292C12.0758 22.6292 11.811 22.8731 11.811 23.1741C11.811 23.475 12.0758 23.719 12.4025 23.719C12.7292 23.719 12.994 23.475 12.994 23.1741Z" fill="black"/>
    <path d="M12.994 24.2626C12.994 23.9616 12.7292 23.7177 12.4025 23.7177C12.0758 23.7177 11.811 23.9616 11.811 24.2626C11.811 24.5636 12.0758 24.8075 12.4025 24.8075C12.7292 24.8075 12.994 24.5636 12.994 24.2626Z" fill="black"/>
    <path d="M12.994 22.0842C12.994 21.7833 12.7292 21.5393 12.4025 21.5393C12.0758 21.5393 11.811 21.7833 11.811 22.0842C11.811 22.3852 12.0758 22.6292 12.4025 22.6292C12.7292 22.6292 12.994 22.3852 12.994 22.0842Z" fill="black"/>
    <path d="M12.994 20.9956C12.994 20.6947 12.7292 20.4507 12.4025 20.4507C12.0758 20.4507 11.811 20.6947 11.811 20.9956C11.811 21.2966 12.0758 21.5406 12.4025 21.5406C12.7292 21.5406 12.994 21.2966 12.994 20.9956Z" fill="black"/>
    <path d="M11.8125 12.2824C11.8125 11.9814 11.5477 11.7374 11.221 11.7374C10.8943 11.7374 10.6294 11.9814 10.6294 12.2824C10.6294 12.5833 10.8943 12.8273 11.221 12.8273C11.5477 12.8273 11.8125 12.5833 11.8125 12.2824Z" fill="black"/>
    <path d="M11.8125 13.3707C11.8125 13.0698 11.5477 12.8258 11.221 12.8258C10.8943 12.8258 10.6294 13.0698 10.6294 13.3707C10.6294 13.6717 10.8943 13.9157 11.221 13.9157C11.5477 13.9157 11.8125 13.6717 11.8125 13.3707Z" fill="black"/>
    <path d="M11.8125 14.4606C11.8125 14.1596 11.5477 13.9156 11.221 13.9156C10.8943 13.9156 10.6294 14.1596 10.6294 14.4606C10.6294 14.7615 10.8943 15.0055 11.221 15.0055C11.5477 15.0055 11.8125 14.7615 11.8125 14.4606Z" fill="black"/>
    <path d="M11.8125 15.5492C11.8125 15.2482 11.5477 15.0043 11.221 15.0043C10.8943 15.0043 10.6294 15.2482 10.6294 15.5492C10.6294 15.8502 10.8943 16.0941 11.221 16.0941C11.5477 16.0941 11.8125 15.8502 11.8125 15.5492Z" fill="black"/>
    <path d="M11.8125 23.1741C11.8125 22.8731 11.5477 22.6292 11.221 22.6292C10.8943 22.6292 10.6294 22.8731 10.6294 23.1741C10.6294 23.475 10.8943 23.719 11.221 23.719C11.5477 23.719 11.8125 23.475 11.8125 23.1741Z" fill="black"/>
    <path d="M11.8125 24.2626C11.8125 23.9616 11.5477 23.7177 11.221 23.7177C10.8943 23.7177 10.6294 23.9616 10.6294 24.2626C10.6294 24.5636 10.8943 24.8075 11.221 24.8075C11.5477 24.8075 11.8125 24.5636 11.8125 24.2626Z" fill="black"/>
    <path d="M11.8125 22.0842C11.8125 21.7833 11.5477 21.5393 11.221 21.5393C10.8943 21.5393 10.6294 21.7833 10.6294 22.0842C10.6294 22.3852 10.8943 22.6292 11.221 22.6292C11.5477 22.6292 11.8125 22.3852 11.8125 22.0842Z" fill="black"/>
    <path d="M11.8125 20.9956C11.8125 20.6947 11.5477 20.4507 11.221 20.4507C10.8943 20.4507 10.6294 20.6947 10.6294 20.9956C10.6294 21.2966 10.8943 21.5406 11.221 21.5406C11.5477 21.5406 11.8125 21.2966 11.8125 20.9956Z" fill="black"/>
    <path d="M10.6294 12.2824C10.6294 11.9814 10.3646 11.7374 10.0379 11.7374C9.71122 11.7374 9.44639 11.9814 9.44639 12.2824C9.44639 12.5833 9.71122 12.8273 10.0379 12.8273C10.3646 12.8273 10.6294 12.5833 10.6294 12.2824Z" fill="black"/>
    <path d="M10.6294 13.3707C10.6294 13.0698 10.3646 12.8258 10.0379 12.8258C9.71121 12.8258 9.44638 13.0698 9.44638 13.3707C9.44638 13.6717 9.71121 13.9157 10.0379 13.9157C10.3646 13.9157 10.6294 13.6717 10.6294 13.3707Z" fill="black"/>
    <path d="M10.6294 14.4606C10.6294 14.1596 10.3646 13.9156 10.0379 13.9156C9.71121 13.9156 9.44638 14.1596 9.44638 14.4606C9.44638 14.7615 9.71121 15.0055 10.0379 15.0055C10.3646 15.0055 10.6294 14.7615 10.6294 14.4606Z" fill="black"/>
    <path d="M10.6294 15.5492C10.6294 15.2482 10.3646 15.0043 10.0379 15.0043C9.71121 15.0043 9.44638 15.2482 9.44638 15.5492C9.44638 15.8502 9.71121 16.0941 10.0379 16.0941C10.3646 16.0941 10.6294 15.8502 10.6294 15.5492Z" fill="black"/>
    <path d="M10.6294 23.1741C10.6294 22.8731 10.3646 22.6292 10.0379 22.6292C9.71121 22.6292 9.44638 22.8731 9.44638 23.1741C9.44638 23.475 9.71121 23.719 10.0379 23.719C10.3646 23.719 10.6294 23.475 10.6294 23.1741Z" fill="black"/>
    <path d="M10.6294 24.2626C10.6294 23.9616 10.3646 23.7177 10.0379 23.7177C9.71121 23.7177 9.44638 23.9616 9.44638 24.2626C9.44638 24.5636 9.71121 24.8075 10.0379 24.8075C10.3646 24.8075 10.6294 24.5636 10.6294 24.2626Z" fill="black"/>
    <path d="M10.6294 22.0842C10.6294 21.7833 10.3646 21.5393 10.0379 21.5393C9.71121 21.5393 9.44638 21.7833 9.44638 22.0842C9.44638 22.3852 9.71121 22.6292 10.0379 22.6292C10.3646 22.6292 10.6294 22.3852 10.6294 22.0842Z" fill="black"/>
    <path d="M10.6294 20.9956C10.6294 20.6947 10.3646 20.4507 10.0379 20.4507C9.71121 20.4507 9.44638 20.6947 9.44638 20.9956C9.44638 21.2966 9.71121 21.5406 10.0379 21.5406C10.3646 21.5406 10.6294 21.2966 10.6294 20.9956Z" fill="black"/>
    <path d="M24.817 13.9157V12.8258H23.6339V11.7373H22.4524V10.6475H21.2693H20.0878H18.9047H17.7232H16.5402H15.3586H14.1756V11.7373V12.8258V13.9157V15.0042V16.0941V17.1826V18.2725V19.361V20.4508V21.5393V22.6292V23.7177V24.8076V25.8975H15.3586H16.5402H17.7232H18.9047H20.0878H21.2693H22.4524V24.8076H23.6339V23.7177H24.817V22.6292H26V21.5393V20.4508V19.361V18.2725V17.1826V16.0941V15.0042V13.9157H24.817Z" fill="black"/>
</svg>
