<svg width="291" height="594" viewBox="0 0 291 594" fill="none" xmlns="http://www.w3.org/2000/svg">
<g clip-path="url(#clip0_1086_301)">
<path d="M112.098 393.215C112.098 392.544 111.548 392 110.87 392C110.191 392 109.641 392.544 109.641 393.215C109.641 393.886 110.191 394.43 110.87 394.43C111.548 394.43 112.098 393.886 112.098 393.215Z" fill="#42D405"/>
<path d="M112.098 395.645C112.098 394.974 111.548 394.43 110.87 394.43C110.191 394.43 109.641 394.974 109.641 395.645C109.641 396.316 110.191 396.86 110.87 396.86C111.548 396.86 112.098 396.316 112.098 395.645Z" fill="#42D405"/>
<path d="M112.098 398.072C112.098 397.401 111.548 396.857 110.87 396.857C110.191 396.857 109.641 397.401 109.641 398.072C109.641 398.743 110.191 399.287 110.87 399.287C111.548 399.287 112.098 398.743 112.098 398.072Z" fill="#42D405"/>
<path d="M114.552 393.215C114.552 392.544 114.002 392 113.324 392C112.645 392 112.095 392.544 112.095 393.215C112.095 393.886 112.645 394.43 113.324 394.43C114.002 394.43 114.552 393.886 114.552 393.215Z" fill="#42D405"/>
<path d="M114.552 395.645C114.552 394.974 114.002 394.43 113.324 394.43C112.645 394.43 112.095 394.974 112.095 395.645C112.095 396.316 112.645 396.86 113.324 396.86C114.002 396.86 114.552 396.316 114.552 395.645Z" fill="#42D405"/>
<path d="M114.552 398.072C114.552 397.401 114.002 396.857 113.324 396.857C112.645 396.857 112.095 397.401 112.095 398.072C112.095 398.743 112.645 399.287 113.324 399.287C114.002 399.287 114.552 398.743 114.552 398.072Z" fill="#42D405"/>
<path d="M117.009 393.215C117.009 392.544 116.459 392 115.781 392C115.102 392 114.552 392.544 114.552 393.215C114.552 393.886 115.102 394.43 115.781 394.43C116.459 394.43 117.009 393.886 117.009 393.215Z" fill="#42D405"/>
<path d="M117.009 395.645C117.009 394.974 116.459 394.43 115.781 394.43C115.102 394.43 114.552 394.974 114.552 395.645C114.552 396.316 115.102 396.86 115.781 396.86C116.459 396.86 117.009 396.316 117.009 395.645Z" fill="#42D405"/>
<path d="M117.009 398.072C117.009 397.401 116.459 396.857 115.781 396.857C115.102 396.857 114.552 397.401 114.552 398.072C114.552 398.743 115.102 399.287 115.781 399.287C116.459 399.287 117.009 398.743 117.009 398.072Z" fill="#42D405"/>
<path d="M119.466 393.215C119.466 392.544 118.916 392 118.238 392C117.559 392 117.009 392.544 117.009 393.215C117.009 393.886 117.559 394.43 118.238 394.43C118.916 394.43 119.466 393.886 119.466 393.215Z" fill="#42D405"/>
<path d="M119.466 395.645C119.466 394.974 118.916 394.43 118.238 394.43C117.559 394.43 117.009 394.974 117.009 395.645C117.009 396.316 117.559 396.86 118.238 396.86C118.916 396.86 119.466 396.316 119.466 395.645Z" fill="#42D405"/>
<path d="M119.466 398.072C119.466 397.401 118.916 396.857 118.238 396.857C117.559 396.857 117.009 397.401 117.009 398.072C117.009 398.743 117.559 399.287 118.238 399.287C118.916 399.287 119.466 398.743 119.466 398.072Z" fill="#42D405"/>
<path d="M121.92 393.215C121.92 392.544 121.37 392 120.692 392C120.013 392 119.463 392.544 119.463 393.215C119.463 393.886 120.013 394.43 120.692 394.43C121.37 394.43 121.92 393.886 121.92 393.215Z" fill="#42D405"/>
<path d="M121.92 395.645C121.92 394.974 121.37 394.43 120.692 394.43C120.013 394.43 119.463 394.974 119.463 395.645C119.463 396.316 120.013 396.86 120.692 396.86C121.37 396.86 121.92 396.316 121.92 395.645Z" fill="#42D405"/>
<path d="M121.92 398.072C121.92 397.401 121.37 396.857 120.692 396.857C120.013 396.857 119.463 397.401 119.463 398.072C119.463 398.743 120.013 399.287 120.692 399.287C121.37 399.287 121.92 398.743 121.92 398.072Z" fill="#42D405"/>
<path d="M124.377 393.215C124.377 392.544 123.827 392 123.149 392C122.47 392 121.92 392.544 121.92 393.215C121.92 393.886 122.47 394.43 123.149 394.43C123.827 394.43 124.377 393.886 124.377 393.215Z" fill="#42D405"/>
<path d="M124.377 395.645C124.377 394.974 123.827 394.43 123.149 394.43C122.47 394.43 121.92 394.974 121.92 395.645C121.92 396.316 122.47 396.86 123.149 396.86C123.827 396.86 124.377 396.316 124.377 395.645Z" fill="#42D405"/>
<path d="M124.377 398.072C124.377 397.401 123.827 396.857 123.149 396.857C122.47 396.857 121.92 397.401 121.92 398.072C121.92 398.743 122.47 399.287 123.149 399.287C123.827 399.287 124.377 398.743 124.377 398.072Z" fill="#42D405"/>
<path d="M126.831 393.215C126.831 392.544 126.281 392 125.603 392C124.924 392 124.374 392.544 124.374 393.215C124.374 393.886 124.924 394.43 125.603 394.43C126.281 394.43 126.831 393.886 126.831 393.215Z" fill="#42D405"/>
<path d="M126.831 395.645C126.831 394.974 126.281 394.43 125.603 394.43C124.924 394.43 124.374 394.974 124.374 395.645C124.374 396.316 124.924 396.86 125.603 396.86C126.281 396.86 126.831 396.316 126.831 395.645Z" fill="#42D405"/>
<path d="M126.831 398.072C126.831 397.401 126.281 396.857 125.603 396.857C124.924 396.857 124.374 397.401 124.374 398.072C124.374 398.743 124.924 399.287 125.603 399.287C126.281 399.287 126.831 398.743 126.831 398.072Z" fill="#42D405"/>
<path d="M129.288 393.215C129.288 392.544 128.738 392 128.06 392C127.381 392 126.831 392.544 126.831 393.215C126.831 393.886 127.381 394.43 128.06 394.43C128.738 394.43 129.288 393.886 129.288 393.215Z" fill="#42D405"/>
<path d="M129.288 395.645C129.288 394.974 128.738 394.43 128.06 394.43C127.381 394.43 126.831 394.974 126.831 395.645C126.831 396.316 127.381 396.86 128.06 396.86C128.738 396.86 129.288 396.316 129.288 395.645Z" fill="#42D405"/>
<path d="M129.288 398.072C129.288 397.401 128.738 396.857 128.06 396.857C127.381 396.857 126.831 397.401 126.831 398.072C126.831 398.743 127.381 399.287 128.06 399.287C128.738 399.287 129.288 398.743 129.288 398.072Z" fill="#42D405"/>
<path d="M112.098 400.502C112.098 399.831 111.548 399.287 110.87 399.287C110.191 399.287 109.641 399.831 109.641 400.502C109.641 401.173 110.191 401.717 110.87 401.717C111.548 401.717 112.098 401.173 112.098 400.502Z" fill="#42D405"/>
<path d="M114.552 400.502C114.552 399.831 114.002 399.287 113.324 399.287C112.645 399.287 112.095 399.831 112.095 400.502C112.095 401.173 112.645 401.717 113.324 401.717C114.002 401.717 114.552 401.173 114.552 400.502Z" fill="#42D405"/>
<path d="M117.009 400.502C117.009 399.831 116.459 399.287 115.781 399.287C115.102 399.287 114.552 399.831 114.552 400.502C114.552 401.173 115.102 401.717 115.781 401.717C116.459 401.717 117.009 401.173 117.009 400.502Z" fill="#42D405"/>
<path d="M119.466 400.502C119.466 399.831 118.916 399.287 118.238 399.287C117.559 399.287 117.009 399.831 117.009 400.502C117.009 401.173 117.559 401.717 118.238 401.717C118.916 401.717 119.466 401.173 119.466 400.502Z" fill="#42D405"/>
<path d="M121.92 400.502C121.92 399.831 121.37 399.287 120.692 399.287C120.013 399.287 119.463 399.831 119.463 400.502C119.463 401.173 120.013 401.717 120.692 401.717C121.37 401.717 121.92 401.173 121.92 400.502Z" fill="#42D405"/>
<path d="M124.377 400.502C124.377 399.831 123.827 399.287 123.149 399.287C122.47 399.287 121.92 399.831 121.92 400.502C121.92 401.173 122.47 401.717 123.149 401.717C123.827 401.717 124.377 401.173 124.377 400.502Z" fill="#42D405"/>
<path d="M126.831 400.502C126.831 399.831 126.281 399.287 125.603 399.287C124.924 399.287 124.374 399.831 124.374 400.502C124.374 401.173 124.924 401.717 125.603 401.717C126.281 401.717 126.831 401.173 126.831 400.502Z" fill="#42D405"/>
<path d="M129.288 400.502C129.288 399.831 128.738 399.287 128.06 399.287C127.381 399.287 126.831 399.831 126.831 400.502C126.831 401.173 127.381 401.717 128.06 401.717C128.738 401.717 129.288 401.173 129.288 400.502Z" fill="#42D405"/>
<path d="M126.831 416.284H124.374H121.92H119.463H117.009H114.552H112.095H109.641V413.857H112.095H114.552H117.009H119.463H121.92V411.427V409V406.57V404.143H119.463H117.009H114.552H112.095H109.641V401.713V399.287V396.857V394.43V392H107.184H104.73H102.273H99.8194H97.3624H94.9085H92.4514V394.43V396.857V399.287V401.713V404.143V406.57V409V411.427V413.857V416.284V418.713V421.14V423.57V426H94.9085H97.3624H99.8194H102.273H104.73H107.184H109.641H112.095H114.552H117.009H119.463H121.92H124.374H126.831H129.285V423.57V421.14V418.713V416.284H126.831Z" fill="#42D405"/>
<path d="M200.322 419.928C200.322 419.257 199.772 418.714 199.094 418.714C198.415 418.714 197.865 419.257 197.865 419.928C197.865 420.599 198.415 421.143 199.094 421.143C199.772 421.143 200.322 420.599 200.322 419.928Z" fill="#42D405"/>
<path d="M200.322 422.355C200.322 421.684 199.772 421.14 199.094 421.14C198.415 421.14 197.865 421.684 197.865 422.355C197.865 423.026 198.415 423.57 199.094 423.57C199.772 423.57 200.322 423.026 200.322 422.355Z" fill="#42D405"/>
<path d="M200.322 424.785C200.322 424.114 199.772 423.57 199.094 423.57C198.415 423.57 197.865 424.114 197.865 424.785C197.865 425.456 198.415 426 199.094 426C199.772 426 200.322 425.456 200.322 424.785Z" fill="#42D405"/>
<path d="M202.779 419.928C202.779 419.257 202.229 418.714 201.551 418.714C200.872 418.714 200.322 419.257 200.322 419.928C200.322 420.599 200.872 421.143 201.551 421.143C202.229 421.143 202.779 420.599 202.779 419.928Z" fill="#42D405"/>
<path d="M202.779 422.355C202.779 421.684 202.229 421.14 201.551 421.14C200.872 421.14 200.322 421.684 200.322 422.355C200.322 423.026 200.872 423.57 201.551 423.57C202.229 423.57 202.779 423.026 202.779 422.355Z" fill="#42D405"/>
<path d="M202.779 424.785C202.779 424.114 202.229 423.57 201.551 423.57C200.872 423.57 200.322 424.114 200.322 424.785C200.322 425.456 200.872 426 201.551 426C202.229 426 202.779 425.456 202.779 424.785Z" fill="#42D405"/>
<path d="M205.233 419.928C205.233 419.257 204.683 418.714 204.005 418.714C203.326 418.714 202.776 419.257 202.776 419.928C202.776 420.599 203.326 421.143 204.005 421.143C204.683 421.143 205.233 420.599 205.233 419.928Z" fill="#42D405"/>
<path d="M205.233 422.355C205.233 421.684 204.683 421.14 204.005 421.14C203.326 421.14 202.776 421.684 202.776 422.355C202.776 423.026 203.326 423.57 204.005 423.57C204.683 423.57 205.233 423.026 205.233 422.355Z" fill="#42D405"/>
<path d="M205.233 424.785C205.233 424.114 204.683 423.57 204.005 423.57C203.326 423.57 202.776 424.114 202.776 424.785C202.776 425.456 203.326 426 204.005 426C204.683 426 205.233 425.456 205.233 424.785Z" fill="#42D405"/>
<path d="M207.69 419.928C207.69 419.257 207.14 418.714 206.462 418.714C205.783 418.714 205.233 419.257 205.233 419.928C205.233 420.599 205.783 421.143 206.462 421.143C207.14 421.143 207.69 420.599 207.69 419.928Z" fill="#42D405"/>
<path d="M207.69 422.355C207.69 421.684 207.14 421.14 206.462 421.14C205.783 421.14 205.233 421.684 205.233 422.355C205.233 423.026 205.783 423.57 206.462 423.57C207.14 423.57 207.69 423.026 207.69 422.355Z" fill="#42D405"/>
<path d="M207.69 424.785C207.69 424.114 207.14 423.57 206.462 423.57C205.783 423.57 205.233 424.114 205.233 424.785C205.233 425.456 205.783 426 206.462 426C207.14 426 207.69 425.456 207.69 424.785Z" fill="#42D405"/>
<path d="M210.144 419.928C210.144 419.257 209.594 418.714 208.916 418.714C208.237 418.714 207.687 419.257 207.687 419.928C207.687 420.599 208.237 421.143 208.916 421.143C209.594 421.143 210.144 420.599 210.144 419.928Z" fill="#42D405"/>
<path d="M210.144 422.355C210.144 421.684 209.594 421.14 208.916 421.14C208.237 421.14 207.687 421.684 207.687 422.355C207.687 423.026 208.237 423.57 208.916 423.57C209.594 423.57 210.144 423.026 210.144 422.355Z" fill="#42D405"/>
<path d="M210.144 424.785C210.144 424.114 209.594 423.57 208.916 423.57C208.237 423.57 207.687 424.114 207.687 424.785C207.687 425.456 208.237 426 208.916 426C209.594 426 210.144 425.456 210.144 424.785Z" fill="#42D405"/>
<path d="M192.954 419.928C192.954 419.257 192.404 418.714 191.726 418.714C191.047 418.714 190.497 419.257 190.497 419.928C190.497 420.599 191.047 421.143 191.726 421.143C192.404 421.143 192.954 420.599 192.954 419.928Z" fill="#42D405"/>
<path d="M192.954 422.355C192.954 421.684 192.404 421.14 191.726 421.14C191.047 421.14 190.497 421.684 190.497 422.355C190.497 423.026 191.047 423.57 191.726 423.57C192.404 423.57 192.954 423.026 192.954 422.355Z" fill="#42D405"/>
<path d="M192.954 424.785C192.954 424.114 192.404 423.57 191.726 423.57C191.047 423.57 190.497 424.114 190.497 424.785C190.497 425.456 191.047 426 191.726 426C192.404 426 192.954 425.456 192.954 424.785Z" fill="#42D405"/>
<path d="M195.411 419.928C195.411 419.257 194.861 418.714 194.183 418.714C193.504 418.714 192.954 419.257 192.954 419.928C192.954 420.599 193.504 421.143 194.183 421.143C194.861 421.143 195.411 420.599 195.411 419.928Z" fill="#42D405"/>
<path d="M195.411 422.355C195.411 421.684 194.861 421.14 194.183 421.14C193.504 421.14 192.954 421.684 192.954 422.355C192.954 423.026 193.504 423.57 194.183 423.57C194.861 423.57 195.411 423.026 195.411 422.355Z" fill="#42D405"/>
<path d="M195.411 424.785C195.411 424.114 194.861 423.57 194.183 423.57C193.504 423.57 192.954 424.114 192.954 424.785C192.954 425.456 193.504 426 194.183 426C194.861 426 195.411 425.456 195.411 424.785Z" fill="#42D405"/>
<path d="M197.865 419.928C197.865 419.257 197.315 418.714 196.637 418.714C195.958 418.714 195.408 419.257 195.408 419.928C195.408 420.599 195.958 421.143 196.637 421.143C197.315 421.143 197.865 420.599 197.865 419.928Z" fill="#42D405"/>
<path d="M200.322 417.499C200.322 416.828 199.772 416.284 199.094 416.284C198.415 416.284 197.865 416.828 197.865 417.499C197.865 418.17 198.415 418.713 199.094 418.713C199.772 418.713 200.322 418.17 200.322 417.499Z" fill="#42D405"/>
<path d="M202.779 417.499C202.779 416.828 202.229 416.284 201.551 416.284C200.872 416.284 200.322 416.828 200.322 417.499C200.322 418.17 200.872 418.713 201.551 418.713C202.229 418.713 202.779 418.17 202.779 417.499Z" fill="#42D405"/>
<path d="M205.233 417.499C205.233 416.828 204.683 416.284 204.005 416.284C203.326 416.284 202.776 416.828 202.776 417.499C202.776 418.17 203.326 418.713 204.005 418.713C204.683 418.713 205.233 418.17 205.233 417.499Z" fill="#42D405"/>
<path d="M207.69 417.499C207.69 416.828 207.14 416.284 206.462 416.284C205.783 416.284 205.233 416.828 205.233 417.499C205.233 418.17 205.783 418.713 206.462 418.713C207.14 418.713 207.69 418.17 207.69 417.499Z" fill="#42D405"/>
<path d="M210.144 417.499C210.144 416.828 209.594 416.284 208.916 416.284C208.237 416.284 207.687 416.828 207.687 417.499C207.687 418.17 208.237 418.713 208.916 418.713C209.594 418.713 210.144 418.17 210.144 417.499Z" fill="#42D405"/>
<path d="M192.954 417.499C192.954 416.828 192.404 416.284 191.726 416.284C191.047 416.284 190.497 416.828 190.497 417.499C190.497 418.17 191.047 418.713 191.726 418.713C192.404 418.713 192.954 418.17 192.954 417.499Z" fill="#42D405"/>
<path d="M195.411 417.499C195.411 416.828 194.861 416.284 194.183 416.284C193.504 416.284 192.954 416.828 192.954 417.499C192.954 418.17 193.504 418.713 194.183 418.713C194.861 418.713 195.411 418.17 195.411 417.499Z" fill="#42D405"/>
<path d="M197.865 417.499C197.865 416.828 197.315 416.284 196.637 416.284C195.958 416.284 195.408 416.828 195.408 417.499C195.408 418.17 195.958 418.713 196.637 418.713C197.315 418.713 197.865 418.17 197.865 417.499Z" fill="#42D405"/>
<path d="M197.865 422.355C197.865 421.684 197.315 421.14 196.637 421.14C195.958 421.14 195.408 421.684 195.408 422.355C195.408 423.026 195.958 423.57 196.637 423.57C197.315 423.57 197.865 423.026 197.865 422.355Z" fill="#42D405"/>
<path d="M197.865 424.785C197.865 424.114 197.315 423.57 196.637 423.57C195.958 423.57 195.408 424.114 195.408 424.785C195.408 425.456 195.958 426 196.637 426C197.315 426 197.865 425.456 197.865 424.785Z" fill="#42D405"/>
<path d="M152.528 410.215C152.528 409.544 151.978 409 151.299 409C150.621 409 150.071 409.544 150.071 410.215C150.071 410.886 150.621 411.43 151.299 411.43C151.978 411.43 152.528 410.886 152.528 410.215Z" fill="#42D405"/>
<path d="M152.528 407.785C152.528 407.114 151.978 406.57 151.299 406.57C150.621 406.57 150.071 407.114 150.071 407.785C150.071 408.456 150.621 409 151.299 409C151.978 409 152.528 408.456 152.528 407.785Z" fill="#42D405"/>
<path d="M152.528 412.642C152.528 411.971 151.978 411.427 151.299 411.427C150.621 411.427 150.071 411.971 150.071 412.642C150.071 413.313 150.621 413.857 151.299 413.857C151.978 413.857 152.528 413.313 152.528 412.642Z" fill="#42D405"/>
<path d="M152.528 415.072C152.528 414.401 151.978 413.857 151.299 413.857C150.621 413.857 150.071 414.401 150.071 415.072C150.071 415.743 150.621 416.287 151.299 416.287C151.978 416.287 152.528 415.743 152.528 415.072Z" fill="#42D405"/>
<path d="M154.982 410.215C154.982 409.544 154.432 409 153.753 409C153.075 409 152.525 409.544 152.525 410.215C152.525 410.886 153.075 411.43 153.753 411.43C154.432 411.43 154.982 410.886 154.982 410.215Z" fill="#42D405"/>
<path d="M154.982 412.642C154.982 411.971 154.432 411.427 153.753 411.427C153.075 411.427 152.525 411.971 152.525 412.642C152.525 413.313 153.075 413.857 153.753 413.857C154.432 413.857 154.982 413.313 154.982 412.642Z" fill="#42D405"/>
<path d="M154.982 415.072C154.982 414.401 154.432 413.857 153.753 413.857C153.075 413.857 152.525 414.401 152.525 415.072C152.525 415.743 153.075 416.287 153.753 416.287C154.432 416.287 154.982 415.743 154.982 415.072Z" fill="#42D405"/>
<path d="M157.439 410.215C157.439 409.544 156.889 409 156.21 409C155.532 409 154.982 409.544 154.982 410.215C154.982 410.886 155.532 411.43 156.21 411.43C156.889 411.43 157.439 410.886 157.439 410.215Z" fill="#42D405"/>
<path d="M157.439 412.642C157.439 411.971 156.889 411.427 156.21 411.427C155.532 411.427 154.982 411.971 154.982 412.642C154.982 413.313 155.532 413.857 156.21 413.857C156.889 413.857 157.439 413.313 157.439 412.642Z" fill="#42D405"/>
<path d="M157.439 415.072C157.439 414.401 156.889 413.857 156.21 413.857C155.532 413.857 154.982 414.401 154.982 415.072C154.982 415.743 155.532 416.287 156.21 416.287C156.889 416.287 157.439 415.743 157.439 415.072Z" fill="#42D405"/>
<path d="M152.528 393.215C152.528 392.544 151.978 392 151.299 392C150.621 392 150.071 392.544 150.071 393.215C150.071 393.886 150.621 394.43 151.299 394.43C151.978 394.43 152.528 393.886 152.528 393.215Z" fill="#42D405"/>
<path d="M152.528 395.645C152.528 394.974 151.978 394.43 151.299 394.43C150.621 394.43 150.071 394.974 150.071 395.645C150.071 396.316 150.621 396.86 151.299 396.86C151.978 396.86 152.528 396.316 152.528 395.645Z" fill="#42D405"/>
<path d="M152.528 398.072C152.528 397.401 151.978 396.857 151.299 396.857C150.621 396.857 150.071 397.401 150.071 398.072C150.071 398.743 150.621 399.287 151.299 399.287C151.978 399.287 152.528 398.743 152.528 398.072Z" fill="#42D405"/>
<path d="M152.528 400.502C152.528 399.831 151.978 399.287 151.299 399.287C150.621 399.287 150.071 399.831 150.071 400.502C150.071 401.173 150.621 401.717 151.299 401.717C151.978 401.717 152.528 401.173 152.528 400.502Z" fill="#42D405"/>
<path d="M154.982 393.215C154.982 392.544 154.432 392 153.753 392C153.075 392 152.525 392.544 152.525 393.215C152.525 393.886 153.075 394.43 153.753 394.43C154.432 394.43 154.982 393.886 154.982 393.215Z" fill="#42D405"/>
<path d="M154.982 395.645C154.982 394.974 154.432 394.43 153.753 394.43C153.075 394.43 152.525 394.974 152.525 395.645C152.525 396.316 153.075 396.86 153.753 396.86C154.432 396.86 154.982 396.316 154.982 395.645Z" fill="#42D405"/>
<path d="M154.982 398.072C154.982 397.401 154.432 396.857 153.753 396.857C153.075 396.857 152.525 397.401 152.525 398.072C152.525 398.743 153.075 399.287 153.753 399.287C154.432 399.287 154.982 398.743 154.982 398.072Z" fill="#42D405"/>
<path d="M157.439 393.215C157.439 392.544 156.889 392 156.21 392C155.532 392 154.982 392.544 154.982 393.215C154.982 393.886 155.532 394.43 156.21 394.43C156.889 394.43 157.439 393.886 157.439 393.215Z" fill="#42D405"/>
<path d="M157.439 395.645C157.439 394.974 156.889 394.43 156.21 394.43C155.532 394.43 154.982 394.974 154.982 395.645C154.982 396.316 155.532 396.86 156.21 396.86C156.889 396.86 157.439 396.316 157.439 395.645Z" fill="#42D405"/>
<path d="M157.439 398.072C157.439 397.401 156.889 396.857 156.21 396.857C155.532 396.857 154.982 397.401 154.982 398.072C154.982 398.743 155.532 399.287 156.21 399.287C156.889 399.287 157.439 398.743 157.439 398.072Z" fill="#42D405"/>
<path d="M159.893 393.215C159.893 392.544 159.343 392 158.664 392C157.986 392 157.436 392.544 157.436 393.215C157.436 393.886 157.986 394.43 158.664 394.43C159.343 394.43 159.893 393.886 159.893 393.215Z" fill="#42D405"/>
<path d="M159.893 395.645C159.893 394.974 159.343 394.43 158.664 394.43C157.986 394.43 157.436 394.974 157.436 395.645C157.436 396.316 157.986 396.86 158.664 396.86C159.343 396.86 159.893 396.316 159.893 395.645Z" fill="#42D405"/>
<path d="M159.893 398.072C159.893 397.401 159.343 396.857 158.664 396.857C157.986 396.857 157.436 397.401 157.436 398.072C157.436 398.743 157.986 399.287 158.664 399.287C159.343 399.287 159.893 398.743 159.893 398.072Z" fill="#42D405"/>
<path d="M162.35 393.215C162.35 392.544 161.8 392 161.121 392C160.443 392 159.893 392.544 159.893 393.215C159.893 393.886 160.443 394.43 161.121 394.43C161.8 394.43 162.35 393.886 162.35 393.215Z" fill="#42D405"/>
<path d="M162.35 395.645C162.35 394.974 161.8 394.43 161.121 394.43C160.443 394.43 159.893 394.974 159.893 395.645C159.893 396.316 160.443 396.86 161.121 396.86C161.8 396.86 162.35 396.316 162.35 395.645Z" fill="#42D405"/>
<path d="M164.804 395.645C164.804 394.974 164.254 394.43 163.575 394.43C162.897 394.43 162.347 394.974 162.347 395.645C162.347 396.316 162.897 396.86 163.575 396.86C164.254 396.86 164.804 396.316 164.804 395.645Z" fill="#42D405"/>
<path d="M162.35 398.072C162.35 397.401 161.8 396.857 161.121 396.857C160.443 396.857 159.893 397.401 159.893 398.072C159.893 398.743 160.443 399.287 161.121 399.287C161.8 399.287 162.35 398.743 162.35 398.072Z" fill="#42D405"/>
<path d="M164.804 398.072C164.804 397.401 164.254 396.857 163.575 396.857C162.897 396.857 162.347 397.401 162.347 398.072C162.347 398.743 162.897 399.287 163.575 399.287C164.254 399.287 164.804 398.743 164.804 398.072Z" fill="#42D405"/>
<path d="M167.261 398.072C167.261 397.401 166.711 396.857 166.032 396.857C165.354 396.857 164.804 397.401 164.804 398.072C164.804 398.743 165.354 399.287 166.032 399.287C166.711 399.287 167.261 398.743 167.261 398.072Z" fill="#42D405"/>
<path d="M159.893 400.502C159.893 399.831 159.343 399.287 158.664 399.287C157.986 399.287 157.436 399.831 157.436 400.502C157.436 401.173 157.986 401.717 158.664 401.717C159.343 401.717 159.893 401.173 159.893 400.502Z" fill="#42D405"/>
<path d="M159.893 407.785C159.893 407.114 159.343 406.57 158.664 406.57C157.986 406.57 157.436 407.114 157.436 407.785C157.436 408.456 157.986 409 158.664 409C159.343 409 159.893 408.456 159.893 407.785Z" fill="#42D405"/>
<path d="M162.35 400.502C162.35 399.831 161.8 399.287 161.121 399.287C160.443 399.287 159.893 399.831 159.893 400.502C159.893 401.173 160.443 401.717 161.121 401.717C161.8 401.717 162.35 401.173 162.35 400.502Z" fill="#42D405"/>
<path d="M162.35 407.785C162.35 407.114 161.8 406.57 161.121 406.57C160.443 406.57 159.893 407.114 159.893 407.785C159.893 408.456 160.443 409 161.121 409C161.8 409 162.35 408.456 162.35 407.785Z" fill="#42D405"/>
<path d="M164.804 400.502C164.804 399.831 164.254 399.287 163.575 399.287C162.897 399.287 162.347 399.831 162.347 400.502C162.347 401.173 162.897 401.717 163.575 401.717C164.254 401.717 164.804 401.173 164.804 400.502Z" fill="#42D405"/>
<path d="M164.804 407.785C164.804 407.114 164.254 406.57 163.575 406.57C162.897 406.57 162.347 407.114 162.347 407.785C162.347 408.456 162.897 409 163.575 409C164.254 409 164.804 408.456 164.804 407.785Z" fill="#42D405"/>
<path d="M167.261 400.502C167.261 399.831 166.711 399.287 166.032 399.287C165.354 399.287 164.804 399.831 164.804 400.502C164.804 401.173 165.354 401.717 166.032 401.717C166.711 401.717 167.261 401.173 167.261 400.502Z" fill="#42D405"/>
<path d="M167.261 407.785C167.261 407.114 166.711 406.57 166.032 406.57C165.354 406.57 164.804 407.114 164.804 407.785C164.804 408.456 165.354 409 166.032 409C166.711 409 167.261 408.456 167.261 407.785Z" fill="#42D405"/>
<path d="M159.893 410.215C159.893 409.544 159.343 409 158.664 409C157.986 409 157.436 409.544 157.436 410.215C157.436 410.886 157.986 411.43 158.664 411.43C159.343 411.43 159.893 410.886 159.893 410.215Z" fill="#42D405"/>
<path d="M162.35 410.215C162.35 409.544 161.8 409 161.121 409C160.443 409 159.893 409.544 159.893 410.215C159.893 410.886 160.443 411.43 161.121 411.43C161.8 411.43 162.35 410.886 162.35 410.215Z" fill="#42D405"/>
<path d="M164.804 410.215C164.804 409.544 164.254 409 163.575 409C162.897 409 162.347 409.544 162.347 410.215C162.347 410.886 162.897 411.43 163.575 411.43C164.254 411.43 164.804 410.886 164.804 410.215Z" fill="#42D405"/>
<path d="M159.893 412.642C159.893 411.971 159.343 411.427 158.664 411.427C157.986 411.427 157.436 411.971 157.436 412.642C157.436 413.313 157.986 413.857 158.664 413.857C159.343 413.857 159.893 413.313 159.893 412.642Z" fill="#42D405"/>
<path d="M162.35 412.642C162.35 411.971 161.8 411.427 161.121 411.427C160.443 411.427 159.893 411.971 159.893 412.642C159.893 413.313 160.443 413.857 161.121 413.857C161.8 413.857 162.35 413.313 162.35 412.642Z" fill="#42D405"/>
<path d="M159.893 415.072C159.893 414.401 159.343 413.857 158.664 413.857C157.986 413.857 157.436 414.401 157.436 415.072C157.436 415.743 157.986 416.287 158.664 416.287C159.343 416.287 159.893 415.743 159.893 415.072Z" fill="#42D405"/>
<path d="M162.35 415.072C162.35 414.401 161.8 413.857 161.121 413.857C160.443 413.857 159.893 414.401 159.893 415.072C159.893 415.743 160.443 416.287 161.121 416.287C161.8 416.287 162.35 415.743 162.35 415.072Z" fill="#42D405"/>
<path d="M164.804 412.642C164.804 411.971 164.254 411.427 163.575 411.427C162.897 411.427 162.347 411.971 162.347 412.642C162.347 413.313 162.897 413.857 163.575 413.857C164.254 413.857 164.804 413.313 164.804 412.642Z" fill="#42D405"/>
<path d="M167.261 410.215C167.261 409.544 166.711 409 166.032 409C165.354 409 164.804 409.544 164.804 410.215C164.804 410.886 165.354 411.43 166.032 411.43C166.711 411.43 167.261 410.886 167.261 410.215Z" fill="#42D405"/>
<path d="M169.715 400.502C169.715 399.831 169.165 399.287 168.486 399.287C167.808 399.287 167.258 399.831 167.258 400.502C167.258 401.173 167.808 401.717 168.486 401.717C169.165 401.717 169.715 401.173 169.715 400.502Z" fill="#42D405"/>
<path d="M169.715 407.785C169.715 407.114 169.165 406.57 168.486 406.57C167.808 406.57 167.258 407.114 167.258 407.785C167.258 408.456 167.808 409 168.486 409C169.165 409 169.715 408.456 169.715 407.785Z" fill="#42D405"/>
<path d="M159.893 402.928C159.893 402.257 159.343 401.713 158.664 401.713C157.986 401.713 157.436 402.257 157.436 402.928C157.436 403.599 157.986 404.143 158.664 404.143C159.343 404.143 159.893 403.599 159.893 402.928Z" fill="#42D405"/>
<path d="M159.893 405.358C159.893 404.687 159.343 404.143 158.664 404.143C157.986 404.143 157.436 404.687 157.436 405.358C157.436 406.029 157.986 406.573 158.664 406.573C159.343 406.573 159.893 406.029 159.893 405.358Z" fill="#42D405"/>
<path d="M157.439 400.502C157.439 399.831 156.889 399.287 156.21 399.287C155.532 399.287 154.982 399.831 154.982 400.502C154.982 401.173 155.532 401.717 156.21 401.717C156.889 401.717 157.439 401.173 157.439 400.502Z" fill="#42D405"/>
<path d="M157.439 407.785C157.439 407.114 156.889 406.57 156.21 406.57C155.532 406.57 154.982 407.114 154.982 407.785C154.982 408.456 155.532 409 156.21 409C156.889 409 157.439 408.456 157.439 407.785Z" fill="#42D405"/>
<path d="M157.439 402.928C157.439 402.257 156.889 401.713 156.21 401.713C155.532 401.713 154.982 402.257 154.982 402.928C154.982 403.599 155.532 404.143 156.21 404.143C156.889 404.143 157.439 403.599 157.439 402.928Z" fill="#42D405"/>
<path d="M157.439 405.358C157.439 404.687 156.889 404.143 156.21 404.143C155.532 404.143 154.982 404.687 154.982 405.358C154.982 406.029 155.532 406.573 156.21 406.573C156.889 406.573 157.439 406.029 157.439 405.358Z" fill="#42D405"/>
<path d="M154.982 400.502C154.982 399.831 154.432 399.287 153.753 399.287C153.075 399.287 152.525 399.831 152.525 400.502C152.525 401.173 153.075 401.717 153.753 401.717C154.432 401.717 154.982 401.173 154.982 400.502Z" fill="#42D405"/>
<path d="M154.982 407.785C154.982 407.114 154.432 406.57 153.753 406.57C153.075 406.57 152.525 407.114 152.525 407.785C152.525 408.456 153.075 409 153.753 409C154.432 409 154.982 408.456 154.982 407.785Z" fill="#42D405"/>
<path d="M154.982 402.928C154.982 402.257 154.432 401.713 153.753 401.713C153.075 401.713 152.525 402.257 152.525 402.928C152.525 403.599 153.075 404.143 153.753 404.143C154.432 404.143 154.982 403.599 154.982 402.928Z" fill="#42D405"/>
<path d="M154.982 405.358C154.982 404.687 154.432 404.143 153.753 404.143C153.075 404.143 152.525 404.687 152.525 405.358C152.525 406.029 153.075 406.573 153.753 406.573C154.432 406.573 154.982 406.029 154.982 405.358Z" fill="#42D405"/>
<path d="M162.35 402.928C162.35 402.257 161.8 401.713 161.121 401.713C160.443 401.713 159.893 402.257 159.893 402.928C159.893 403.599 160.443 404.143 161.121 404.143C161.8 404.143 162.35 403.599 162.35 402.928Z" fill="#42D405"/>
<path d="M162.35 405.358C162.35 404.687 161.8 404.143 161.121 404.143C160.443 404.143 159.893 404.687 159.893 405.358C159.893 406.029 160.443 406.573 161.121 406.573C161.8 406.573 162.35 406.029 162.35 405.358Z" fill="#42D405"/>
<path d="M164.804 402.928C164.804 402.257 164.254 401.713 163.575 401.713C162.897 401.713 162.347 402.257 162.347 402.928C162.347 403.599 162.897 404.143 163.575 404.143C164.254 404.143 164.804 403.599 164.804 402.928Z" fill="#42D405"/>
<path d="M164.804 405.358C164.804 404.687 164.254 404.143 163.575 404.143C162.897 404.143 162.347 404.687 162.347 405.358C162.347 406.029 162.897 406.573 163.575 406.573C164.254 406.573 164.804 406.029 164.804 405.358Z" fill="#42D405"/>
<path d="M167.261 402.928C167.261 402.257 166.711 401.713 166.032 401.713C165.354 401.713 164.804 402.257 164.804 402.928C164.804 403.599 165.354 404.143 166.032 404.143C166.711 404.143 167.261 403.599 167.261 402.928Z" fill="#42D405"/>
<path d="M167.261 405.358C167.261 404.687 166.711 404.143 166.032 404.143C165.354 404.143 164.804 404.687 164.804 405.358C164.804 406.029 165.354 406.573 166.032 406.573C166.711 406.573 167.261 406.029 167.261 405.358Z" fill="#42D405"/>
<path d="M169.715 402.928C169.715 402.257 169.165 401.713 168.486 401.713C167.808 401.713 167.258 402.257 167.258 402.928C167.258 403.599 167.808 404.143 168.486 404.143C169.165 404.143 169.715 403.599 169.715 402.928Z" fill="#42D405"/>
<path d="M169.715 405.358C169.715 404.687 169.165 404.143 168.486 404.143C167.808 404.143 167.258 404.687 167.258 405.358C167.258 406.029 167.808 406.573 168.486 406.573C169.165 406.573 169.715 406.029 169.715 405.358Z" fill="#42D405"/>
<path d="M230.93 419.928C230.93 419.257 230.38 418.714 229.701 418.714C229.023 418.714 228.473 419.257 228.473 419.928C228.473 420.599 229.023 421.143 229.701 421.143C230.38 421.143 230.93 420.599 230.93 419.928Z" fill="#42D405"/>
<path d="M230.93 422.355C230.93 421.684 230.38 421.14 229.701 421.14C229.023 421.14 228.473 421.684 228.473 422.355C228.473 423.026 229.023 423.57 229.701 423.57C230.38 423.57 230.93 423.026 230.93 422.355Z" fill="#42D405"/>
<path d="M230.93 424.785C230.93 424.114 230.38 423.57 229.701 423.57C229.023 423.57 228.473 424.114 228.473 424.785C228.473 425.456 229.023 426 229.701 426C230.38 426 230.93 425.456 230.93 424.785Z" fill="#42D405"/>
<path d="M233.384 419.928C233.384 419.257 232.834 418.714 232.155 418.714C231.477 418.714 230.927 419.257 230.927 419.928C230.927 420.599 231.477 421.143 232.155 421.143C232.834 421.143 233.384 420.599 233.384 419.928Z" fill="#42D405"/>
<path d="M233.384 422.355C233.384 421.684 232.834 421.14 232.155 421.14C231.477 421.14 230.927 421.684 230.927 422.355C230.927 423.026 231.477 423.57 232.155 423.57C232.834 423.57 233.384 423.026 233.384 422.355Z" fill="#42D405"/>
<path d="M233.384 424.785C233.384 424.114 232.834 423.57 232.155 423.57C231.477 423.57 230.927 424.114 230.927 424.785C230.927 425.456 231.477 426 232.155 426C232.834 426 233.384 425.456 233.384 424.785Z" fill="#42D405"/>
<path d="M235.841 419.928C235.841 419.257 235.291 418.714 234.612 418.714C233.934 418.714 233.384 419.257 233.384 419.928C233.384 420.599 233.934 421.143 234.612 421.143C235.291 421.143 235.841 420.599 235.841 419.928Z" fill="#42D405"/>
<path d="M235.841 422.355C235.841 421.684 235.291 421.14 234.612 421.14C233.934 421.14 233.384 421.684 233.384 422.355C233.384 423.026 233.934 423.57 234.612 423.57C235.291 423.57 235.841 423.026 235.841 422.355Z" fill="#42D405"/>
<path d="M235.841 424.785C235.841 424.114 235.291 423.57 234.612 423.57C233.934 423.57 233.384 424.114 233.384 424.785C233.384 425.456 233.934 426 234.612 426C235.291 426 235.841 425.456 235.841 424.785Z" fill="#42D405"/>
<path d="M238.295 419.928C238.295 419.257 237.745 418.714 237.066 418.714C236.388 418.714 235.838 419.257 235.838 419.928C235.838 420.599 236.388 421.143 237.066 421.143C237.745 421.143 238.295 420.599 238.295 419.928Z" fill="#42D405"/>
<path d="M238.295 422.355C238.295 421.684 237.745 421.14 237.066 421.14C236.388 421.14 235.838 421.684 235.838 422.355C235.838 423.026 236.388 423.57 237.066 423.57C237.745 423.57 238.295 423.026 238.295 422.355Z" fill="#42D405"/>
<path d="M238.295 424.785C238.295 424.114 237.745 423.57 237.066 423.57C236.388 423.57 235.838 424.114 235.838 424.785C235.838 425.456 236.388 426 237.066 426C237.745 426 238.295 425.456 238.295 424.785Z" fill="#42D405"/>
<path d="M240.752 419.928C240.752 419.257 240.202 418.714 239.523 418.714C238.845 418.714 238.295 419.257 238.295 419.928C238.295 420.599 238.845 421.143 239.523 421.143C240.202 421.143 240.752 420.599 240.752 419.928Z" fill="#42D405"/>
<path d="M240.752 417.499C240.752 416.828 240.202 416.284 239.523 416.284C238.845 416.284 238.295 416.828 238.295 417.499C238.295 418.17 238.845 418.713 239.523 418.713C240.202 418.713 240.752 418.17 240.752 417.499Z" fill="#42D405"/>
<path d="M240.752 422.355C240.752 421.684 240.202 421.14 239.523 421.14C238.845 421.14 238.295 421.684 238.295 422.355C238.295 423.026 238.845 423.57 239.523 423.57C240.202 423.57 240.752 423.026 240.752 422.355Z" fill="#42D405"/>
<path d="M240.752 424.785C240.752 424.114 240.202 423.57 239.523 423.57C238.845 423.57 238.295 424.114 238.295 424.785C238.295 425.456 238.845 426 239.523 426C240.202 426 240.752 425.456 240.752 424.785Z" fill="#42D405"/>
<path d="M249.345 418.713C250.024 418.713 250.574 418.17 250.574 417.499C250.574 416.828 250.024 416.284 249.345 416.284C248.667 416.284 248.117 416.828 248.117 417.499C248.117 418.17 248.667 418.713 249.345 418.713Z" fill="#42D405"/>
<path d="M246.888 418.713C247.567 418.713 248.117 418.17 248.117 417.499C248.117 416.828 247.567 416.284 246.888 416.284C246.21 416.284 245.66 416.828 245.66 417.499C245.66 418.17 246.21 418.713 246.888 418.713Z" fill="#42D405"/>
<path d="M246.888 421.143C247.567 421.143 248.117 420.599 248.117 419.928C248.117 419.257 247.567 418.714 246.888 418.714C246.21 418.714 245.66 419.257 245.66 419.928C245.66 420.599 246.21 421.143 246.888 421.143Z" fill="#42D405"/>
<path d="M244.434 418.717C245.113 418.717 245.663 418.173 245.663 417.502C245.663 416.831 245.113 416.287 244.434 416.287C243.756 416.287 243.206 416.831 243.206 417.502C243.206 418.173 243.756 418.717 244.434 418.717Z" fill="#42D405"/>
<path d="M244.431 421.143C245.11 421.143 245.66 420.599 245.66 419.928C245.66 419.257 245.11 418.714 244.431 418.714C243.753 418.714 243.203 419.257 243.203 419.928C243.203 420.599 243.753 421.143 244.431 421.143Z" fill="#42D405"/>
<path d="M244.434 423.573C245.113 423.573 245.663 423.029 245.663 422.358C245.663 421.687 245.113 421.143 244.434 421.143C243.756 421.143 243.206 421.687 243.206 422.358C243.206 423.029 243.756 423.573 244.434 423.573Z" fill="#42D405"/>
<path d="M241.977 418.713C242.656 418.713 243.206 418.17 243.206 417.499C243.206 416.828 242.656 416.284 241.977 416.284C241.299 416.284 240.749 416.828 240.749 417.499C240.749 418.17 241.299 418.713 241.977 418.713Z" fill="#42D405"/>
<path d="M222.333 418.713C223.012 418.713 223.562 418.17 223.562 417.499C223.562 416.828 223.012 416.284 222.333 416.284C221.655 416.284 221.105 416.828 221.105 417.499C221.105 418.17 221.655 418.713 222.333 418.713Z" fill="#42D405"/>
<path d="M241.977 421.143C242.656 421.143 243.206 420.599 243.206 419.928C243.206 419.257 242.656 418.714 241.977 418.714C241.299 418.714 240.749 419.257 240.749 419.928C240.749 420.599 241.299 421.143 241.977 421.143Z" fill="#42D405"/>
<path d="M222.33 421.143C223.009 421.143 223.559 420.599 223.559 419.928C223.559 419.257 223.009 418.714 222.33 418.714C221.652 418.714 221.102 419.257 221.102 419.928C221.102 420.599 221.652 421.143 222.33 421.143Z" fill="#42D405"/>
<path d="M241.977 423.57C242.656 423.57 243.206 423.026 243.206 422.355C243.206 421.684 242.656 421.14 241.977 421.14C241.299 421.14 240.749 421.684 240.749 422.355C240.749 423.026 241.299 423.57 241.977 423.57Z" fill="#42D405"/>
<path d="M222.333 423.57C223.012 423.57 223.562 423.026 223.562 422.355C223.562 421.684 223.012 421.14 222.333 421.14C221.655 421.14 221.105 421.684 221.105 422.355C221.105 423.026 221.655 423.57 222.333 423.57Z" fill="#42D405"/>
<path d="M219.876 418.713C220.555 418.713 221.105 418.17 221.105 417.499C221.105 416.828 220.555 416.284 219.876 416.284C219.198 416.284 218.648 416.828 218.648 417.499C218.648 418.17 219.198 418.713 219.876 418.713Z" fill="#42D405"/>
<path d="M219.876 421.14C220.555 421.14 221.105 420.596 221.105 419.925C221.105 419.254 220.555 418.71 219.876 418.71C219.198 418.71 218.648 419.254 218.648 419.925C218.648 420.596 219.198 421.14 219.876 421.14Z" fill="#42D405"/>
<path d="M217.422 418.713C218.101 418.713 218.651 418.169 218.651 417.499C218.651 416.828 218.101 416.284 217.422 416.284C216.744 416.284 216.194 416.828 216.194 417.499C216.194 418.169 216.744 418.713 217.422 418.713Z" fill="#42D405"/>
<path d="M214.965 418.713C215.644 418.713 216.194 418.17 216.194 417.499C216.194 416.828 215.644 416.284 214.965 416.284C214.287 416.284 213.737 416.828 213.737 417.499C213.737 418.17 214.287 418.713 214.965 418.713Z" fill="#42D405"/>
<path d="M217.419 421.143C218.098 421.143 218.648 420.599 218.648 419.928C218.648 419.257 218.098 418.714 217.419 418.714C216.741 418.714 216.191 419.257 216.191 419.928C216.191 420.599 216.741 421.143 217.419 421.143Z" fill="#42D405"/>
<path d="M219.876 423.57C220.555 423.57 221.105 423.026 221.105 422.355C221.105 421.684 220.555 421.14 219.876 421.14C219.198 421.14 218.648 421.684 218.648 422.355C218.648 423.026 219.198 423.57 219.876 423.57Z" fill="#42D405"/>
<path d="M241.977 426C242.656 426 243.206 425.456 243.206 424.785C243.206 424.114 242.656 423.57 241.977 423.57C241.299 423.57 240.749 424.114 240.749 424.785C240.749 425.456 241.299 426 241.977 426Z" fill="#42D405"/>
<path d="M222.333 426C223.012 426 223.562 425.456 223.562 424.785C223.562 424.114 223.012 423.57 222.333 423.57C221.655 423.57 221.105 424.114 221.105 424.785C221.105 425.456 221.655 426 222.333 426Z" fill="#42D405"/>
<path d="M224.787 418.717C225.466 418.717 226.016 418.173 226.016 417.502C226.016 416.831 225.466 416.287 224.787 416.287C224.109 416.287 223.559 416.831 223.559 417.502C223.559 418.173 224.109 418.717 224.787 418.717Z" fill="#42D405"/>
<path d="M227.244 421.143C227.923 421.143 228.473 420.599 228.473 419.928C228.473 419.257 227.923 418.714 227.244 418.714C226.566 418.714 226.016 419.257 226.016 419.928C226.016 420.599 226.566 421.143 227.244 421.143Z" fill="#42D405"/>
<path d="M230.93 417.499C230.93 416.828 230.38 416.284 229.701 416.284C229.023 416.284 228.473 416.828 228.473 417.499C228.473 418.17 229.023 418.713 229.701 418.713C230.38 418.713 230.93 418.17 230.93 417.499Z" fill="#42D405"/>
<path d="M233.384 417.499C233.384 416.828 232.834 416.284 232.155 416.284C231.477 416.284 230.927 416.828 230.927 417.499C230.927 418.17 231.477 418.713 232.155 418.713C232.834 418.713 233.384 418.17 233.384 417.499Z" fill="#42D405"/>
<path d="M235.841 417.499C235.841 416.828 235.291 416.284 234.612 416.284C233.934 416.284 233.384 416.828 233.384 417.499C233.384 418.17 233.934 418.713 234.612 418.713C235.291 418.713 235.841 418.17 235.841 417.499Z" fill="#42D405"/>
<path d="M238.295 417.499C238.295 416.828 237.745 416.284 237.066 416.284C236.388 416.284 235.838 416.828 235.838 417.499C235.838 418.17 236.388 418.713 237.066 418.713C237.745 418.713 238.295 418.17 238.295 417.499Z" fill="#42D405"/>
<path d="M227.244 418.713C227.923 418.713 228.473 418.17 228.473 417.499C228.473 416.828 227.923 416.284 227.244 416.284C226.566 416.284 226.016 416.828 226.016 417.499C226.016 418.17 226.566 418.713 227.244 418.713Z" fill="#42D405"/>
<path d="M224.787 421.143C225.466 421.143 226.016 420.599 226.016 419.928C226.016 419.257 225.466 418.714 224.787 418.714C224.109 418.714 223.559 419.257 223.559 419.928C223.559 420.599 224.109 421.143 224.787 421.143Z" fill="#42D405"/>
<path d="M227.244 423.57C227.923 423.57 228.473 423.026 228.473 422.355C228.473 421.684 227.923 421.14 227.244 421.14C226.566 421.14 226.016 421.684 226.016 422.355C226.016 423.026 226.566 423.57 227.244 423.57Z" fill="#42D405"/>
<path d="M224.79 423.573C225.469 423.573 226.019 423.029 226.019 422.358C226.019 421.687 225.469 421.143 224.79 421.143C224.112 421.143 223.562 421.687 223.562 422.358C223.562 423.029 224.112 423.573 224.79 423.573Z" fill="#42D405"/>
<path d="M227.244 426C227.923 426 228.473 425.456 228.473 424.785C228.473 424.114 227.923 423.57 227.244 423.57C226.566 423.57 226.016 424.114 226.016 424.785C226.016 425.456 226.566 426 227.244 426Z" fill="#42D405"/>
<path d="M224.787 426C225.466 426 226.016 425.456 226.016 424.785C226.016 424.114 225.466 423.57 224.787 423.57C224.109 423.57 223.559 424.114 223.559 424.785C223.559 425.456 224.109 426 224.787 426Z" fill="#42D405"/>
<path d="M147.614 392H145.16H142.703H140.249H137.792H135.335H132.881V394.43V396.857V399.287V401.713V404.143V406.57V409V411.427V413.857V416.284V418.713V421.14V423.57V426H135.335H137.792H140.249H142.703H145.16H147.614H150.071V423.57V421.14V418.713V416.284V413.857V411.427V409V406.57V404.143V401.713V399.287V396.857V394.43V392H147.614Z" fill="#42D405"/>
<path d="M188.043 392H185.586H183.132H180.675H178.221H175.764H173.31V394.43V396.857V399.287V401.713V404.143V406.57V409V411.427V413.857V416.284V418.713V421.14V423.57V426H175.764H178.221H180.675H183.132H185.586H188.043H190.497V423.57V421.14V418.713V416.284V413.857V411.427V409V406.57V404.143V401.713V399.287V396.857V394.43V392H188.043Z" fill="#42D405"/>
<path d="M226.016 392H223.562H221.105H218.648H216.194H213.737V394.43V396.857V399.287V401.713V404.143V406.57V409V411.427V413.857V416.284H216.194H218.648H221.105H223.562H226.016H228.473H230.927V413.857V411.427V409V406.57V404.143V401.713V399.287V396.857V394.43V392H228.473H226.016Z" fill="#42D405"/>
<path d="M248.117 392H245.66H243.206H240.749H238.295H235.838H233.384V394.43V396.857V399.287V401.713V404.143V406.57V409V411.427V413.857V416.284H235.838H238.295H240.749H243.206H245.66H248.117H250.571V413.857V411.427V409V406.57V404.143V401.713V399.287V396.857V394.43V392H248.117Z" fill="#42D405"/>
<path d="M66.758 392H64.3009H61.847H59.39H56.936H54.479H52.0219V394.43V396.857V399.287V401.713V404.143V406.57V409V411.427V413.857V416.284V418.713V421.14V423.57V426H54.479H56.936H59.39H61.847H64.3009H66.758H69.2119V423.57V421.14V418.713V416.284V413.857V411.427V409V406.57V404.143V401.713V399.287V396.857V394.43V392H66.758Z" fill="#42D405"/>
<path d="M71.669 393.215C71.669 392.544 71.1189 392 70.4404 392C69.7619 392 69.2119 392.544 69.2119 393.215C69.2119 393.886 69.7619 394.43 70.4404 394.43C71.1189 394.43 71.669 393.886 71.669 393.215Z" fill="#42D405"/>
<path d="M71.669 395.645C71.669 394.974 71.1189 394.43 70.4404 394.43C69.7619 394.43 69.2119 394.974 69.2119 395.645C69.2119 396.316 69.7619 396.86 70.4404 396.86C71.1189 396.86 71.669 396.316 71.669 395.645Z" fill="#42D405"/>
<path d="M71.669 398.072C71.669 397.401 71.1189 396.857 70.4404 396.857C69.7619 396.857 69.2119 397.401 69.2119 398.072C69.2119 398.743 69.7619 399.287 70.4404 399.287C71.1189 399.287 71.669 398.743 71.669 398.072Z" fill="#42D405"/>
<path d="M74.126 393.215C74.126 392.544 73.576 392 72.8975 392C72.219 392 71.6689 392.544 71.6689 393.215C71.6689 393.886 72.219 394.43 72.8975 394.43C73.576 394.43 74.126 393.886 74.126 393.215Z" fill="#42D405"/>
<path d="M74.126 395.645C74.126 394.974 73.576 394.43 72.8975 394.43C72.219 394.43 71.6689 394.974 71.6689 395.645C71.6689 396.316 72.219 396.86 72.8975 396.86C73.576 396.86 74.126 396.316 74.126 395.645Z" fill="#42D405"/>
<path d="M74.126 398.072C74.126 397.401 73.576 396.857 72.8975 396.857C72.219 396.857 71.6689 397.401 71.6689 398.072C71.6689 398.743 72.219 399.287 72.8975 399.287C73.576 399.287 74.126 398.743 74.126 398.072Z" fill="#42D405"/>
<path d="M76.5799 393.215C76.5799 392.544 76.0299 392 75.3514 392C74.6729 392 74.1229 392.544 74.1229 393.215C74.1229 393.886 74.6729 394.43 75.3514 394.43C76.0299 394.43 76.5799 393.886 76.5799 393.215Z" fill="#42D405"/>
<path d="M76.5799 395.645C76.5799 394.974 76.0299 394.43 75.3514 394.43C74.6729 394.43 74.1229 394.974 74.1229 395.645C74.1229 396.316 74.6729 396.86 75.3514 396.86C76.0299 396.86 76.5799 396.316 76.5799 395.645Z" fill="#42D405"/>
<path d="M76.5799 398.072C76.5799 397.401 76.0299 396.857 75.3514 396.857C74.6729 396.857 74.1229 397.401 74.1229 398.072C74.1229 398.743 74.6729 399.287 75.3514 399.287C76.0299 399.287 76.5799 398.743 76.5799 398.072Z" fill="#42D405"/>
<path d="M79.037 393.215C79.037 392.544 78.4869 392 77.8084 392C77.13 392 76.5799 392.544 76.5799 393.215C76.5799 393.886 77.13 394.43 77.8084 394.43C78.4869 394.43 79.037 393.886 79.037 393.215Z" fill="#42D405"/>
<path d="M79.037 395.645C79.037 394.974 78.4869 394.43 77.8084 394.43C77.13 394.43 76.5799 394.974 76.5799 395.645C76.5799 396.316 77.13 396.86 77.8084 396.86C78.4869 396.86 79.037 396.316 79.037 395.645Z" fill="#42D405"/>
<path d="M79.037 398.072C79.037 397.401 78.4869 396.857 77.8084 396.857C77.13 396.857 76.5799 397.401 76.5799 398.072C76.5799 398.743 77.13 399.287 77.8084 399.287C78.4869 399.287 79.037 398.743 79.037 398.072Z" fill="#42D405"/>
<path d="M81.4909 393.215C81.4909 392.544 80.9409 392 80.2624 392C79.5839 392 79.0339 392.544 79.0339 393.215C79.0339 393.886 79.5839 394.43 80.2624 394.43C80.9409 394.43 81.4909 393.886 81.4909 393.215Z" fill="#42D405"/>
<path d="M81.4909 395.645C81.4909 394.974 80.9409 394.43 80.2624 394.43C79.5839 394.43 79.0339 394.974 79.0339 395.645C79.0339 396.316 79.5839 396.86 80.2624 396.86C80.9409 396.86 81.4909 396.316 81.4909 395.645Z" fill="#42D405"/>
<path d="M83.9479 395.645C83.9479 394.974 83.3979 394.43 82.7194 394.43C82.0409 394.43 81.4909 394.974 81.4909 395.645C81.4909 396.316 82.0409 396.86 82.7194 396.86C83.3979 396.86 83.9479 396.316 83.9479 395.645Z" fill="#42D405"/>
<path d="M81.4909 398.072C81.4909 397.401 80.9409 396.857 80.2624 396.857C79.5839 396.857 79.0339 397.401 79.0339 398.072C79.0339 398.743 79.5839 399.287 80.2624 399.287C80.9409 399.287 81.4909 398.743 81.4909 398.072Z" fill="#42D405"/>
<path d="M83.9479 398.072C83.9479 397.401 83.3979 396.857 82.7194 396.857C82.0409 396.857 81.4909 397.401 81.4909 398.072C81.4909 398.743 82.0409 399.287 82.7194 399.287C83.3979 399.287 83.9479 398.743 83.9479 398.072Z" fill="#42D405"/>
<path d="M86.4019 398.072C86.4019 397.401 85.8518 396.857 85.1734 396.857C84.4949 396.857 83.9448 397.401 83.9448 398.072C83.9448 398.743 84.4949 399.287 85.1734 399.287C85.8518 399.287 86.4019 398.743 86.4019 398.072Z" fill="#42D405"/>
<path d="M71.669 400.502C71.669 399.831 71.1189 399.287 70.4404 399.287C69.7619 399.287 69.2119 399.831 69.2119 400.502C69.2119 401.173 69.7619 401.717 70.4404 401.717C71.1189 401.717 71.669 401.173 71.669 400.502Z" fill="#42D405"/>
<path d="M74.126 400.502C74.126 399.831 73.576 399.287 72.8975 399.287C72.219 399.287 71.6689 399.831 71.6689 400.502C71.6689 401.173 72.219 401.717 72.8975 401.717C73.576 401.717 74.126 401.173 74.126 400.502Z" fill="#42D405"/>
<path d="M76.5799 400.502C76.5799 399.831 76.0299 399.287 75.3514 399.287C74.6729 399.287 74.1229 399.831 74.1229 400.502C74.1229 401.173 74.6729 401.717 75.3514 401.717C76.0299 401.717 76.5799 401.173 76.5799 400.502Z" fill="#42D405"/>
<path d="M79.037 400.502C79.037 399.831 78.4869 399.287 77.8084 399.287C77.13 399.287 76.5799 399.831 76.5799 400.502C76.5799 401.173 77.13 401.717 77.8084 401.717C78.4869 401.717 79.037 401.173 79.037 400.502Z" fill="#42D405"/>
<path d="M79.037 402.928C79.037 402.257 78.4869 401.713 77.8084 401.713C77.13 401.713 76.5799 402.257 76.5799 402.928C76.5799 403.599 77.13 404.143 77.8084 404.143C78.4869 404.143 79.037 403.599 79.037 402.928Z" fill="#42D405"/>
<path d="M79.037 405.358C79.037 404.687 78.4869 404.143 77.8084 404.143C77.13 404.143 76.5799 404.687 76.5799 405.358C76.5799 406.029 77.13 406.573 77.8084 406.573C78.4869 406.573 79.037 406.029 79.037 405.358Z" fill="#42D405"/>
<path d="M79.037 407.785C79.037 407.114 78.4869 406.57 77.8084 406.57C77.13 406.57 76.5799 407.114 76.5799 407.785C76.5799 408.456 77.13 409 77.8084 409C78.4869 409 79.037 408.456 79.037 407.785Z" fill="#42D405"/>
<path d="M79.037 410.215C79.037 409.544 78.4869 409 77.8084 409C77.13 409 76.5799 409.544 76.5799 410.215C76.5799 410.886 77.13 411.43 77.8084 411.43C78.4869 411.43 79.037 410.886 79.037 410.215Z" fill="#42D405"/>
<path d="M79.037 412.642C79.037 411.971 78.4869 411.427 77.8084 411.427C77.13 411.427 76.5799 411.971 76.5799 412.642C76.5799 413.313 77.13 413.857 77.8084 413.857C78.4869 413.857 79.037 413.313 79.037 412.642Z" fill="#42D405"/>
<path d="M79.037 415.072C79.037 414.401 78.4869 413.857 77.8084 413.857C77.13 413.857 76.5799 414.401 76.5799 415.072C76.5799 415.743 77.13 416.287 77.8084 416.287C78.4869 416.287 79.037 415.743 79.037 415.072Z" fill="#42D405"/>
<path d="M79.037 417.499C79.037 416.828 78.4869 416.284 77.8084 416.284C77.13 416.284 76.5799 416.828 76.5799 417.499C76.5799 418.17 77.13 418.713 77.8084 418.713C78.4869 418.713 79.037 418.17 79.037 417.499Z" fill="#42D405"/>
<path d="M76.5799 402.928C76.5799 402.257 76.0299 401.713 75.3514 401.713C74.6729 401.713 74.1229 402.257 74.1229 402.928C74.1229 403.599 74.6729 404.143 75.3514 404.143C76.0299 404.143 76.5799 403.599 76.5799 402.928Z" fill="#42D405"/>
<path d="M76.5799 405.358C76.5799 404.687 76.0299 404.143 75.3514 404.143C74.6729 404.143 74.1229 404.687 74.1229 405.358C74.1229 406.029 74.6729 406.573 75.3514 406.573C76.0299 406.573 76.5799 406.029 76.5799 405.358Z" fill="#42D405"/>
<path d="M76.5799 407.785C76.5799 407.114 76.0299 406.57 75.3514 406.57C74.6729 406.57 74.1229 407.114 74.1229 407.785C74.1229 408.456 74.6729 409 75.3514 409C76.0299 409 76.5799 408.456 76.5799 407.785Z" fill="#42D405"/>
<path d="M76.5799 410.215C76.5799 409.544 76.0299 409 75.3514 409C74.6729 409 74.1229 409.544 74.1229 410.215C74.1229 410.886 74.6729 411.43 75.3514 411.43C76.0299 411.43 76.5799 410.886 76.5799 410.215Z" fill="#42D405"/>
<path d="M76.5799 412.642C76.5799 411.971 76.0299 411.427 75.3514 411.427C74.6729 411.427 74.1229 411.971 74.1229 412.642C74.1229 413.313 74.6729 413.857 75.3514 413.857C76.0299 413.857 76.5799 413.313 76.5799 412.642Z" fill="#42D405"/>
<path d="M76.5799 415.072C76.5799 414.401 76.0299 413.857 75.3514 413.857C74.6729 413.857 74.1229 414.401 74.1229 415.072C74.1229 415.743 74.6729 416.287 75.3514 416.287C76.0299 416.287 76.5799 415.743 76.5799 415.072Z" fill="#42D405"/>
<path d="M76.5799 417.499C76.5799 416.828 76.0299 416.284 75.3514 416.284C74.6729 416.284 74.1229 416.828 74.1229 417.499C74.1229 418.17 74.6729 418.713 75.3514 418.713C76.0299 418.713 76.5799 418.17 76.5799 417.499Z" fill="#42D405"/>
<path d="M74.126 402.928C74.126 402.257 73.576 401.713 72.8975 401.713C72.219 401.713 71.6689 402.257 71.6689 402.928C71.6689 403.599 72.219 404.143 72.8975 404.143C73.576 404.143 74.126 403.599 74.126 402.928Z" fill="#42D405"/>
<path d="M74.126 405.358C74.126 404.687 73.576 404.143 72.8975 404.143C72.219 404.143 71.6689 404.687 71.6689 405.358C71.6689 406.029 72.219 406.573 72.8975 406.573C73.576 406.573 74.126 406.029 74.126 405.358Z" fill="#42D405"/>
<path d="M74.126 407.785C74.126 407.114 73.576 406.57 72.8975 406.57C72.219 406.57 71.6689 407.114 71.6689 407.785C71.6689 408.456 72.219 409 72.8975 409C73.576 409 74.126 408.456 74.126 407.785Z" fill="#42D405"/>
<path d="M74.126 410.215C74.126 409.544 73.576 409 72.8975 409C72.219 409 71.6689 409.544 71.6689 410.215C71.6689 410.886 72.219 411.43 72.8975 411.43C73.576 411.43 74.126 410.886 74.126 410.215Z" fill="#42D405"/>
<path d="M74.126 412.642C74.126 411.971 73.576 411.427 72.8975 411.427C72.219 411.427 71.6689 411.971 71.6689 412.642C71.6689 413.313 72.219 413.857 72.8975 413.857C73.576 413.857 74.126 413.313 74.126 412.642Z" fill="#42D405"/>
<path d="M74.126 415.072C74.126 414.401 73.576 413.857 72.8975 413.857C72.219 413.857 71.6689 414.401 71.6689 415.072C71.6689 415.743 72.219 416.287 72.8975 416.287C73.576 416.287 74.126 415.743 74.126 415.072Z" fill="#42D405"/>
<path d="M74.126 417.499C74.126 416.828 73.576 416.284 72.8975 416.284C72.219 416.284 71.6689 416.828 71.6689 417.499C71.6689 418.17 72.219 418.713 72.8975 418.713C73.576 418.713 74.126 418.17 74.126 417.499Z" fill="#42D405"/>
<path d="M81.4909 400.502C81.4909 399.831 80.9409 399.287 80.2624 399.287C79.5839 399.287 79.0339 399.831 79.0339 400.502C79.0339 401.173 79.5839 401.717 80.2624 401.717C80.9409 401.717 81.4909 401.173 81.4909 400.502Z" fill="#42D405"/>
<path d="M81.4909 402.928C81.4909 402.257 80.9409 401.713 80.2624 401.713C79.5839 401.713 79.0339 402.257 79.0339 402.928C79.0339 403.599 79.5839 404.143 80.2624 404.143C80.9409 404.143 81.4909 403.599 81.4909 402.928Z" fill="#42D405"/>
<path d="M81.4909 405.358C81.4909 404.687 80.9409 404.143 80.2624 404.143C79.5839 404.143 79.0339 404.687 79.0339 405.358C79.0339 406.029 79.5839 406.573 80.2624 406.573C80.9409 406.573 81.4909 406.029 81.4909 405.358Z" fill="#42D405"/>
<path d="M81.4909 407.785C81.4909 407.114 80.9409 406.57 80.2624 406.57C79.5839 406.57 79.0339 407.114 79.0339 407.785C79.0339 408.456 79.5839 409 80.2624 409C80.9409 409 81.4909 408.456 81.4909 407.785Z" fill="#42D405"/>
<path d="M81.4909 410.215C81.4909 409.544 80.9409 409 80.2624 409C79.5839 409 79.0339 409.544 79.0339 410.215C79.0339 410.886 79.5839 411.43 80.2624 411.43C80.9409 411.43 81.4909 410.886 81.4909 410.215Z" fill="#42D405"/>
<path d="M81.4909 412.642C81.4909 411.971 80.9409 411.427 80.2624 411.427C79.5839 411.427 79.0339 411.971 79.0339 412.642C79.0339 413.313 79.5839 413.857 80.2624 413.857C80.9409 413.857 81.4909 413.313 81.4909 412.642Z" fill="#42D405"/>
<path d="M81.4909 415.072C81.4909 414.401 80.9409 413.857 80.2624 413.857C79.5839 413.857 79.0339 414.401 79.0339 415.072C79.0339 415.743 79.5839 416.287 80.2624 416.287C80.9409 416.287 81.4909 415.743 81.4909 415.072Z" fill="#42D405"/>
<path d="M81.4909 417.499C81.4909 416.828 80.9409 416.284 80.2624 416.284C79.5839 416.284 79.0339 416.828 79.0339 417.499C79.0339 418.17 79.5839 418.713 80.2624 418.713C80.9409 418.713 81.4909 418.17 81.4909 417.499Z" fill="#42D405"/>
<path d="M83.9479 400.502C83.9479 399.831 83.3979 399.287 82.7194 399.287C82.0409 399.287 81.4909 399.831 81.4909 400.502C81.4909 401.173 82.0409 401.717 82.7194 401.717C83.3979 401.717 83.9479 401.173 83.9479 400.502Z" fill="#42D405"/>
<path d="M83.9479 402.928C83.9479 402.257 83.3979 401.713 82.7194 401.713C82.0409 401.713 81.4909 402.257 81.4909 402.928C81.4909 403.599 82.0409 404.143 82.7194 404.143C83.3979 404.143 83.9479 403.599 83.9479 402.928Z" fill="#42D405"/>
<path d="M83.9479 405.358C83.9479 404.687 83.3979 404.143 82.7194 404.143C82.0409 404.143 81.4909 404.687 81.4909 405.358C81.4909 406.029 82.0409 406.573 82.7194 406.573C83.3979 406.573 83.9479 406.029 83.9479 405.358Z" fill="#42D405"/>
<path d="M83.9479 407.785C83.9479 407.114 83.3979 406.57 82.7194 406.57C82.0409 406.57 81.4909 407.114 81.4909 407.785C81.4909 408.456 82.0409 409 82.7194 409C83.3979 409 83.9479 408.456 83.9479 407.785Z" fill="#42D405"/>
<path d="M83.9479 410.215C83.9479 409.544 83.3979 409 82.7194 409C82.0409 409 81.4909 409.544 81.4909 410.215C81.4909 410.886 82.0409 411.43 82.7194 411.43C83.3979 411.43 83.9479 410.886 83.9479 410.215Z" fill="#42D405"/>
<path d="M83.9479 412.642C83.9479 411.971 83.3979 411.427 82.7194 411.427C82.0409 411.427 81.4909 411.971 81.4909 412.642C81.4909 413.313 82.0409 413.857 82.7194 413.857C83.3979 413.857 83.9479 413.313 83.9479 412.642Z" fill="#42D405"/>
<path d="M83.9479 415.072C83.9479 414.401 83.3979 413.857 82.7194 413.857C82.0409 413.857 81.4909 414.401 81.4909 415.072C81.4909 415.743 82.0409 416.287 82.7194 416.287C83.3979 416.287 83.9479 415.743 83.9479 415.072Z" fill="#42D405"/>
<path d="M83.9479 417.499C83.9479 416.828 83.3979 416.284 82.7194 416.284C82.0409 416.284 81.4909 416.828 81.4909 417.499C81.4909 418.17 82.0409 418.713 82.7194 418.713C83.3979 418.713 83.9479 418.17 83.9479 417.499Z" fill="#42D405"/>
<path d="M86.4019 400.502C86.4019 399.831 85.8518 399.287 85.1734 399.287C84.4949 399.287 83.9448 399.831 83.9448 400.502C83.9448 401.173 84.4949 401.717 85.1734 401.717C85.8518 401.717 86.4019 401.173 86.4019 400.502Z" fill="#42D405"/>
<path d="M86.4019 402.928C86.4019 402.257 85.8518 401.713 85.1734 401.713C84.4949 401.713 83.9448 402.257 83.9448 402.928C83.9448 403.599 84.4949 404.143 85.1734 404.143C85.8518 404.143 86.4019 403.599 86.4019 402.928Z" fill="#42D405"/>
<path d="M86.4019 405.358C86.4019 404.687 85.8518 404.143 85.1734 404.143C84.4949 404.143 83.9448 404.687 83.9448 405.358C83.9448 406.029 84.4949 406.573 85.1734 406.573C85.8518 406.573 86.4019 406.029 86.4019 405.358Z" fill="#42D405"/>
<path d="M86.4019 407.785C86.4019 407.114 85.8518 406.57 85.1734 406.57C84.4949 406.57 83.9448 407.114 83.9448 407.785C83.9448 408.456 84.4949 409 85.1734 409C85.8518 409 86.4019 408.456 86.4019 407.785Z" fill="#42D405"/>
<path d="M86.4019 410.215C86.4019 409.544 85.8518 409 85.1734 409C84.4949 409 83.9448 409.544 83.9448 410.215C83.9448 410.886 84.4949 411.43 85.1734 411.43C85.8518 411.43 86.4019 410.886 86.4019 410.215Z" fill="#42D405"/>
<path d="M86.4019 412.642C86.4019 411.971 85.8518 411.427 85.1734 411.427C84.4949 411.427 83.9448 411.971 83.9448 412.642C83.9448 413.313 84.4949 413.857 85.1734 413.857C85.8518 413.857 86.4019 413.313 86.4019 412.642Z" fill="#42D405"/>
<path d="M86.4019 415.072C86.4019 414.401 85.8518 413.857 85.1734 413.857C84.4949 413.857 83.9448 414.401 83.9448 415.072C83.9448 415.743 84.4949 416.287 85.1734 416.287C85.8518 416.287 86.4019 415.743 86.4019 415.072Z" fill="#42D405"/>
<path d="M86.4019 417.499C86.4019 416.828 85.8518 416.284 85.1734 416.284C84.4949 416.284 83.9448 416.828 83.9448 417.499C83.9448 418.17 84.4949 418.713 85.1734 418.713C85.8518 418.713 86.4019 418.17 86.4019 417.499Z" fill="#42D405"/>
<path d="M79.037 419.928C79.037 419.257 78.4869 418.713 77.8084 418.713C77.13 418.713 76.5799 419.257 76.5799 419.928C76.5799 420.599 77.13 421.143 77.8084 421.143C78.4869 421.143 79.037 420.599 79.037 419.928Z" fill="#42D405"/>
<path d="M81.4909 419.928C81.4909 419.257 80.9409 418.713 80.2624 418.713C79.5839 418.713 79.0339 419.257 79.0339 419.928C79.0339 420.599 79.5839 421.143 80.2624 421.143C80.9409 421.143 81.4909 420.599 81.4909 419.928Z" fill="#42D405"/>
<path d="M83.9479 419.928C83.9479 419.257 83.3979 418.713 82.7194 418.713C82.0409 418.713 81.4909 419.257 81.4909 419.928C81.4909 420.599 82.0409 421.143 82.7194 421.143C83.3979 421.143 83.9479 420.599 83.9479 419.928Z" fill="#42D405"/>
<path d="M79.037 422.355C79.037 421.684 78.4869 421.14 77.8084 421.14C77.13 421.14 76.5799 421.684 76.5799 422.355C76.5799 423.026 77.13 423.57 77.8084 423.57C78.4869 423.57 79.037 423.026 79.037 422.355Z" fill="#42D405"/>
<path d="M81.4909 422.355C81.4909 421.684 80.9409 421.14 80.2624 421.14C79.5839 421.14 79.0339 421.684 79.0339 422.355C79.0339 423.026 79.5839 423.57 80.2624 423.57C80.9409 423.57 81.4909 423.026 81.4909 422.355Z" fill="#42D405"/>
<path d="M79.037 424.785C79.037 424.114 78.4869 423.57 77.8084 423.57C77.13 423.57 76.5799 424.114 76.5799 424.785C76.5799 425.456 77.13 426 77.8084 426C78.4869 426 79.037 425.456 79.037 424.785Z" fill="#42D405"/>
<path d="M81.4909 424.785C81.4909 424.114 80.9409 423.57 80.2624 423.57C79.5839 423.57 79.0339 424.114 79.0339 424.785C79.0339 425.456 79.5839 426 80.2624 426C80.9409 426 81.4909 425.456 81.4909 424.785Z" fill="#42D405"/>
<path d="M83.9479 422.355C83.9479 421.684 83.3979 421.14 82.7194 421.14C82.0409 421.14 81.4909 421.684 81.4909 422.355C81.4909 423.026 82.0409 423.57 82.7194 423.57C83.3979 423.57 83.9479 423.026 83.9479 422.355Z" fill="#42D405"/>
<path d="M86.4019 419.928C86.4019 419.257 85.8518 418.713 85.1734 418.713C84.4949 418.713 83.9448 419.257 83.9448 419.928C83.9448 420.599 84.4949 421.143 85.1734 421.143C85.8518 421.143 86.4019 420.599 86.4019 419.928Z" fill="#42D405"/>
<path d="M88.8589 400.502C88.8589 399.831 88.3089 399.287 87.6304 399.287C86.9519 399.287 86.4019 399.831 86.4019 400.502C86.4019 401.173 86.9519 401.717 87.6304 401.717C88.3089 401.717 88.8589 401.173 88.8589 400.502Z" fill="#42D405"/>
<path d="M88.8589 402.928C88.8589 402.257 88.3089 401.713 87.6304 401.713C86.9519 401.713 86.4019 402.257 86.4019 402.928C86.4019 403.599 86.9519 404.143 87.6304 404.143C88.3089 404.143 88.8589 403.599 88.8589 402.928Z" fill="#42D405"/>
<path d="M88.8589 405.358C88.8589 404.687 88.3089 404.143 87.6304 404.143C86.9519 404.143 86.4019 404.687 86.4019 405.358C86.4019 406.029 86.9519 406.573 87.6304 406.573C88.3089 406.573 88.8589 406.029 88.8589 405.358Z" fill="#42D405"/>
<path d="M88.8589 407.785C88.8589 407.114 88.3089 406.57 87.6304 406.57C86.9519 406.57 86.4019 407.114 86.4019 407.785C86.4019 408.456 86.9519 409 87.6304 409C88.3089 409 88.8589 408.456 88.8589 407.785Z" fill="#42D405"/>
<path d="M88.8589 410.215C88.8589 409.544 88.3089 409 87.6304 409C86.9519 409 86.4019 409.544 86.4019 410.215C86.4019 410.886 86.9519 411.43 87.6304 411.43C88.3089 411.43 88.8589 410.886 88.8589 410.215Z" fill="#42D405"/>
<path d="M88.8589 412.642C88.8589 411.971 88.3089 411.427 87.6304 411.427C86.9519 411.427 86.4019 411.971 86.4019 412.642C86.4019 413.313 86.9519 413.857 87.6304 413.857C88.3089 413.857 88.8589 413.313 88.8589 412.642Z" fill="#42D405"/>
<path d="M88.8589 415.072C88.8589 414.401 88.3089 413.857 87.6304 413.857C86.9519 413.857 86.4019 414.401 86.4019 415.072C86.4019 415.743 86.9519 416.287 87.6304 416.287C88.3089 416.287 88.8589 415.743 88.8589 415.072Z" fill="#42D405"/>
<path d="M88.8589 417.499C88.8589 416.828 88.3089 416.284 87.6304 416.284C86.9519 416.284 86.4019 416.828 86.4019 417.499C86.4019 418.17 86.9519 418.713 87.6304 418.713C88.3089 418.713 88.8589 418.17 88.8589 417.499Z" fill="#42D405"/>
<path d="M71.669 419.928C71.669 419.257 71.1189 418.713 70.4404 418.713C69.7619 418.713 69.2119 419.257 69.2119 419.928C69.2119 420.599 69.7619 421.143 70.4404 421.143C71.1189 421.143 71.669 420.599 71.669 419.928Z" fill="#42D405"/>
<path d="M71.669 417.499C71.669 416.828 71.1189 416.284 70.4404 416.284C69.7619 416.284 69.2119 416.828 69.2119 417.499C69.2119 418.17 69.7619 418.713 70.4404 418.713C71.1189 418.713 71.669 418.17 71.669 417.499Z" fill="#42D405"/>
<path d="M71.669 422.355C71.669 421.684 71.1189 421.14 70.4404 421.14C69.7619 421.14 69.2119 421.684 69.2119 422.355C69.2119 423.026 69.7619 423.57 70.4404 423.57C71.1189 423.57 71.669 423.026 71.669 422.355Z" fill="#42D405"/>
<path d="M71.669 424.785C71.669 424.114 71.1189 423.57 70.4404 423.57C69.7619 423.57 69.2119 424.114 69.2119 424.785C69.2119 425.456 69.7619 426 70.4404 426C71.1189 426 71.669 425.456 71.669 424.785Z" fill="#42D405"/>
<path d="M74.126 419.928C74.126 419.257 73.576 418.713 72.8975 418.713C72.219 418.713 71.6689 419.257 71.6689 419.928C71.6689 420.599 72.219 421.143 72.8975 421.143C73.576 421.143 74.126 420.599 74.126 419.928Z" fill="#42D405"/>
<path d="M74.126 422.355C74.126 421.684 73.576 421.14 72.8975 421.14C72.219 421.14 71.6689 421.684 71.6689 422.355C71.6689 423.026 72.219 423.57 72.8975 423.57C73.576 423.57 74.126 423.026 74.126 422.355Z" fill="#42D405"/>
<path d="M74.126 424.785C74.126 424.114 73.576 423.57 72.8975 423.57C72.219 423.57 71.6689 424.114 71.6689 424.785C71.6689 425.456 72.219 426 72.8975 426C73.576 426 74.126 425.456 74.126 424.785Z" fill="#42D405"/>
<path d="M76.5799 419.928C76.5799 419.257 76.0299 418.713 75.3514 418.713C74.6729 418.713 74.1229 419.257 74.1229 419.928C74.1229 420.599 74.6729 421.143 75.3514 421.143C76.0299 421.143 76.5799 420.599 76.5799 419.928Z" fill="#42D405"/>
<path d="M76.5799 422.355C76.5799 421.684 76.0299 421.14 75.3514 421.14C74.6729 421.14 74.1229 421.684 74.1229 422.355C74.1229 423.026 74.6729 423.57 75.3514 423.57C76.0299 423.57 76.5799 423.026 76.5799 422.355Z" fill="#42D405"/>
<path d="M76.5799 424.785C76.5799 424.114 76.0299 423.57 75.3514 423.57C74.6729 423.57 74.1229 424.114 74.1229 424.785C74.1229 425.456 74.6729 426 75.3514 426C76.0299 426 76.5799 425.456 76.5799 424.785Z" fill="#42D405"/>
<path d="M17.8251 395.645C17.8251 394.974 17.275 394.43 16.5965 394.43C15.918 394.43 15.368 394.974 15.368 395.645C15.368 396.316 15.918 396.86 16.5965 396.86C17.275 396.86 17.8251 396.316 17.8251 395.645Z" fill="#42D405"/>
<path d="M17.8251 398.072C17.8251 397.401 17.275 396.857 16.5965 396.857C15.918 396.857 15.368 397.401 15.368 398.072C15.368 398.743 15.918 399.287 16.5965 399.287C17.275 399.287 17.8251 398.743 17.8251 398.072Z" fill="#42D405"/>
<path d="M17.8251 400.502C17.8251 399.831 17.275 399.287 16.5965 399.287C15.918 399.287 15.368 399.831 15.368 400.502C15.368 401.173 15.918 401.717 16.5965 401.717C17.275 401.717 17.8251 401.173 17.8251 400.502Z" fill="#42D405"/>
<path d="M17.8251 402.928C17.8251 402.257 17.275 401.714 16.5965 401.714C15.918 401.714 15.368 402.257 15.368 402.928C15.368 403.599 15.918 404.143 16.5965 404.143C17.275 404.143 17.8251 403.599 17.8251 402.928Z" fill="#42D405"/>
<path d="M15.368 395.645C15.368 394.974 14.818 394.43 14.1395 394.43C13.461 394.43 12.911 394.974 12.911 395.645C12.911 396.316 13.461 396.86 14.1395 396.86C14.818 396.86 15.368 396.316 15.368 395.645Z" fill="#42D405"/>
<path d="M15.368 398.072C15.368 397.401 14.818 396.857 14.1395 396.857C13.461 396.857 12.911 397.401 12.911 398.072C12.911 398.743 13.461 399.287 14.1395 399.287C14.818 399.287 15.368 398.743 15.368 398.072Z" fill="#42D405"/>
<path d="M15.368 400.502C15.368 399.831 14.818 399.287 14.1395 399.287C13.461 399.287 12.911 399.831 12.911 400.502C12.911 401.173 13.461 401.717 14.1395 401.717C14.818 401.717 15.368 401.173 15.368 400.502Z" fill="#42D405"/>
<path d="M15.368 402.928C15.368 402.257 14.818 401.714 14.1395 401.714C13.461 401.714 12.911 402.257 12.911 402.928C12.911 403.599 13.461 404.143 14.1395 404.143C14.818 404.143 15.368 403.599 15.368 402.928Z" fill="#42D405"/>
<path d="M17.8251 419.928C17.8251 419.257 17.275 418.714 16.5965 418.714C15.918 418.714 15.368 419.257 15.368 419.928C15.368 420.599 15.918 421.143 16.5965 421.143C17.275 421.143 17.8251 420.599 17.8251 419.928Z" fill="#42D405"/>
<path d="M17.8251 422.355C17.8251 421.684 17.275 421.14 16.5965 421.14C15.918 421.14 15.368 421.684 15.368 422.355C15.368 423.026 15.918 423.57 16.5965 423.57C17.275 423.57 17.8251 423.026 17.8251 422.355Z" fill="#42D405"/>
<path d="M17.8251 417.499C17.8251 416.828 17.275 416.284 16.5965 416.284C15.918 416.284 15.368 416.828 15.368 417.499C15.368 418.17 15.918 418.713 16.5965 418.713C17.275 418.713 17.8251 418.17 17.8251 417.499Z" fill="#42D405"/>
<path d="M17.8251 415.072C17.8251 414.401 17.275 413.857 16.5965 413.857C15.918 413.857 15.368 414.401 15.368 415.072C15.368 415.743 15.918 416.287 16.5965 416.287C17.275 416.287 17.8251 415.743 17.8251 415.072Z" fill="#42D405"/>
<path d="M15.368 419.928C15.368 419.257 14.818 418.714 14.1395 418.714C13.461 418.714 12.911 419.257 12.911 419.928C12.911 420.599 13.461 421.143 14.1395 421.143C14.818 421.143 15.368 420.599 15.368 419.928Z" fill="#42D405"/>
<path d="M15.368 422.355C15.368 421.684 14.818 421.14 14.1395 421.14C13.461 421.14 12.911 421.684 12.911 422.355C12.911 423.026 13.461 423.57 14.1395 423.57C14.818 423.57 15.368 423.026 15.368 422.355Z" fill="#42D405"/>
<path d="M15.368 417.499C15.368 416.828 14.818 416.284 14.1395 416.284C13.461 416.284 12.911 416.828 12.911 417.499C12.911 418.17 13.461 418.713 14.1395 418.713C14.818 418.713 15.368 418.17 15.368 417.499Z" fill="#42D405"/>
<path d="M15.368 415.072C15.368 414.401 14.818 413.857 14.1395 413.857C13.461 413.857 12.911 414.401 12.911 415.072C12.911 415.743 13.461 416.287 14.1395 416.287C14.818 416.287 15.368 415.743 15.368 415.072Z" fill="#42D405"/>
<path d="M12.9141 395.645C12.9141 394.974 12.3641 394.43 11.6856 394.43C11.0071 394.43 10.457 394.974 10.457 395.645C10.457 396.316 11.0071 396.86 11.6856 396.86C12.3641 396.86 12.9141 396.316 12.9141 395.645Z" fill="#42D405"/>
<path d="M12.9141 398.072C12.9141 397.401 12.3641 396.857 11.6856 396.857C11.0071 396.857 10.457 397.401 10.457 398.072C10.457 398.743 11.0071 399.287 11.6856 399.287C12.3641 399.287 12.9141 398.743 12.9141 398.072Z" fill="#42D405"/>
<path d="M12.9141 400.502C12.9141 399.831 12.3641 399.287 11.6856 399.287C11.0071 399.287 10.457 399.831 10.457 400.502C10.457 401.173 11.0071 401.717 11.6856 401.717C12.3641 401.717 12.9141 401.173 12.9141 400.502Z" fill="#42D405"/>
<path d="M12.9141 402.928C12.9141 402.257 12.3641 401.714 11.6856 401.714C11.0071 401.714 10.457 402.257 10.457 402.928C10.457 403.599 11.0071 404.143 11.6856 404.143C12.3641 404.143 12.9141 403.599 12.9141 402.928Z" fill="#42D405"/>
<path d="M12.9141 419.928C12.9141 419.257 12.3641 418.714 11.6856 418.714C11.0071 418.714 10.457 419.257 10.457 419.928C10.457 420.599 11.0071 421.143 11.6856 421.143C12.3641 421.143 12.9141 420.599 12.9141 419.928Z" fill="#42D405"/>
<path d="M12.9141 422.355C12.9141 421.684 12.3641 421.14 11.6856 421.14C11.0071 421.14 10.457 421.684 10.457 422.355C10.457 423.026 11.0071 423.57 11.6856 423.57C12.3641 423.57 12.9141 423.026 12.9141 422.355Z" fill="#42D405"/>
<path d="M12.9141 417.499C12.9141 416.828 12.3641 416.284 11.6856 416.284C11.0071 416.284 10.457 416.828 10.457 417.499C10.457 418.17 11.0071 418.713 11.6856 418.713C12.3641 418.713 12.9141 418.17 12.9141 417.499Z" fill="#42D405"/>
<path d="M12.9141 415.072C12.9141 414.401 12.3641 413.857 11.6856 413.857C11.0071 413.857 10.457 414.401 10.457 415.072C10.457 415.743 11.0071 416.287 11.6856 416.287C12.3641 416.287 12.9141 415.743 12.9141 415.072Z" fill="#42D405"/>
<path d="M10.457 395.645C10.457 394.974 9.90701 394.43 9.22852 394.43C8.55003 394.43 8 394.974 8 395.645C8 396.316 8.55003 396.86 9.22852 396.86C9.90701 396.86 10.457 396.316 10.457 395.645Z" fill="#42D405"/>
<path d="M10.457 398.072C10.457 397.401 9.90701 396.857 9.22852 396.857C8.55003 396.857 8 397.401 8 398.072C8 398.743 8.55003 399.287 9.22852 399.287C9.90701 399.287 10.457 398.743 10.457 398.072Z" fill="#42D405"/>
<path d="M10.457 400.502C10.457 399.831 9.90701 399.287 9.22852 399.287C8.55003 399.287 8 399.831 8 400.502C8 401.173 8.55003 401.717 9.22852 401.717C9.90701 401.717 10.457 401.173 10.457 400.502Z" fill="#42D405"/>
<path d="M10.457 402.928C10.457 402.257 9.90701 401.714 9.22852 401.714C8.55003 401.714 8 402.257 8 402.928C8 403.599 8.55003 404.143 9.22852 404.143C9.90701 404.143 10.457 403.599 10.457 402.928Z" fill="#42D405"/>
<path d="M10.457 419.928C10.457 419.257 9.90701 418.714 9.22852 418.714C8.55003 418.714 8 419.257 8 419.928C8 420.599 8.55003 421.143 9.22852 421.143C9.90701 421.143 10.457 420.599 10.457 419.928Z" fill="#42D405"/>
<path d="M10.457 422.355C10.457 421.684 9.90701 421.14 9.22852 421.14C8.55003 421.14 8 421.684 8 422.355C8 423.026 8.55003 423.57 9.22852 423.57C9.90701 423.57 10.457 423.026 10.457 422.355Z" fill="#42D405"/>
<path d="M10.457 417.499C10.457 416.828 9.90701 416.284 9.22852 416.284C8.55003 416.284 8 416.828 8 417.499C8 418.17 8.55003 418.713 9.22852 418.713C9.90701 418.713 10.457 418.17 10.457 417.499Z" fill="#42D405"/>
<path d="M10.457 415.072C10.457 414.401 9.90701 413.857 9.22852 413.857C8.55003 413.857 8 414.401 8 415.072C8 415.743 8.55003 416.287 9.22852 416.287C9.90701 416.287 10.457 415.743 10.457 415.072Z" fill="#42D405"/>
<path d="M39.9229 399.287V396.857H37.4658V394.43H35.0119V392H32.5549H30.1009H27.6439H25.19H22.7329H20.279H17.8219V394.43V396.857V399.287V401.713V404.143V406.57V409V411.427V413.857V416.284V418.713V421.14V423.57V426H20.279H22.7329H25.19H27.6439H30.1009H32.5549H35.0119V423.57H37.4658V421.14H39.9229V418.713H42.3799V416.284V413.857V411.427V409V406.57V404.143V401.713V399.287H39.9229Z" fill="#42D405"/>
<path d="M288.543 424.782C288.543 425.453 289.093 425.997 289.772 425.997C290.45 425.997 291 425.453 291 424.782C291 424.111 290.45 423.567 289.772 423.567C289.093 423.567 288.543 424.111 288.543 424.782Z" fill="#42D405"/>
<path d="M288.543 422.355C288.543 423.026 289.093 423.57 289.772 423.57C290.45 423.57 291 423.026 291 422.355C291 421.684 290.45 421.14 289.772 421.14C289.093 421.14 288.543 421.684 288.543 422.355Z" fill="#42D405"/>
<path d="M288.543 419.925C288.543 420.596 289.093 421.14 289.772 421.14C290.45 421.14 291 420.596 291 419.925C291 419.254 290.45 418.71 289.772 418.71C289.093 418.71 288.543 419.254 288.543 419.925Z" fill="#42D405"/>
<path d="M288.543 417.499C288.543 418.17 289.093 418.714 289.772 418.714C290.45 418.714 291 418.17 291 417.499C291 416.828 290.45 416.284 289.772 416.284C289.093 416.284 288.543 416.828 288.543 417.499Z" fill="#42D405"/>
<path d="M288.543 415.069C288.543 415.74 289.093 416.284 289.772 416.284C290.45 416.284 291 415.74 291 415.069C291 414.398 290.45 413.854 289.772 413.854C289.093 413.854 288.543 414.398 288.543 415.069Z" fill="#42D405"/>
<path d="M288.543 412.642C288.543 413.313 289.093 413.857 289.772 413.857C290.45 413.857 291 413.313 291 412.642C291 411.971 290.45 411.427 289.772 411.427C289.093 411.427 288.543 411.971 288.543 412.642Z" fill="#42D405"/>
<path d="M288.543 410.212C288.543 410.883 289.093 411.427 289.772 411.427C290.45 411.427 291 410.883 291 410.212C291 409.541 290.45 408.997 289.772 408.997C289.093 408.997 288.543 409.541 288.543 410.212Z" fill="#42D405"/>
<path d="M288.543 407.785C288.543 408.456 289.093 409 289.772 409C290.45 409 291 408.456 291 407.785C291 407.114 290.45 406.57 289.772 406.57C289.093 406.57 288.543 407.114 288.543 407.785Z" fill="#42D405"/>
<path d="M288.543 405.355C288.543 406.026 289.093 406.57 289.772 406.57C290.45 406.57 291 406.026 291 405.355C291 404.684 290.45 404.14 289.772 404.14C289.093 404.14 288.543 404.684 288.543 405.355Z" fill="#42D405"/>
<path d="M286.089 424.782C286.089 425.453 286.639 425.997 287.318 425.997C287.996 425.997 288.546 425.453 288.546 424.782C288.546 424.111 287.996 423.567 287.318 423.567C286.639 423.567 286.089 424.111 286.089 424.782Z" fill="#42D405"/>
<path d="M286.089 422.355C286.089 423.026 286.639 423.57 287.318 423.57C287.996 423.57 288.546 423.026 288.546 422.355C288.546 421.684 287.996 421.14 287.318 421.14C286.639 421.14 286.089 421.684 286.089 422.355Z" fill="#42D405"/>
<path d="M286.089 419.925C286.089 420.596 286.639 421.14 287.318 421.14C287.996 421.14 288.546 420.596 288.546 419.925C288.546 419.254 287.996 418.71 287.318 418.71C286.639 418.71 286.089 419.254 286.089 419.925Z" fill="#42D405"/>
<path d="M286.089 417.499C286.089 418.17 286.639 418.714 287.318 418.714C287.996 418.714 288.546 418.17 288.546 417.499C288.546 416.828 287.996 416.284 287.318 416.284C286.639 416.284 286.089 416.828 286.089 417.499Z" fill="#42D405"/>
<path d="M286.089 415.069C286.089 415.74 286.639 416.284 287.318 416.284C287.996 416.284 288.546 415.74 288.546 415.069C288.546 414.398 287.996 413.854 287.318 413.854C286.639 413.854 286.089 414.398 286.089 415.069Z" fill="#42D405"/>
<path d="M286.089 412.642C286.089 413.313 286.639 413.857 287.318 413.857C287.996 413.857 288.546 413.313 288.546 412.642C288.546 411.971 287.996 411.427 287.318 411.427C286.639 411.427 286.089 411.971 286.089 412.642Z" fill="#42D405"/>
<path d="M286.089 410.212C286.089 410.883 286.639 411.427 287.318 411.427C287.996 411.427 288.546 410.883 288.546 410.212C288.546 409.541 287.996 408.997 287.318 408.997C286.639 408.997 286.089 409.541 286.089 410.212Z" fill="#42D405"/>
<path d="M286.089 407.785C286.089 408.456 286.639 409 287.318 409C287.996 409 288.546 408.456 288.546 407.785C288.546 407.114 287.996 406.57 287.318 406.57C286.639 406.57 286.089 407.114 286.089 407.785Z" fill="#42D405"/>
<path d="M286.089 405.355C286.089 406.026 286.639 406.57 287.318 406.57C287.996 406.57 288.546 406.026 288.546 405.355C288.546 404.684 287.996 404.14 287.318 404.14C286.639 404.14 286.089 404.684 286.089 405.355Z" fill="#42D405"/>
<path d="M283.632 424.782C283.632 425.453 284.182 425.997 284.861 425.997C285.539 425.997 286.089 425.453 286.089 424.782C286.089 424.111 285.539 423.567 284.861 423.567C284.182 423.567 283.632 424.111 283.632 424.782Z" fill="#42D405"/>
<path d="M283.632 422.355C283.632 423.026 284.182 423.57 284.861 423.57C285.539 423.57 286.089 423.026 286.089 422.355C286.089 421.684 285.539 421.14 284.861 421.14C284.182 421.14 283.632 421.684 283.632 422.355Z" fill="#42D405"/>
<path d="M283.632 419.925C283.632 420.596 284.182 421.14 284.861 421.14C285.539 421.14 286.089 420.596 286.089 419.925C286.089 419.254 285.539 418.71 284.861 418.71C284.182 418.71 283.632 419.254 283.632 419.925Z" fill="#42D405"/>
<path d="M283.632 417.499C283.632 418.17 284.182 418.714 284.861 418.714C285.539 418.714 286.089 418.17 286.089 417.499C286.089 416.828 285.539 416.284 284.861 416.284C284.182 416.284 283.632 416.828 283.632 417.499Z" fill="#42D405"/>
<path d="M283.632 415.069C283.632 415.74 284.182 416.284 284.861 416.284C285.539 416.284 286.089 415.74 286.089 415.069C286.089 414.398 285.539 413.854 284.861 413.854C284.182 413.854 283.632 414.398 283.632 415.069Z" fill="#42D405"/>
<path d="M283.632 412.642C283.632 413.313 284.182 413.857 284.861 413.857C285.539 413.857 286.089 413.313 286.089 412.642C286.089 411.971 285.539 411.427 284.861 411.427C284.182 411.427 283.632 411.971 283.632 412.642Z" fill="#42D405"/>
<path d="M283.632 410.212C283.632 410.883 284.182 411.427 284.861 411.427C285.539 411.427 286.089 410.883 286.089 410.212C286.089 409.541 285.539 408.997 284.861 408.997C284.182 408.997 283.632 409.541 283.632 410.212Z" fill="#42D405"/>
<path d="M283.632 407.785C283.632 408.456 284.182 409 284.861 409C285.539 409 286.089 408.456 286.089 407.785C286.089 407.114 285.539 406.57 284.861 406.57C284.182 406.57 283.632 407.114 283.632 407.785Z" fill="#42D405"/>
<path d="M283.632 405.355C283.632 406.026 284.182 406.57 284.861 406.57C285.539 406.57 286.089 406.026 286.089 405.355C286.089 404.684 285.539 404.14 284.861 404.14C284.182 404.14 283.632 404.684 283.632 405.355Z" fill="#42D405"/>
<path d="M281.178 424.782C281.178 425.453 281.728 425.997 282.407 425.997C283.085 425.997 283.635 425.453 283.635 424.782C283.635 424.111 283.085 423.567 282.407 423.567C281.728 423.567 281.178 424.111 281.178 424.782Z" fill="#42D405"/>
<path d="M281.178 422.355C281.178 423.026 281.728 423.57 282.407 423.57C283.085 423.57 283.635 423.026 283.635 422.355C283.635 421.684 283.085 421.14 282.407 421.14C281.728 421.14 281.178 421.684 281.178 422.355Z" fill="#42D405"/>
<path d="M281.178 419.925C281.178 420.596 281.728 421.14 282.407 421.14C283.085 421.14 283.635 420.596 283.635 419.925C283.635 419.254 283.085 418.71 282.407 418.71C281.728 418.71 281.178 419.254 281.178 419.925Z" fill="#42D405"/>
<path d="M281.178 417.499C281.178 418.17 281.728 418.714 282.407 418.714C283.085 418.714 283.635 418.17 283.635 417.499C283.635 416.828 283.085 416.284 282.407 416.284C281.728 416.284 281.178 416.828 281.178 417.499Z" fill="#42D405"/>
<path d="M281.178 415.069C281.178 415.74 281.728 416.284 282.407 416.284C283.085 416.284 283.635 415.74 283.635 415.069C283.635 414.398 283.085 413.854 282.407 413.854C281.728 413.854 281.178 414.398 281.178 415.069Z" fill="#42D405"/>
<path d="M281.178 412.642C281.178 413.313 281.728 413.857 282.407 413.857C283.085 413.857 283.635 413.313 283.635 412.642C283.635 411.971 283.085 411.427 282.407 411.427C281.728 411.427 281.178 411.971 281.178 412.642Z" fill="#42D405"/>
<path d="M281.178 410.212C281.178 410.883 281.728 411.427 282.407 411.427C283.085 411.427 283.635 410.883 283.635 410.212C283.635 409.541 283.085 408.997 282.407 408.997C281.728 408.997 281.178 409.541 281.178 410.212Z" fill="#42D405"/>
<path d="M281.178 407.785C281.178 408.456 281.728 409 282.407 409C283.085 409 283.635 408.456 283.635 407.785C283.635 407.114 283.085 406.57 282.407 406.57C281.728 406.57 281.178 407.114 281.178 407.785Z" fill="#42D405"/>
<path d="M281.178 405.355C281.178 406.026 281.728 406.57 282.407 406.57C283.085 406.57 283.635 406.026 283.635 405.355C283.635 404.684 283.085 404.14 282.407 404.14C281.728 404.14 281.178 404.684 281.178 405.355Z" fill="#42D405"/>
<path d="M278.724 424.782C278.724 425.453 279.274 425.997 279.953 425.997C280.631 425.997 281.181 425.453 281.181 424.782C281.181 424.111 280.631 423.567 279.953 423.567C279.274 423.567 278.724 424.111 278.724 424.782Z" fill="#42D405"/>
<path d="M278.724 422.355C278.724 423.026 279.274 423.57 279.953 423.57C280.631 423.57 281.181 423.026 281.181 422.355C281.181 421.684 280.631 421.14 279.953 421.14C279.274 421.14 278.724 421.684 278.724 422.355Z" fill="#42D405"/>
<path d="M278.724 419.925C278.724 420.596 279.274 421.14 279.953 421.14C280.631 421.14 281.181 420.596 281.181 419.925C281.181 419.254 280.631 418.71 279.953 418.71C279.274 418.71 278.724 419.254 278.724 419.925Z" fill="#42D405"/>
<path d="M276.264 424.782C276.264 425.453 276.814 425.997 277.493 425.997C278.171 425.997 278.721 425.453 278.721 424.782C278.721 424.111 278.171 423.567 277.493 423.567C276.814 423.567 276.264 424.111 276.264 424.782Z" fill="#42D405"/>
<path d="M276.264 422.355C276.264 423.026 276.814 423.57 277.493 423.57C278.171 423.57 278.721 423.026 278.721 422.355C278.721 421.684 278.171 421.14 277.493 421.14C276.814 421.14 276.264 421.684 276.264 422.355Z" fill="#42D405"/>
<path d="M276.264 419.925C276.264 420.596 276.814 421.14 277.493 421.14C278.171 421.14 278.721 420.596 278.721 419.925C278.721 419.254 278.171 418.71 277.493 418.71C276.814 418.71 276.264 419.254 276.264 419.925Z" fill="#42D405"/>
<path d="M273.81 424.782C273.81 425.453 274.36 425.997 275.039 425.997C275.717 425.997 276.267 425.453 276.267 424.782C276.267 424.111 275.717 423.567 275.039 423.567C274.36 423.567 273.81 424.111 273.81 424.782Z" fill="#42D405"/>
<path d="M273.81 422.355C273.81 423.026 274.36 423.57 275.039 423.57C275.717 423.57 276.267 423.026 276.267 422.355C276.267 421.684 275.717 421.14 275.039 421.14C274.36 421.14 273.81 421.684 273.81 422.355Z" fill="#42D405"/>
<path d="M273.81 419.925C273.81 420.596 274.36 421.14 275.039 421.14C275.717 421.14 276.267 420.596 276.267 419.925C276.267 419.254 275.717 418.71 275.039 418.71C274.36 418.71 273.81 419.254 273.81 419.925Z" fill="#42D405"/>
<path d="M271.353 424.782C271.353 425.453 271.903 425.997 272.582 425.997C273.26 425.997 273.81 425.453 273.81 424.782C273.81 424.111 273.26 423.567 272.582 423.567C271.903 423.567 271.353 424.111 271.353 424.782Z" fill="#42D405"/>
<path d="M271.353 422.355C271.353 423.026 271.903 423.57 272.582 423.57C273.26 423.57 273.81 423.026 273.81 422.355C273.81 421.684 273.26 421.14 272.582 421.14C271.903 421.14 271.353 421.684 271.353 422.355Z" fill="#42D405"/>
<path d="M271.353 419.925C271.353 420.596 271.903 421.14 272.582 421.14C273.26 421.14 273.81 420.596 273.81 419.925C273.81 419.254 273.26 418.71 272.582 418.71C271.903 418.71 271.353 419.254 271.353 419.925Z" fill="#42D405"/>
<path d="M276.264 417.499C276.264 418.17 276.814 418.714 277.493 418.714C278.171 418.714 278.721 418.17 278.721 417.499C278.721 416.828 278.171 416.284 277.493 416.284C276.814 416.284 276.264 416.828 276.264 417.499Z" fill="#42D405"/>
<path d="M273.81 417.499C273.81 418.17 274.36 418.714 275.039 418.714C275.717 418.714 276.267 418.17 276.267 417.499C276.267 416.828 275.717 416.284 275.039 416.284C274.36 416.284 273.81 416.828 273.81 417.499Z" fill="#42D405"/>
<path d="M271.353 417.499C271.353 418.17 271.903 418.714 272.582 418.714C273.26 418.714 273.81 418.17 273.81 417.499C273.81 416.828 273.26 416.284 272.582 416.284C271.903 416.284 271.353 416.828 271.353 417.499Z" fill="#42D405"/>
<path d="M278.724 417.499C278.724 418.17 279.274 418.714 279.953 418.714C280.631 418.714 281.181 418.17 281.181 417.499C281.181 416.828 280.631 416.284 279.953 416.284C279.274 416.284 278.724 416.828 278.724 417.499Z" fill="#42D405"/>
<path d="M278.724 415.069C278.724 415.74 279.274 416.284 279.953 416.284C280.631 416.284 281.181 415.74 281.181 415.069C281.181 414.398 280.631 413.854 279.953 413.854C279.274 413.854 278.724 414.398 278.724 415.069Z" fill="#42D405"/>
<path d="M276.264 415.069C276.264 415.74 276.814 416.284 277.493 416.284C278.171 416.284 278.721 415.74 278.721 415.069C278.721 414.398 278.171 413.854 277.493 413.854C276.814 413.854 276.264 414.398 276.264 415.069Z" fill="#42D405"/>
<path d="M278.724 412.642C278.724 413.313 279.274 413.857 279.953 413.857C280.631 413.857 281.181 413.313 281.181 412.642C281.181 411.971 280.631 411.427 279.953 411.427C279.274 411.427 278.724 411.971 278.724 412.642Z" fill="#42D405"/>
<path d="M278.724 410.212C278.724 410.883 279.274 411.427 279.953 411.427C280.631 411.427 281.181 410.883 281.181 410.212C281.181 409.541 280.631 408.997 279.953 408.997C279.274 408.997 278.724 409.541 278.724 410.212Z" fill="#42D405"/>
<path d="M278.724 407.785C278.724 408.456 279.274 409 279.953 409C280.631 409 281.181 408.456 281.181 407.785C281.181 407.114 280.631 406.57 279.953 406.57C279.274 406.57 278.724 407.114 278.724 407.785Z" fill="#42D405"/>
<path d="M278.724 405.355C278.724 406.026 279.274 406.57 279.953 406.57C280.631 406.57 281.181 406.026 281.181 405.355C281.181 404.684 280.631 404.14 279.953 404.14C279.274 404.14 278.724 404.684 278.724 405.355Z" fill="#42D405"/>
<path d="M276.264 410.212C276.264 410.883 276.814 411.427 277.493 411.427C278.171 411.427 278.721 410.883 278.721 410.212C278.721 409.541 278.171 408.997 277.493 408.997C276.814 408.997 276.264 409.541 276.264 410.212Z" fill="#42D405"/>
<path d="M276.264 407.785C276.264 408.456 276.814 409 277.493 409C278.171 409 278.721 408.456 278.721 407.785C278.721 407.114 278.171 406.57 277.493 406.57C276.814 406.57 276.264 407.114 276.264 407.785Z" fill="#42D405"/>
<path d="M276.264 405.355C276.264 406.026 276.814 406.57 277.493 406.57C278.171 406.57 278.721 406.026 278.721 405.355C278.721 404.684 278.171 404.14 277.493 404.14C276.814 404.14 276.264 404.684 276.264 405.355Z" fill="#42D405"/>
<path d="M273.81 410.212C273.81 410.883 274.36 411.427 275.039 411.427C275.717 411.427 276.267 410.883 276.267 410.212C276.267 409.541 275.717 408.997 275.039 408.997C274.36 408.997 273.81 409.541 273.81 410.212Z" fill="#42D405"/>
<path d="M276.264 412.642C276.264 413.313 276.814 413.857 277.493 413.857C278.171 413.857 278.721 413.313 278.721 412.642C278.721 411.971 278.171 411.427 277.493 411.427C276.814 411.427 276.264 411.971 276.264 412.642Z" fill="#42D405"/>
<path d="M273.81 412.642C273.81 413.313 274.36 413.857 275.039 413.857C275.717 413.857 276.267 413.313 276.267 412.642C276.267 411.971 275.717 411.427 275.039 411.427C274.36 411.427 273.81 411.971 273.81 412.642Z" fill="#42D405"/>
<path d="M273.81 407.785C273.81 408.456 274.36 409 275.039 409C275.717 409 276.267 408.456 276.267 407.785C276.267 407.114 275.717 406.57 275.039 406.57C274.36 406.57 273.81 407.114 273.81 407.785Z" fill="#42D405"/>
<path d="M273.81 405.355C273.81 406.026 274.36 406.57 275.039 406.57C275.717 406.57 276.267 406.026 276.267 405.355C276.267 404.684 275.717 404.14 275.039 404.14C274.36 404.14 273.81 404.684 273.81 405.355Z" fill="#42D405"/>
<path d="M288.254 392H285.509H282.76H280.015H277.269H274.524H271.775H271.356H269.029H268.899H266.445H263.988H261.534V394.43H259.077V396.857H256.623V399.287H254.166V401.713V404.143V406.57V409V411.427V413.857V416.284V418.713H256.623V421.14H259.077V423.57H261.534V426H263.988H266.445H268.899H271.356V423.57V421.14V418.713V416.284V413.857V411.427V409V406.57V404.143V401.713H271.775H274.524H277.269H280.015H282.76H285.509H288.254H291V399.287V396.857V394.43V392H288.254Z" fill="#42D405"/>
</g>
<g filter="url(#filter0_d_1086_301)">
<path fill-rule="evenodd" clip-rule="evenodd" d="M137 4.33337C137.322 4.33337 137.583 4.59454 137.583 4.91671V8.41671H141.083C141.405 8.41671 141.667 8.67788 141.667 9.00004C141.667 9.32221 141.405 9.58337 141.083 9.58337H137.583V13.0834C137.583 13.4055 137.322 13.6667 137 13.6667C136.678 13.6667 136.417 13.4055 136.417 13.0834V9.58337H132.917C132.594 9.58337 132.333 9.32221 132.333 9.00004C132.333 8.67788 132.594 8.41671 132.917 8.41671H136.417V4.91671C136.417 4.59454 136.678 4.33337 137 4.33337Z" fill="#4DD116"/>
</g>
<g filter="url(#filter1_d_1086_301)">
<path fill-rule="evenodd" clip-rule="evenodd" d="M201 196.333C201.322 196.333 201.583 196.595 201.583 196.917V200.417H205.083C205.406 200.417 205.667 200.678 205.667 201C205.667 201.322 205.406 201.583 205.083 201.583H201.583V205.083C201.583 205.406 201.322 205.667 201 205.667C200.678 205.667 200.417 205.406 200.417 205.083V201.583H196.917C196.595 201.583 196.333 201.322 196.333 201C196.333 200.678 196.595 200.417 196.917 200.417H200.417V196.917C200.417 196.595 200.678 196.333 201 196.333Z" fill="#4DD116"/>
</g>
<g filter="url(#filter2_d_1086_301)">
<path fill-rule="evenodd" clip-rule="evenodd" d="M9 580.333C9.32217 580.333 9.58334 580.594 9.58334 580.917V584.417H13.0833C13.4055 584.417 13.6667 584.678 13.6667 585C13.6667 585.322 13.4055 585.583 13.0833 585.583H9.58334V589.083C9.58334 589.405 9.32217 589.667 9 589.667C8.67784 589.667 8.41667 589.405 8.41667 589.083V585.583H4.91667C4.5945 585.583 4.33334 585.322 4.33334 585C4.33334 584.678 4.5945 584.417 4.91667 584.417H8.41667V580.917C8.41667 580.594 8.67784 580.333 9 580.333Z" fill="#4DD116"/>
</g>
<g filter="url(#filter3_d_1086_301)">
<path fill-rule="evenodd" clip-rule="evenodd" d="M9 132.333C9.32217 132.333 9.58334 132.595 9.58334 132.917V136.417H13.0833C13.4055 136.417 13.6667 136.678 13.6667 137C13.6667 137.322 13.4055 137.583 13.0833 137.583H9.58334V141.083C9.58334 141.406 9.32217 141.667 9 141.667C8.67784 141.667 8.41667 141.406 8.41667 141.083V137.583H4.91667C4.5945 137.583 4.33334 137.322 4.33334 137C4.33334 136.678 4.5945 136.417 4.91667 136.417H8.41667V132.917C8.41667 132.595 8.67784 132.333 9 132.333Z" fill="#4DD116"/>
</g>
<defs>
<filter id="filter0_d_1086_301" x="128.333" y="0.333374" width="17.3333" height="17.3334" filterUnits="userSpaceOnUse" color-interpolation-filters="sRGB">
<feFlood flood-opacity="0" result="BackgroundImageFix"/>
<feColorMatrix in="SourceAlpha" type="matrix" values="0 0 0 0 0 0 0 0 0 0 0 0 0 0 0 0 0 0 127 0" result="hardAlpha"/>
<feOffset/>
<feGaussianBlur stdDeviation="2"/>
<feComposite in2="hardAlpha" operator="out"/>
<feColorMatrix type="matrix" values="0 0 0 0 0.282353 0 0 0 0 0.823529 0 0 0 0 0.054902 0 0 0 1 0"/>
<feBlend mode="normal" in2="BackgroundImageFix" result="effect1_dropShadow_1086_301"/>
<feBlend mode="normal" in="SourceGraphic" in2="effect1_dropShadow_1086_301" result="shape"/>
</filter>
<filter id="filter1_d_1086_301" x="192.333" y="192.333" width="17.3333" height="17.3334" filterUnits="userSpaceOnUse" color-interpolation-filters="sRGB">
<feFlood flood-opacity="0" result="BackgroundImageFix"/>
<feColorMatrix in="SourceAlpha" type="matrix" values="0 0 0 0 0 0 0 0 0 0 0 0 0 0 0 0 0 0 127 0" result="hardAlpha"/>
<feOffset/>
<feGaussianBlur stdDeviation="2"/>
<feComposite in2="hardAlpha" operator="out"/>
<feColorMatrix type="matrix" values="0 0 0 0 0.282353 0 0 0 0 0.823529 0 0 0 0 0.054902 0 0 0 1 0"/>
<feBlend mode="normal" in2="BackgroundImageFix" result="effect1_dropShadow_1086_301"/>
<feBlend mode="normal" in="SourceGraphic" in2="effect1_dropShadow_1086_301" result="shape"/>
</filter>
<filter id="filter2_d_1086_301" x="0.333336" y="576.333" width="17.3333" height="17.3333" filterUnits="userSpaceOnUse" color-interpolation-filters="sRGB">
<feFlood flood-opacity="0" result="BackgroundImageFix"/>
<feColorMatrix in="SourceAlpha" type="matrix" values="0 0 0 0 0 0 0 0 0 0 0 0 0 0 0 0 0 0 127 0" result="hardAlpha"/>
<feOffset/>
<feGaussianBlur stdDeviation="2"/>
<feComposite in2="hardAlpha" operator="out"/>
<feColorMatrix type="matrix" values="0 0 0 0 0.282353 0 0 0 0 0.823529 0 0 0 0 0.054902 0 0 0 1 0"/>
<feBlend mode="normal" in2="BackgroundImageFix" result="effect1_dropShadow_1086_301"/>
<feBlend mode="normal" in="SourceGraphic" in2="effect1_dropShadow_1086_301" result="shape"/>
</filter>
<filter id="filter3_d_1086_301" x="0.333336" y="128.333" width="17.3333" height="17.3334" filterUnits="userSpaceOnUse" color-interpolation-filters="sRGB">
<feFlood flood-opacity="0" result="BackgroundImageFix"/>
<feColorMatrix in="SourceAlpha" type="matrix" values="0 0 0 0 0 0 0 0 0 0 0 0 0 0 0 0 0 0 127 0" result="hardAlpha"/>
<feOffset/>
<feGaussianBlur stdDeviation="2"/>
<feComposite in2="hardAlpha" operator="out"/>
<feColorMatrix type="matrix" values="0 0 0 0 0.282353 0 0 0 0 0.823529 0 0 0 0 0.054902 0 0 0 1 0"/>
<feBlend mode="normal" in2="BackgroundImageFix" result="effect1_dropShadow_1086_301"/>
<feBlend mode="normal" in="SourceGraphic" in2="effect1_dropShadow_1086_301" result="shape"/>
</filter>
<clipPath id="clip0_1086_301">
<rect width="283" height="34" fill="white" transform="translate(8 392)"/>
</clipPath>
</defs>
</svg>
