<svg width="32" height="32" viewBox="0 0 32 32" fill="none" xmlns="http://www.w3.org/2000/svg">
    <rect width="32" height="32" fill="#9705D6" />
    <path
        d="M12.9855 10.3623C12.9855 10.0613 12.7472 9.81732 12.4531 9.81732C12.159 9.81732 11.9207 10.0613 11.9207 10.3623C11.9207 10.6633 12.159 10.9073 12.4531 10.9073C12.7472 10.9073 12.9855 10.6633 12.9855 10.3623Z"
        fill="white" />
    <path
        d="M12.9855 11.451C12.9855 11.15 12.7472 10.906 12.4531 10.906C12.159 10.906 11.9207 11.15 11.9207 11.451C11.9207 11.752 12.159 11.996 12.4531 11.996C12.7472 11.996 12.9855 11.752 12.9855 11.451Z"
        fill="white" />
    <path
        d="M12.9855 12.541C12.9855 12.24 12.7472 11.996 12.4531 11.996C12.159 11.996 11.9207 12.24 11.9207 12.541C11.9207 12.842 12.159 13.086 12.4531 13.086C12.7472 13.086 12.9855 12.842 12.9855 12.541Z"
        fill="white" />
    <path
        d="M12.9855 13.6297C12.9855 13.3287 12.7472 13.0846 12.4531 13.0846C12.159 13.0846 11.9207 13.3287 11.9207 13.6297C11.9207 13.9307 12.159 14.1747 12.4531 14.1747C12.7472 14.1747 12.9855 13.9307 12.9855 13.6297Z"
        fill="white" />
    <path
        d="M11.9205 10.3623C11.9205 10.0613 11.6821 9.81732 11.388 9.81732C11.094 9.81732 10.8556 10.0613 10.8556 10.3623C10.8556 10.6633 11.094 10.9073 11.388 10.9073C11.6821 10.9073 11.9205 10.6633 11.9205 10.3623Z"
        fill="white" />
    <path
        d="M11.9205 11.451C11.9205 11.15 11.6821 10.906 11.388 10.906C11.094 10.906 10.8556 11.15 10.8556 11.451C10.8556 11.752 11.094 11.996 11.388 11.996C11.6821 11.996 11.9205 11.752 11.9205 11.451Z"
        fill="white" />
    <path
        d="M11.9205 12.541C11.9205 12.24 11.6821 11.996 11.388 11.996C11.094 11.996 10.8556 12.24 10.8556 12.541C10.8556 12.842 11.094 13.086 11.388 13.086C11.6821 13.086 11.9205 12.842 11.9205 12.541Z"
        fill="white" />
    <path
        d="M11.9205 13.6297C11.9205 13.3287 11.6821 13.0846 11.388 13.0846C11.094 13.0846 10.8556 13.3287 10.8556 13.6297C10.8556 13.9307 11.094 14.1747 11.388 14.1747C11.6821 14.1747 11.9205 13.9307 11.9205 13.6297Z"
        fill="white" />
    <path
        d="M12.9855 21.2557C12.9855 20.9547 12.7472 20.7107 12.4531 20.7107C12.159 20.7107 11.9207 20.9547 11.9207 21.2557C11.9207 21.5567 12.159 21.8007 12.4531 21.8007C12.7472 21.8007 12.9855 21.5567 12.9855 21.2557Z"
        fill="white" />
    <path
        d="M12.9855 22.3444C12.9855 22.0434 12.7472 21.7994 12.4531 21.7994C12.159 21.7994 11.9207 22.0434 11.9207 22.3444C11.9207 22.6454 12.159 22.8894 12.4531 22.8894C12.7472 22.8894 12.9855 22.6454 12.9855 22.3444Z"
        fill="white" />
    <path
        d="M12.9855 20.1657C12.9855 19.8647 12.7472 19.6207 12.4531 19.6207C12.159 19.6207 11.9207 19.8647 11.9207 20.1657C11.9207 20.4667 12.159 20.7107 12.4531 20.7107C12.7472 20.7107 12.9855 20.4667 12.9855 20.1657Z"
        fill="white" />
    <path
        d="M12.9855 19.077C12.9855 18.776 12.7472 18.532 12.4531 18.532C12.159 18.532 11.9207 18.776 11.9207 19.077C11.9207 19.378 12.159 19.622 12.4531 19.622C12.7472 19.622 12.9855 19.378 12.9855 19.077Z"
        fill="white" />
    <path
        d="M11.9205 21.2557C11.9205 20.9547 11.6821 20.7107 11.388 20.7107C11.094 20.7107 10.8556 20.9547 10.8556 21.2557C10.8556 21.5567 11.094 21.8007 11.388 21.8007C11.6821 21.8007 11.9205 21.5567 11.9205 21.2557Z"
        fill="white" />
    <path
        d="M11.9205 22.3444C11.9205 22.0434 11.6821 21.7994 11.388 21.7994C11.094 21.7994 10.8556 22.0434 10.8556 22.3444C10.8556 22.6454 11.094 22.8894 11.388 22.8894C11.6821 22.8894 11.9205 22.6454 11.9205 22.3444Z"
        fill="white" />
    <path
        d="M11.9205 20.1657C11.9205 19.8647 11.6821 19.6207 11.388 19.6207C11.094 19.6207 10.8556 19.8647 10.8556 20.1657C10.8556 20.4667 11.094 20.7107 11.388 20.7107C11.6821 20.7107 11.9205 20.4667 11.9205 20.1657Z"
        fill="white" />
    <path
        d="M11.9205 19.077C11.9205 18.776 11.6821 18.532 11.388 18.532C11.094 18.532 10.8556 18.776 10.8556 19.077C10.8556 19.378 11.094 19.622 11.388 19.622C11.6821 19.622 11.9205 19.378 11.9205 19.077Z"
        fill="white" />
    <path
        d="M10.857 10.3623C10.857 10.0613 10.6186 9.81732 10.3246 9.81732C10.0305 9.81732 9.79211 10.0613 9.79211 10.3623C9.79211 10.6633 10.0305 10.9073 10.3246 10.9073C10.6186 10.9073 10.857 10.6633 10.857 10.3623Z"
        fill="white" />
    <path
        d="M10.857 11.451C10.857 11.15 10.6186 10.906 10.3246 10.906C10.0305 10.906 9.79211 11.15 9.79211 11.451C9.79211 11.752 10.0305 11.996 10.3246 11.996C10.6186 11.996 10.857 11.752 10.857 11.451Z"
        fill="white" />
    <path
        d="M10.857 12.541C10.857 12.24 10.6186 11.996 10.3246 11.996C10.0305 11.996 9.79211 12.24 9.79211 12.541C9.79211 12.842 10.0305 13.086 10.3246 13.086C10.6186 13.086 10.857 12.842 10.857 12.541Z"
        fill="white" />
    <path
        d="M10.857 13.6297C10.857 13.3287 10.6186 13.0846 10.3246 13.0846C10.0305 13.0846 9.79211 13.3287 9.79211 13.6297C9.79211 13.9307 10.0305 14.1747 10.3246 14.1747C10.6186 14.1747 10.857 13.9307 10.857 13.6297Z"
        fill="white" />
    <path
        d="M10.857 21.2557C10.857 20.9547 10.6186 20.7107 10.3246 20.7107C10.0305 20.7107 9.79211 20.9547 9.79211 21.2557C9.79211 21.5567 10.0305 21.8007 10.3246 21.8007C10.6186 21.8007 10.857 21.5567 10.857 21.2557Z"
        fill="white" />
    <path
        d="M10.857 22.3444C10.857 22.0434 10.6186 21.7994 10.3246 21.7994C10.0305 21.7994 9.79211 22.0434 9.79211 22.3444C9.79211 22.6454 10.0305 22.8894 10.3246 22.8894C10.6186 22.8894 10.857 22.6454 10.857 22.3444Z"
        fill="white" />
    <path
        d="M10.857 20.1657C10.857 19.8647 10.6186 19.6207 10.3246 19.6207C10.0305 19.6207 9.79211 19.8647 9.79211 20.1657C9.79211 20.4667 10.0305 20.7107 10.3246 20.7107C10.6186 20.7107 10.857 20.4667 10.857 20.1657Z"
        fill="white" />
    <path
        d="M10.857 19.077C10.857 18.776 10.6186 18.532 10.3246 18.532C10.0305 18.532 9.79211 18.776 9.79211 19.077C9.79211 19.378 10.0305 19.622 10.3246 19.622C10.6186 19.622 10.857 19.378 10.857 19.077Z"
        fill="white" />
    <path
        d="M9.79218 10.3623C9.79218 10.0613 9.5538 9.8173 9.25974 9.8173C8.96568 9.8173 8.72729 10.0613 8.72729 10.3623C8.72729 10.6633 8.96568 10.9073 9.25974 10.9073C9.5538 10.9073 9.79218 10.6633 9.79218 10.3623Z"
        fill="white" />
    <path
        d="M9.79218 11.451C9.79218 11.15 9.5538 10.906 9.25974 10.906C8.96568 10.906 8.72729 11.15 8.72729 11.451C8.72729 11.752 8.96568 11.996 9.25974 11.996C9.5538 11.996 9.79218 11.752 9.79218 11.451Z"
        fill="white" />
    <path
        d="M9.79218 12.541C9.79218 12.24 9.5538 11.996 9.25974 11.996C8.96568 11.996 8.72729 12.24 8.72729 12.541C8.72729 12.842 8.96568 13.086 9.25974 13.086C9.5538 13.086 9.79218 12.842 9.79218 12.541Z"
        fill="white" />
    <path
        d="M9.79218 13.6297C9.79218 13.3287 9.5538 13.0846 9.25974 13.0846C8.96568 13.0846 8.72729 13.3287 8.72729 13.6297C8.72729 13.9307 8.96568 14.1747 9.25974 14.1747C9.5538 14.1747 9.79218 13.9307 9.79218 13.6297Z"
        fill="white" />
    <path
        d="M9.79218 21.2557C9.79218 20.9547 9.5538 20.7107 9.25974 20.7107C8.96568 20.7107 8.72729 20.9547 8.72729 21.2557C8.72729 21.5567 8.96568 21.8007 9.25974 21.8007C9.5538 21.8007 9.79218 21.5567 9.79218 21.2557Z"
        fill="white" />
    <path
        d="M9.79218 22.3444C9.79218 22.0434 9.5538 21.7994 9.25974 21.7994C8.96568 21.7994 8.72729 22.0434 8.72729 22.3444C8.72729 22.6454 8.96568 22.8894 9.25974 22.8894C9.5538 22.8894 9.79218 22.6454 9.79218 22.3444Z"
        fill="white" />
    <path
        d="M9.79218 20.1657C9.79218 19.8647 9.5538 19.6207 9.25974 19.6207C8.96568 19.6207 8.72729 19.8647 8.72729 20.1657C8.72729 20.4667 8.96568 20.7107 9.25974 20.7107C9.5538 20.7107 9.79218 20.4667 9.79218 20.1657Z"
        fill="white" />
    <path
        d="M9.79218 19.077C9.79218 18.776 9.5538 18.532 9.25974 18.532C8.96568 18.532 8.72729 18.776 8.72729 19.077C8.72729 19.378 8.96568 19.622 9.25974 19.622C9.5538 19.622 9.79218 19.378 9.79218 19.077Z"
        fill="white" />
    <path
        d="M22.5628 11.996V10.9059H21.4979V9.81729H20.4344V8.72726H19.3695L18.306 8.72726H17.2411H16.1776H15.1127H14.0491H12.9843V9.81729V10.9059V11.996V13.0846V14.1746L12.9843 15.2633V16.3533V17.442V18.532V19.6207V20.7107V21.7993V22.8894V23.9794H14.0491H15.1127H16.1776H17.2411H18.306H19.3695H20.4344V22.8894H21.4979V21.7993H22.5628V20.7107H23.6277V19.6207V18.532V17.442V16.3533V15.2633V14.1746V13.0846V11.996H22.5628Z"
        fill="white" />
</svg>
