<svg width="33" height="32" viewBox="0 0 33 32" fill="none" xmlns="http://www.w3.org/2000/svg">
<path d="M9.72074 4.46631C9.96413 4.46631 10.1812 4.67157 10.1812 4.94949C10.1812 5.22741 9.96413 5.43267 9.72074 5.43267C9.47735 5.43267 9.26024 5.22741 9.26024 4.94949C9.26024 4.67157 9.47735 4.46631 9.72074 4.46631Z" stroke="#80887E"/>
<path d="M9.72074 6.43018C9.96413 6.43018 10.1812 6.63544 10.1812 6.91336C10.1812 7.19127 9.96413 7.39654 9.72074 7.39654C9.47735 7.39654 9.26024 7.19127 9.26024 6.91336C9.26024 6.63544 9.47735 6.43018 9.72074 6.43018Z" stroke="#80887E"/>
<path d="M9.72074 8.39673C9.96413 8.39673 10.1812 8.60199 10.1812 8.87991C10.1812 9.15783 9.96413 9.36309 9.72074 9.36309C9.47735 9.36309 9.26024 9.15783 9.26024 8.87991C9.26024 8.60199 9.47735 8.39673 9.72074 8.39673Z" stroke="#80887E"/>
<path d="M9.72074 10.3604C9.96413 10.3604 10.1812 10.5656 10.1812 10.8435C10.1812 11.1215 9.96413 11.3267 9.72074 11.3267C9.47735 11.3267 9.26024 11.1215 9.26024 10.8435C9.26024 10.5656 9.47735 10.3604 9.72074 10.3604Z" stroke="#80887E"/>
<path d="M7.80019 4.46631C8.04359 4.46631 8.26069 4.67157 8.26069 4.94949C8.26069 5.22741 8.04359 5.43267 7.80019 5.43267C7.5568 5.43267 7.33969 5.22741 7.33969 4.94949C7.33969 4.67157 7.5568 4.46631 7.80019 4.46631Z" stroke="#80887E"/>
<path d="M7.80019 6.43018C8.04358 6.43018 8.26069 6.63544 8.26069 6.91336C8.26069 7.19127 8.04359 7.39654 7.80019 7.39654C7.5568 7.39654 7.33969 7.19127 7.33969 6.91336C7.33969 6.63544 7.5568 6.43018 7.80019 6.43018Z" stroke="#80887E"/>
<path d="M7.80019 8.39673C8.04359 8.39673 8.26069 8.60199 8.26069 8.87991C8.26069 9.15783 8.04358 9.36309 7.80019 9.36309C7.5568 9.36309 7.33969 9.15783 7.33969 8.87991C7.33969 8.60199 7.5568 8.39673 7.80019 8.39673Z" stroke="#80887E"/>
<path d="M7.80019 10.3604C8.04359 10.3604 8.26069 10.5656 8.26069 10.8435C8.26069 11.1215 8.04358 11.3267 7.80019 11.3267C7.5568 11.3267 7.33969 11.1215 7.33969 10.8435C7.33969 10.5656 7.5568 10.3604 7.80019 10.3604Z" stroke="#80887E"/>
<path d="M9.72074 24.1174C9.96413 24.1174 10.1812 24.3227 10.1812 24.6006C10.1812 24.8785 9.96413 25.0838 9.72074 25.0838C9.47735 25.0838 9.26024 24.8785 9.26024 24.6006C9.26024 24.3227 9.47735 24.1174 9.72074 24.1174Z" stroke="#80887E"/>
<path d="M9.72074 26.0815C9.96413 26.0815 10.1812 26.2868 10.1812 26.5647C10.1812 26.8426 9.96413 27.0479 9.72074 27.0479C9.47735 27.0479 9.26024 26.8426 9.26024 26.5647C9.26024 26.2868 9.47735 26.0815 9.72074 26.0815Z" stroke="#80887E"/>
<path d="M9.72074 22.1511C9.96413 22.1511 10.1812 22.3564 10.1812 22.6343C10.1812 22.9122 9.96413 23.1175 9.72074 23.1175C9.47735 23.1175 9.26024 22.9122 9.26024 22.6343C9.26024 22.3564 9.47735 22.1511 9.72074 22.1511Z" stroke="#80887E"/>
<path d="M9.72074 20.1873C9.96413 20.1873 10.1812 20.3925 10.1812 20.6704C10.1812 20.9484 9.96413 21.1536 9.72074 21.1536C9.47735 21.1536 9.26024 20.9484 9.26024 20.6704C9.26024 20.3925 9.47735 20.1873 9.72074 20.1873Z" stroke="#80887E"/>
<path d="M7.80019 24.1174C8.04359 24.1174 8.26069 24.3227 8.26069 24.6006C8.26069 24.8785 8.04359 25.0838 7.80019 25.0838C7.5568 25.0838 7.33969 24.8785 7.33969 24.6006C7.33969 24.3227 7.5568 24.1174 7.80019 24.1174Z" stroke="#80887E"/>
<path d="M7.80019 26.0815C8.04359 26.0815 8.26069 26.2868 8.26069 26.5647C8.26069 26.8426 8.04359 27.0479 7.80019 27.0479C7.5568 27.0479 7.33969 26.8426 7.33969 26.5647C7.33969 26.2868 7.5568 26.0815 7.80019 26.0815Z" stroke="#80887E"/>
<path d="M7.80019 22.1511C8.04359 22.1511 8.26069 22.3564 8.26069 22.6343C8.26069 22.9122 8.04359 23.1175 7.80019 23.1175C7.5568 23.1175 7.33969 22.9122 7.33969 22.6343C7.33969 22.3564 7.5568 22.1511 7.80019 22.1511Z" stroke="#80887E"/>
<path d="M7.80019 20.1873C8.04359 20.1873 8.26069 20.3925 8.26069 20.6704C8.26069 20.9484 8.04358 21.1536 7.80019 21.1536C7.5568 21.1536 7.33969 20.9484 7.33969 20.6704C7.33969 20.3925 7.5568 20.1873 7.80019 20.1873Z" stroke="#80887E"/>
<path d="M5.88157 4.46631C6.12496 4.46631 6.34207 4.67157 6.34207 4.94949C6.34207 5.22741 6.12496 5.43267 5.88157 5.43267C5.63818 5.43267 5.42107 5.22741 5.42107 4.94949C5.42107 4.67157 5.63818 4.46631 5.88157 4.46631Z" stroke="#80887E"/>
<path d="M5.88157 6.43018C6.12496 6.43018 6.34207 6.63544 6.34207 6.91336C6.34207 7.19127 6.12496 7.39654 5.88157 7.39654C5.63818 7.39654 5.42107 7.19127 5.42107 6.91336C5.42107 6.63544 5.63818 6.43018 5.88157 6.43018Z" stroke="#80887E"/>
<path d="M5.88157 8.39673C6.12496 8.39673 6.34207 8.60199 6.34207 8.87991C6.34207 9.15783 6.12496 9.36309 5.88157 9.36309C5.63818 9.36309 5.42107 9.15783 5.42107 8.87991C5.42107 8.60199 5.63818 8.39673 5.88157 8.39673Z" stroke="#80887E"/>
<path d="M5.88157 10.3604C6.12496 10.3604 6.34207 10.5656 6.34207 10.8435C6.34207 11.1215 6.12496 11.3267 5.88157 11.3267C5.63818 11.3267 5.42107 11.1215 5.42107 10.8435C5.42107 10.5656 5.63818 10.3604 5.88157 10.3604Z" stroke="#80887E"/>
<path d="M5.88157 24.1174C6.12496 24.1174 6.34207 24.3227 6.34207 24.6006C6.34207 24.8785 6.12496 25.0838 5.88157 25.0838C5.63818 25.0838 5.42107 24.8785 5.42107 24.6006C5.42107 24.3227 5.63818 24.1174 5.88157 24.1174Z" stroke="#80887E"/>
<path d="M5.88157 26.0815C6.12496 26.0815 6.34207 26.2868 6.34207 26.5647C6.34207 26.8426 6.12496 27.0479 5.88157 27.0479C5.63818 27.0479 5.42107 26.8426 5.42107 26.5647C5.42107 26.2868 5.63818 26.0815 5.88157 26.0815Z" stroke="#80887E"/>
<path d="M5.88157 22.1511C6.12496 22.1511 6.34207 22.3564 6.34207 22.6343C6.34207 22.9122 6.12496 23.1175 5.88157 23.1175C5.63818 23.1175 5.42107 22.9122 5.42107 22.6343C5.42107 22.3564 5.63818 22.1511 5.88157 22.1511Z" stroke="#80887E"/>
<path d="M5.88157 20.1873C6.12496 20.1873 6.34207 20.3925 6.34207 20.6704C6.34207 20.9484 6.12496 21.1536 5.88157 21.1536C5.63818 21.1536 5.42107 20.9484 5.42107 20.6704C5.42107 20.3925 5.63818 20.1873 5.88157 20.1873Z" stroke="#80887E"/>
<path d="M3.9605 4.46631C4.20389 4.46631 4.421 4.67157 4.421 4.94949C4.421 5.22741 4.20389 5.43267 3.9605 5.43267C3.71711 5.43267 3.5 5.22741 3.5 4.94949C3.5 4.67157 3.71711 4.46631 3.9605 4.46631Z" stroke="#80887E"/>
<path d="M3.96038 6.43018C4.20377 6.43018 4.42088 6.63544 4.42088 6.91336C4.42088 7.19127 4.20377 7.39654 3.96038 7.39654C3.71699 7.39654 3.49988 7.19127 3.49988 6.91336C3.49988 6.63544 3.71699 6.43018 3.96038 6.43018Z" stroke="#80887E"/>
<path d="M3.96038 8.39673C4.20377 8.39673 4.42088 8.60199 4.42088 8.87991C4.42088 9.15783 4.20377 9.36309 3.96038 9.36309C3.71699 9.36309 3.49988 9.15783 3.49988 8.87991C3.49988 8.60199 3.71699 8.39673 3.96038 8.39673Z" stroke="#80887E"/>
<path d="M3.96038 10.3604C4.20377 10.3604 4.42088 10.5656 4.42088 10.8435C4.42088 11.1215 4.20377 11.3267 3.96038 11.3267C3.71699 11.3267 3.49988 11.1215 3.49988 10.8435C3.49988 10.5656 3.71699 10.3604 3.96038 10.3604Z" stroke="#80887E"/>
<path d="M3.96038 24.1174C4.20377 24.1174 4.42088 24.3227 4.42088 24.6006C4.42088 24.8785 4.20377 25.0838 3.96038 25.0838C3.71699 25.0838 3.49988 24.8785 3.49988 24.6006C3.49988 24.3227 3.71699 24.1174 3.96038 24.1174Z" stroke="#80887E"/>
<path d="M3.96038 26.0815C4.20377 26.0815 4.42088 26.2868 4.42088 26.5647C4.42088 26.8426 4.20377 27.0479 3.96038 27.0479C3.71699 27.0479 3.49988 26.8426 3.49988 26.5647C3.49988 26.2868 3.71699 26.0815 3.96038 26.0815Z" stroke="#80887E"/>
<path d="M3.96038 22.1511C4.20377 22.1511 4.42088 22.3564 4.42088 22.6343C4.42088 22.9122 4.20377 23.1175 3.96038 23.1175C3.71699 23.1175 3.49988 22.9122 3.49988 22.6343C3.49988 22.3564 3.71699 22.1511 3.96038 22.1511Z" stroke="#80887E"/>
<path d="M3.96038 20.1873C4.20377 20.1873 4.42088 20.3925 4.42088 20.6704C4.42088 20.9484 4.20377 21.1536 3.96038 21.1536C3.71699 21.1536 3.49988 20.9484 3.49988 20.6704C3.49988 20.3925 3.71699 20.1873 3.96038 20.1873Z" stroke="#80887E"/>
<path d="M26.9583 7.8966V8.8966H27.9583H28.8793V9.86048V11.8268L28.8793 13.7907V15.7571V17.721V19.6873V21.6512V22.6176H27.9583H26.9583V23.6176V24.5814H26.0373H25.0373V25.5814V26.5478H24.1187H23.1187V27.5478V28.5142H22.1977L20.2792 28.5142H18.3581H16.4396H14.5186H12.6H11.679V27.5478V25.5814V23.6176V21.6512V19.6873L11.679 17.721V15.7571V13.7907V11.8268V9.86048V7.8966L11.679 5.93024V3.96636V3H12.6L14.5186 3H16.4396L18.3581 3L20.2792 3H22.1977H23.1187V3.96636V4.96636H24.1187H25.0373V5.93024V6.93024H26.0373H26.9583V7.8966Z" stroke="#80887E" stroke-width="2"/>
</svg>
