<svg width="36" height="36" viewBox="0 0 36 36" fill="none" xmlns="http://www.w3.org/2000/svg">
    <circle cx="18" cy="18" r="18" fill="#42D405"/>
    <path d="M23.4999 14.2509C23.4724 14.2509 23.454 14.2509 23.4265 14.2509H23.3807C21.6482 14.1959 20.3557 12.8575 20.3557 11.2075C20.3557 9.52086 21.7307 8.15503 23.4082 8.15503C25.0857 8.15503 26.4607 9.53003 26.4607 11.2075C26.4515 12.8667 25.159 14.205 23.509 14.26C23.509 14.2509 23.509 14.2509 23.4999 14.2509ZM23.4082 9.52087C22.4824 9.52087 21.7307 10.2725 21.7307 11.1984C21.7307 12.1059 22.4365 12.8392 23.344 12.8759C23.3532 12.8667 23.4265 12.8667 23.509 12.8759C24.3982 12.83 25.0857 12.0967 25.0949 11.1984C25.0949 10.2725 24.3432 9.52087 23.4082 9.52087Z" fill="#242524"/>
    <path d="M23.5091 21.0066C23.1516 21.0066 22.7941 20.9791 22.4366 20.915C22.0608 20.8508 21.8133 20.4933 21.8775 20.1175C21.9416 19.7416 22.2991 19.4941 22.675 19.5583C23.8025 19.7508 24.9941 19.54 25.7916 19.0083C26.2225 18.7241 26.4516 18.3666 26.4516 18.0091C26.4516 17.6516 26.2133 17.3033 25.7916 17.0191C24.9941 16.4875 23.7841 16.2766 22.6475 16.4783C22.2716 16.5516 21.9141 16.295 21.85 15.9191C21.7858 15.5433 22.0333 15.1858 22.4091 15.1216C23.9033 14.8558 25.4525 15.14 26.5525 15.8733C27.3591 16.4141 27.8266 17.1841 27.8266 18.0091C27.8266 18.825 27.3683 19.6041 26.5525 20.1541C25.7183 20.7041 24.6366 21.0066 23.5091 21.0066Z" fill="#242524"/>
    <path d="M12.4724 14.2509C12.4633 14.2509 12.4541 14.2509 12.4541 14.2509C10.8041 14.1959 9.51161 12.8575 9.50244 11.2075C9.50244 9.52087 10.8774 8.14587 12.5549 8.14587C14.2324 8.14587 15.6074 9.52088 15.6074 11.1984C15.6074 12.8575 14.3149 14.1959 12.6649 14.2509L12.4724 13.5634L12.5366 14.2509C12.5183 14.2509 12.4908 14.2509 12.4724 14.2509ZM12.5641 12.8759C12.6191 12.8759 12.6649 12.8759 12.7199 12.885C13.5358 12.8484 14.2508 12.115 14.2508 11.2075C14.2508 10.2817 13.4991 9.53004 12.5733 9.53004C11.6474 9.53004 10.8958 10.2817 10.8958 11.2075C10.8958 12.1059 11.5924 12.83 12.4816 12.885C12.4908 12.8759 12.5274 12.8759 12.5641 12.8759Z" fill="#242524"/>
    <path d="M12.4633 21.0066C11.3358 21.0066 10.2541 20.7041 9.41992 20.1541C8.61325 19.6133 8.14575 18.8341 8.14575 18.0091C8.14575 17.1933 8.61325 16.4141 9.41992 15.8733C10.5199 15.14 12.0691 14.8558 13.5633 15.1216C13.9391 15.1858 14.1866 15.5433 14.1224 15.9191C14.0583 16.295 13.7008 16.5516 13.3249 16.4783C12.1883 16.2766 10.9874 16.4875 10.1808 17.0191C9.74992 17.3033 9.52075 17.6516 9.52075 18.0091C9.52075 18.3666 9.75909 18.7241 10.1808 19.0083C10.9783 19.54 12.1699 19.7508 13.2974 19.5583C13.6733 19.4941 14.0308 19.7508 14.0949 20.1175C14.1591 20.4933 13.9116 20.8508 13.5358 20.915C13.1783 20.9791 12.8208 21.0066 12.4633 21.0066Z" fill="#242524"/>
    <path d="M17.9999 21.0983C17.9724 21.0983 17.954 21.0983 17.9265 21.0983H17.8807C16.1482 21.0433 14.8557 19.7049 14.8557 18.0549C14.8557 16.3683 16.2307 15.0024 17.9082 15.0024C19.5857 15.0024 20.9607 16.3774 20.9607 18.0549C20.9515 19.7141 19.659 21.0524 18.009 21.1074C18.009 21.0983 18.009 21.0983 17.9999 21.0983ZM17.9082 16.3683C16.9824 16.3683 16.2307 17.1199 16.2307 18.0458C16.2307 18.9533 16.9365 19.6866 17.844 19.7233C17.8532 19.7141 17.9265 19.7141 18.009 19.7233C18.8982 19.6774 19.5857 18.9441 19.5949 18.0458C19.5949 17.1291 18.8432 16.3683 17.9082 16.3683Z" fill="black"/>
    <path d="M17.9998 27.8633C16.8998 27.8633 15.7998 27.5791 14.9473 27.0016C14.1406 26.4608 13.6731 25.6908 13.6731 24.8658C13.6731 24.05 14.1314 23.2616 14.9473 22.7208C16.6614 21.5841 19.3473 21.5841 21.0523 22.7208C21.8589 23.2616 22.3264 24.0316 22.3264 24.8566C22.3264 25.6725 21.8681 26.4608 21.0523 27.0016C20.1998 27.57 19.0998 27.8633 17.9998 27.8633ZM15.7081 23.8758C15.2773 24.16 15.0481 24.5175 15.0481 24.875C15.0481 25.2325 15.2864 25.5808 15.7081 25.865C16.9456 26.6991 19.0448 26.6991 20.2823 25.865C20.7131 25.5808 20.9423 25.2233 20.9423 24.8658C20.9423 24.5083 20.7039 24.16 20.2823 23.8758C19.0539 23.0416 16.9548 23.0508 15.7081 23.8758Z" fill="black"/>
    <circle cx="18" cy="18" r="18" fill="#42D405"/>
    <path d="M23.4999 14.2509C23.4724 14.2509 23.454 14.2509 23.4265 14.2509H23.3807C21.6482 14.1959 20.3557 12.8575 20.3557 11.2075C20.3557 9.52086 21.7307 8.15503 23.4082 8.15503C25.0857 8.15503 26.4607 9.53003 26.4607 11.2075C26.4515 12.8667 25.159 14.205 23.509 14.26C23.509 14.2509 23.509 14.2509 23.4999 14.2509ZM23.4082 9.52087C22.4824 9.52087 21.7307 10.2725 21.7307 11.1984C21.7307 12.1059 22.4365 12.8392 23.344 12.8759C23.3532 12.8667 23.4265 12.8667 23.509 12.8759C24.3982 12.83 25.0857 12.0967 25.0949 11.1984C25.0949 10.2725 24.3432 9.52087 23.4082 9.52087Z" fill="#242524"/>
    <path d="M23.5091 21.0066C23.1516 21.0066 22.7941 20.9791 22.4366 20.915C22.0608 20.8508 21.8133 20.4933 21.8775 20.1175C21.9416 19.7416 22.2991 19.4941 22.675 19.5583C23.8025 19.7508 24.9941 19.54 25.7916 19.0083C26.2225 18.7241 26.4516 18.3666 26.4516 18.0091C26.4516 17.6516 26.2133 17.3033 25.7916 17.0191C24.9941 16.4875 23.7841 16.2766 22.6475 16.4783C22.2716 16.5516 21.9141 16.295 21.85 15.9191C21.7858 15.5433 22.0333 15.1858 22.4091 15.1216C23.9033 14.8558 25.4525 15.14 26.5525 15.8733C27.3591 16.4141 27.8266 17.1841 27.8266 18.0091C27.8266 18.825 27.3683 19.6041 26.5525 20.1541C25.7183 20.7041 24.6366 21.0066 23.5091 21.0066Z" fill="#242524"/>
    <path d="M12.4724 14.2509C12.4633 14.2509 12.4541 14.2509 12.4541 14.2509C10.8041 14.1959 9.51161 12.8575 9.50244 11.2075C9.50244 9.52087 10.8774 8.14587 12.5549 8.14587C14.2324 8.14587 15.6074 9.52088 15.6074 11.1984C15.6074 12.8575 14.3149 14.1959 12.6649 14.2509L12.4724 13.5634L12.5366 14.2509C12.5183 14.2509 12.4908 14.2509 12.4724 14.2509ZM12.5641 12.8759C12.6191 12.8759 12.6649 12.8759 12.7199 12.885C13.5358 12.8484 14.2508 12.115 14.2508 11.2075C14.2508 10.2817 13.4991 9.53004 12.5733 9.53004C11.6474 9.53004 10.8958 10.2817 10.8958 11.2075C10.8958 12.1059 11.5924 12.83 12.4816 12.885C12.4908 12.8759 12.5274 12.8759 12.5641 12.8759Z" fill="#242524"/>
    <path d="M12.4633 21.0066C11.3358 21.0066 10.2541 20.7041 9.41992 20.1541C8.61325 19.6133 8.14575 18.8341 8.14575 18.0091C8.14575 17.1933 8.61325 16.4141 9.41992 15.8733C10.5199 15.14 12.0691 14.8558 13.5633 15.1216C13.9391 15.1858 14.1866 15.5433 14.1224 15.9191C14.0583 16.295 13.7008 16.5516 13.3249 16.4783C12.1883 16.2766 10.9874 16.4875 10.1808 17.0191C9.74992 17.3033 9.52075 17.6516 9.52075 18.0091C9.52075 18.3666 9.75909 18.7241 10.1808 19.0083C10.9783 19.54 12.1699 19.7508 13.2974 19.5583C13.6733 19.4941 14.0308 19.7508 14.0949 20.1175C14.1591 20.4933 13.9116 20.8508 13.5358 20.915C13.1783 20.9791 12.8208 21.0066 12.4633 21.0066Z" fill="#242524"/>
    <path d="M17.9999 21.0983C17.9724 21.0983 17.954 21.0983 17.9265 21.0983H17.8807C16.1482 21.0433 14.8557 19.7049 14.8557 18.0549C14.8557 16.3683 16.2307 15.0024 17.9082 15.0024C19.5857 15.0024 20.9607 16.3774 20.9607 18.0549C20.9515 19.7141 19.659 21.0524 18.009 21.1074C18.009 21.0983 18.009 21.0983 17.9999 21.0983ZM17.9082 16.3683C16.9824 16.3683 16.2307 17.1199 16.2307 18.0458C16.2307 18.9533 16.9365 19.6866 17.844 19.7233C17.8532 19.7141 17.9265 19.7141 18.009 19.7233C18.8982 19.6774 19.5857 18.9441 19.5949 18.0458C19.5949 17.1291 18.8432 16.3683 17.9082 16.3683Z" fill="black"/>
    <path d="M17.9998 27.8633C16.8998 27.8633 15.7998 27.5791 14.9473 27.0016C14.1406 26.4608 13.6731 25.6908 13.6731 24.8658C13.6731 24.05 14.1314 23.2616 14.9473 22.7208C16.6614 21.5841 19.3473 21.5841 21.0523 22.7208C21.8589 23.2616 22.3264 24.0316 22.3264 24.8566C22.3264 25.6725 21.8681 26.4608 21.0523 27.0016C20.1998 27.57 19.0998 27.8633 17.9998 27.8633ZM15.7081 23.8758C15.2773 24.16 15.0481 24.5175 15.0481 24.875C15.0481 25.2325 15.2864 25.5808 15.7081 25.865C16.9456 26.6991 19.0448 26.6991 20.2823 25.865C20.7131 25.5808 20.9423 25.2233 20.9423 24.8658C20.9423 24.5083 20.7039 24.16 20.2823 23.8758C19.0539 23.0416 16.9548 23.0508 15.7081 23.8758Z" fill="black"/>
</svg>
