<svg width="28" height="24" viewBox="0 0 28 24" fill="none" xmlns="http://www.w3.org/2000/svg">
<g clip-path="url(#clip0_361_15659)">
<path d="M26.1315 0.0254822L15.6166 7.51204L17.5614 3.09493L26.1315 0.0254822Z" fill="#E2761B" stroke="#E2761B" stroke-linecap="round" stroke-linejoin="round"/>
<path d="M1.85789 0.0254822L12.2883 7.58289L10.4386 3.09493L1.85789 0.0254822Z" fill="#E4761B" stroke="#E4761B" stroke-linecap="round" stroke-linejoin="round"/>
<path d="M22.3481 17.3794L19.5478 21.4928L25.5397 23.0728L27.2623 17.4707L22.3481 17.3794Z" fill="#E4761B" stroke="#E4761B" stroke-linecap="round" stroke-linejoin="round"/>
<path d="M0.748291 17.4707L2.46028 23.0728L8.45225 21.4928L5.65192 17.3794L0.748291 17.4707Z" fill="#E4761B" stroke="#E4761B" stroke-linecap="round" stroke-linejoin="round"/>
<path d="M8.11411 10.4296L6.44412 12.8512L12.3936 13.1045L12.1825 6.97532L8.11411 10.4296Z" fill="#E4761B" stroke="#E4761B" stroke-linecap="round" stroke-linejoin="round"/>
<path d="M19.8753 10.4296L15.7543 6.90447L15.6166 13.1045L21.5559 12.8512L19.8753 10.4296Z" fill="#E4761B" stroke="#E4761B" stroke-linecap="round" stroke-linejoin="round"/>
<path d="M8.45226 21.4928L12.024 19.8209L8.93821 17.5109L8.45226 21.4928Z" fill="#E4761B" stroke="#E4761B" stroke-linecap="round" stroke-linejoin="round"/>
<path d="M15.9653 19.8209L19.5478 21.4928L19.0512 17.5109L15.9653 19.8209Z" fill="#E4761B" stroke="#E4761B" stroke-linecap="round" stroke-linejoin="round"/>
<path d="M19.5478 21.4928L15.9653 19.8209L16.2508 22.0601L16.2189 23.002L19.5478 21.4928Z" fill="#D7C1B3" stroke="#D7C1B3" stroke-linecap="round" stroke-linejoin="round"/>
<path d="M8.45226 21.4928L11.7811 23.002L11.7598 22.0601L12.024 19.8209L8.45226 21.4928Z" fill="#D7C1B3" stroke="#D7C1B3" stroke-linecap="round" stroke-linejoin="round"/>
<path d="M11.8337 16.0323L8.85367 15.1913L10.9564 14.2692L11.8337 16.0323Z" fill="#233447" stroke="#233447" stroke-linecap="round" stroke-linejoin="round"/>
<path d="M16.1557 16.0323L17.0329 14.2692L19.1463 15.1913L16.1557 16.0323Z" fill="#233447" stroke="#233447" stroke-linecap="round" stroke-linejoin="round"/>
<path d="M8.45224 21.4928L8.95946 17.3794L5.65192 17.4707L8.45224 21.4928Z" fill="#CD6116" stroke="#CD6116" stroke-linecap="round" stroke-linejoin="round"/>
<path d="M19.0405 17.3794L19.5477 21.4928L22.3481 17.4707L19.0405 17.3794Z" fill="#CD6116" stroke="#CD6116" stroke-linecap="round" stroke-linejoin="round"/>
<path d="M21.5559 12.8512L15.6166 13.1045L16.1663 16.0323L17.0436 14.2692L19.157 15.1913L21.5559 12.8512Z" fill="#CD6116" stroke="#CD6116" stroke-linecap="round" stroke-linejoin="round"/>
<path d="M8.85367 15.1913L10.9671 14.2692L11.8337 16.0323L12.3936 13.1045L6.44412 12.8512L8.85367 15.1913Z" fill="#CD6116" stroke="#CD6116" stroke-linecap="round" stroke-linejoin="round"/>
<path d="M6.44412 12.8512L8.93821 17.5109L8.85367 15.1913L6.44412 12.8512Z" fill="#E4751F" stroke="#E4751F" stroke-linecap="round" stroke-linejoin="round"/>
<path d="M19.157 15.1913L19.0512 17.5109L21.5559 12.8512L19.157 15.1913Z" fill="#E4751F" stroke="#E4751F" stroke-linecap="round" stroke-linejoin="round"/>
<path d="M12.3935 13.1045L11.8337 16.0323L12.5313 19.4866L12.6897 14.9379L12.3935 13.1045Z" fill="#E4751F" stroke="#E4751F" stroke-linecap="round" stroke-linejoin="round"/>
<path d="M15.6166 13.1045L15.3316 14.9277L15.4581 19.4866L16.1663 16.0323L15.6166 13.1045Z" fill="#E4751F" stroke="#E4751F" stroke-linecap="round" stroke-linejoin="round"/>
<path d="M16.1663 16.0323L15.4581 19.4866L15.9653 19.8209L19.0512 17.5109L19.157 15.1913L16.1663 16.0323Z" fill="#F6851B" stroke="#F6851B" stroke-linecap="round" stroke-linejoin="round"/>
<path d="M8.85367 15.1913L8.9382 17.5109L12.024 19.8209L12.5313 19.4866L11.8337 16.0323L8.85367 15.1913Z" fill="#F6851B" stroke="#F6851B" stroke-linecap="round" stroke-linejoin="round"/>
<path d="M16.2189 23.002L16.2508 22.0601L15.9866 21.8368H12.0028L11.7598 22.0601L11.7811 23.002L8.45226 21.4928L9.61449 22.4041L11.9709 23.9745H16.0185L18.3855 22.4041L19.5478 21.4928L16.2189 23.002Z" fill="#C0AD9E" stroke="#C0AD9E" stroke-linecap="round" stroke-linejoin="round"/>
<path d="M15.9653 19.8209L15.4581 19.4866H12.5313L12.024 19.8209L11.7598 22.0601L12.0028 21.8368H15.9866L16.2508 22.0601L15.9653 19.8209Z" fill="#161616" stroke="#161616" stroke-linecap="round" stroke-linejoin="round"/>
<path d="M26.5754 7.9983L27.4734 3.8651L26.1315 0.0254822L15.9653 7.25872L19.8753 10.4296L25.402 11.9796L26.6281 10.6121L26.0996 10.2476L26.9449 9.50805L26.2899 9.02179L27.1353 8.40351L26.5754 7.9983Z" fill="#763D16" stroke="#763D16" stroke-linecap="round" stroke-linejoin="round"/>
<path d="M0.526581 3.8651L1.42458 7.9983L0.854092 8.40351L1.69945 9.02179L1.05506 9.50805L1.90043 10.2476L1.37194 10.6121L2.58735 11.9796L8.1141 10.4296L12.024 7.25872L1.85789 0.0254822L0.526581 3.8651Z" fill="#763D16" stroke="#763D16" stroke-linecap="round" stroke-linejoin="round"/>
<path d="M25.402 11.9796L19.8753 10.4296L21.5559 12.8512L19.0512 17.5109L22.3481 17.4707H27.2624L25.402 11.9796Z" fill="#F6851B" stroke="#F6851B" stroke-linecap="round" stroke-linejoin="round"/>
<path d="M8.1141 10.4296L2.58735 11.9796L0.748291 17.4707H5.65192L8.9382 17.5109L6.44411 12.8512L8.1141 10.4296Z" fill="#F6851B" stroke="#F6851B" stroke-linecap="round" stroke-linejoin="round"/>
<path d="M15.6166 13.1045L15.9653 7.25872L17.5721 3.09493H10.4386L12.024 7.25872L12.3935 13.1045L12.5206 14.9481L12.5313 19.4866H15.4581L15.4794 14.9481L15.6166 13.1045Z" fill="#F6851B" stroke="#F6851B" stroke-linecap="round" stroke-linejoin="round"/>
</g>
<defs>
<clipPath id="clip0_361_15659">
<rect width="27" height="24" fill="white" transform="translate(0.5)"/>
</clipPath>
</defs>
</svg>
