<svg width="28" height="22" viewBox="0 0 28 22" fill="none" xmlns="http://www.w3.org/2000/svg">
<path d="M3.6949 22C7.14037 22 9.72969 19.068 11.2749 16.7511C11.087 17.2637 10.9826 17.7763 10.9826 18.2684C10.9826 19.6216 11.7761 20.5853 13.3422 20.5853C15.493 20.5853 17.79 18.74 18.9803 16.7511C18.8968 17.0382 18.855 17.3048 18.855 17.5508C18.855 18.4939 19.3979 19.0885 20.5046 19.0885C23.9919 19.0885 27.5 13.0401 27.5 7.75024C27.5 3.62908 25.37 0 20.0244 0C10.6276 0 0.5 11.2358 0.5 18.4939C0.5 21.3439 2.06612 22 3.6949 22ZM16.7876 7.29916C16.7876 6.274 17.3723 5.55638 18.2285 5.55638C19.0638 5.55638 19.6485 6.274 19.6485 7.29916C19.6485 8.32433 19.0638 9.06244 18.2285 9.06244C17.3723 9.06244 16.7876 8.32433 16.7876 7.29916ZM21.2564 7.29916C21.2564 6.274 21.8411 5.55638 22.6972 5.55638C23.5324 5.55638 24.1171 6.274 24.1171 7.29916C24.1171 8.32433 23.5324 9.06244 22.6972 9.06244C21.8411 9.06244 21.2564 8.32433 21.2564 7.29916Z" fill="#AB9FF2"/>
</svg>
