<svg width="32" height="32" viewBox="0 0 32 32" fill="none" xmlns="http://www.w3.org/2000/svg">
    <circle cx="16" cy="16" r="16" fill="url(#paint0_linear_338_7808)"/>
    <path d="M16 8.5V16M20.8 11.95C21.7425 12.8928 22.3847 14.0936 22.6456 15.401C22.9065 16.7083 22.7745 18.0636 22.2661 19.296C21.7578 20.5284 20.8959 21.5827 19.7891 22.3259C18.6824 23.0691 17.3804 23.4679 16.0473 23.4721C14.7142 23.4762 13.4097 23.0856 12.2983 22.3493C11.1869 21.6131 10.3184 20.5642 9.80239 19.3351C9.28633 18.1059 9.1458 16.7514 9.39853 15.4425C9.65126 14.1335 10.2859 12.9287 11.2225 11.98" stroke="white" stroke-width="2" stroke-linecap="round" stroke-linejoin="round"/>
    <defs>
        <linearGradient id="paint0_linear_338_7808" x1="2" y1="4" x2="32" y2="28" gradientUnits="userSpaceOnUse">
            <stop stop-color="#232823"/>
            <stop offset="1" stop-color="#7C8E7C"/>
        </linearGradient>
    </defs>
</svg>
