<svg width="89" height="89" viewBox="0 0 89 89" fill="none" xmlns="http://www.w3.org/2000/svg">
    <g filter="url(#filter0_b_338_7808)">
        <rect width="89" height="89" rx="44.5" fill="#313036" fill-opacity="0.3"/>
        <rect width="89" height="89" rx="44.5" fill="url(#paint0_linear_338_7808)"/>
        <rect x="1" y="1" width="87" height="87" rx="43.5" stroke="url(#paint1_linear_338_7808)" stroke-width="2"/>
    </g>
    <path d="M44.139 60.2783V46.1856M44.139 46.1856L41.937 43.1028M44.139 46.1856L47.6622 43.1028M35.3311 33.8545L39.735 40.02M54.7085 36.4969L47.6622 43.1028M39.735 40.02L41.4966 35.6161M39.735 40.02L41.937 43.1028M41.937 43.1028L37.0926 43.5432M47.6622 43.1028L52.9469 43.5432" stroke="#70D767" stroke-width="3" stroke-linecap="round"/>
    <mask id="path-4-outside-1_338_7808" maskUnits="userSpaceOnUse" x="20" y="15" width="49" height="59" fill="black">
        <rect fill="white" x="20" y="15" width="49" height="59"/>
        <path fill-rule="evenodd" clip-rule="evenodd" d="M65.278 39.139C65.278 50.8138 55.8138 60.278 44.139 60.278C32.4643 60.278 23 50.8138 23 39.139C23 27.4643 32.4643 18 44.139 18C55.8138 18 65.278 27.4643 65.278 39.139ZM35.331 64.6822C35.331 64.1957 35.7254 63.8014 36.2118 63.8014H52.0661C52.5525 63.8014 52.9469 64.1957 52.9469 64.6822C52.9469 65.1686 52.5525 65.563 52.0661 65.563H36.2118C35.7254 65.563 35.331 65.1686 35.331 64.6822ZM36.2118 69.086C35.7254 69.086 35.331 69.4804 35.331 69.9668C35.331 70.4533 35.7254 70.8476 36.2118 70.8476H52.0661C52.5525 70.8476 52.9469 70.4533 52.9469 69.9668C52.9469 69.4804 52.5525 69.086 52.0661 69.086H36.2118Z"/>
    </mask>
    <path d="M44.139 63.278C57.4706 63.278 68.278 52.4706 68.278 39.139H62.278C62.278 49.1569 54.1569 57.278 44.139 57.278V63.278ZM20 39.139C20 52.4706 30.8074 63.278 44.139 63.278V57.278C34.1211 57.278 26 49.1569 26 39.139H20ZM44.139 15C30.8074 15 20 25.8074 20 39.139H26C26 29.1211 34.1211 21 44.139 21V15ZM68.278 39.139C68.278 25.8074 57.4706 15 44.139 15V21C54.1569 21 62.278 29.1211 62.278 39.139H68.278ZM36.2118 60.8014C34.0685 60.8014 32.331 62.5389 32.331 64.6822H38.331C38.331 65.8526 37.3822 66.8014 36.2118 66.8014V60.8014ZM52.0661 60.8014H36.2118V66.8014H52.0661V60.8014ZM55.9469 64.6822C55.9469 62.5389 54.2094 60.8014 52.0661 60.8014V66.8014C50.8957 66.8014 49.9469 65.8526 49.9469 64.6822H55.9469ZM52.0661 68.563C54.2094 68.563 55.9469 66.8255 55.9469 64.6822H49.9469C49.9469 63.5118 50.8957 62.563 52.0661 62.563V68.563ZM36.2118 68.563H52.0661V62.563H36.2118V68.563ZM32.331 64.6822C32.331 66.8255 34.0685 68.563 36.2118 68.563V62.563C37.3822 62.563 38.331 63.5118 38.331 64.6822H32.331ZM38.331 69.9668C38.331 71.1372 37.3822 72.086 36.2118 72.086V66.086C34.0685 66.086 32.331 67.8235 32.331 69.9668H38.331ZM36.2118 67.8476C37.3822 67.8476 38.331 68.7964 38.331 69.9668H32.331C32.331 72.1101 34.0685 73.8476 36.2118 73.8476V67.8476ZM52.0661 67.8476H36.2118V73.8476H52.0661V67.8476ZM49.9469 69.9668C49.9469 68.7964 50.8957 67.8476 52.0661 67.8476V73.8476C54.2094 73.8476 55.9469 72.1101 55.9469 69.9668H49.9469ZM52.0661 72.086C50.8957 72.086 49.9469 71.1372 49.9469 69.9668H55.9469C55.9469 67.8235 54.2094 66.086 52.0661 66.086V72.086ZM36.2118 72.086H52.0661V66.086H36.2118V72.086Z" fill="#348E2B" mask="url(#path-4-outside-1_338_7808)"/>
    <path d="M31.5719 26.8078C31.1672 27.0414 30.872 27.4262 30.7511 27.8774C30.6302 28.3287 30.6935 28.8096 30.9271 29.2142C31.1607 29.6188 31.5454 29.914 31.9967 30.0349C32.448 30.1559 32.9288 30.0926 33.3334 29.859L31.5719 26.8078Z" fill="#70D767"/>
    <path d="M42.3772 31.9728C42.8285 32.0937 43.3093 32.0304 43.7139 31.7968C44.1185 31.5632 44.4137 31.1785 44.5347 30.7272C44.6556 30.2759 44.5923 29.7951 44.3587 29.3905C44.1251 28.9859 43.7403 28.6906 43.289 28.5697L42.3772 31.9728Z" fill="#70D767"/>
    <path d="M33.5696 44.4239C33.5696 43.9567 33.384 43.5087 33.0536 43.1783C32.7232 42.8479 32.2752 42.6624 31.808 42.6624C31.3408 42.6624 30.8927 42.8479 30.5623 43.1783C30.232 43.5087 30.0464 43.9567 30.0464 44.4239L33.5696 44.4239Z" fill="#70D767"/>
    <path d="M56.4702 42.6622C56.4702 43.1294 56.6558 43.5775 56.9862 43.9079C57.3166 44.2382 57.7646 44.4238 58.2318 44.4238C58.699 44.4238 59.1471 44.2382 59.4775 43.9079C59.8078 43.5775 59.9934 43.1294 59.9934 42.6622L56.4702 42.6622Z" fill="#70D767"/>
    <path d="M60.1004 32.3506C59.7701 32.0202 59.322 31.8346 58.8548 31.8346C58.3876 31.8346 57.9395 32.0202 57.6092 32.3506C57.2788 32.6809 57.0932 33.129 57.0932 33.5962C57.0932 34.0634 57.2788 34.5115 57.6092 34.8418L60.1004 32.3506Z" fill="#70D767"/>
    <defs>
        <filter id="filter0_b_338_7808" x="-4" y="-4" width="97" height="97" filterUnits="userSpaceOnUse" color-interpolation-filters="sRGB">
            <feFlood flood-opacity="0" result="BackgroundImageFix"/>
            <feGaussianBlur in="BackgroundImageFix" stdDeviation="2"/>
            <feComposite in2="SourceAlpha" operator="in" result="effect1_backgroundBlur_338_7808"/>
            <feBlend mode="normal" in="SourceGraphic" in2="effect1_backgroundBlur_338_7808" result="shape"/>
        </filter>
        <linearGradient id="paint0_linear_338_7808" x1="4.38115" y1="4.93986" x2="44.5" y2="46.28" gradientUnits="userSpaceOnUse">
            <stop stop-color="#B1B1B1" stop-opacity="0.32"/>
            <stop offset="1" stop-color="#0A1406" stop-opacity="0.2"/>
        </linearGradient>
        <linearGradient id="paint1_linear_338_7808" x1="-18.7493" y1="-6.41195" x2="5.36297" y2="107.152" gradientUnits="userSpaceOnUse">
            <stop stop-color="white" stop-opacity="0.2"/>
            <stop offset="1" stop-color="white" stop-opacity="0"/>
        </linearGradient>
    </defs>
</svg>
