<svg width="32" height="32" viewBox="0 0 32 32" fill="none" xmlns="http://www.w3.org/2000/svg">
    <circle cx="16" cy="16" r="16" fill="url(#paint0_linear_338_7808)"/>
    <path d="M16 8.5V16M20.8 11.95C21.7425 12.8928 22.3847 14.0936 22.6456 15.401C22.9065 16.7083 22.7745 18.0636 22.2661 19.296C21.7578 20.5284 20.8959 21.5827 19.7892 22.3259C18.6824 23.0691 17.3804 23.4679 16.0473 23.4721C14.7142 23.4762 13.4097 23.0856 12.2983 22.3493C11.1869 21.6131 10.3185 20.5642 9.80242 19.3351C9.28636 18.1059 9.14583 16.7514 9.39856 15.4425C9.65129 14.1335 10.2859 12.9287 11.2225 11.98" stroke="white" stroke-width="2" stroke-linecap="round" stroke-linejoin="round"/>
    <defs>
        <linearGradient id="paint0_linear_338_7808" x1="14.1714" y1="13.0286" x2="24.5714" y2="32" gradientUnits="userSpaceOnUse">
            <stop stop-color="#42D405"/>
            <stop offset="1" stop-color="#226E03"/>
        </linearGradient>
    </defs>
</svg>
