<svg width="32" height="32" viewBox="0 0 32 32" fill="none" xmlns="http://www.w3.org/2000/svg">
    <mask id="mask0_5057_1792" style="mask-type:alpha" maskUnits="userSpaceOnUse" x="0" y="0" width="32" height="32">
        <rect width="32" height="32" fill="#D9D9D9"/>
    </mask>
    <g mask="url(#mask0_5057_1792)">
        <g clip-path="url(#clip0_5057_1792)">
            <path d="M8.02635 27.9351H6.04541V29.916H8.02635V27.9351Z" fill="#80887E"/>
            <path d="M8.02635 20.0125H6.04541V21.9934H8.02635V20.0125Z" fill="#80887E"/>
            <path d="M10.0066 25.9546H8.02563V27.9355H10.0066V25.9546Z" fill="#80887E"/>
            <path d="M11.9875 23.9736H10.0066V25.9546H11.9875V23.9736Z" fill="#80887E"/>
            <path d="M6.04539 25.9546H4.06445V27.9355H6.04539V25.9546Z" fill="#80887E"/>
            <path d="M4.06492 23.9736H2.08398V25.9546H4.06492V23.9736Z" fill="#80887E"/>
            <path d="M6.04539 21.9934H4.06445V23.9743H6.04539V21.9934Z" fill="#80887E"/>
            <path d="M6.04534 18.0322H1.98096V20.0132H6.04534V18.0322Z" fill="#80887E"/>
            <path d="M6.04534 11.9868H1.98096V13.9678H6.04534V11.9868Z" fill="#80887E"/>
            <path d="M1.98022 18.0322L1.98022 13.9678H-0.000712752L-0.000712752 18.0322H1.98022Z" fill="#80887E"/>
            <path d="M4.06445 8.02635V6.04541H2.08352V8.02635H4.06445Z" fill="#80887E"/>
            <path d="M11.9868 8.02635V6.04541H10.0059V8.02635H11.9868Z" fill="#80887E"/>
            <path d="M6.04541 10.0066V8.02563H4.06447V10.0066H6.04541Z" fill="#80887E"/>
            <path d="M8.02563 11.9875V10.0066H6.0447V11.9875H8.02563Z" fill="#80887E"/>
            <path d="M6.04541 6.04539V4.06445H4.06447V6.04539H6.04541Z" fill="#80887E"/>
            <path d="M8.02563 4.06492V2.08398H6.0447V4.06492H8.02563Z" fill="#80887E"/>
            <path d="M10.0066 6.04539V4.06445H8.02565V6.04539H10.0066Z" fill="#80887E"/>
            <path d="M23.9737 4.06445H25.9546V2.08352H23.9737V4.06445Z" fill="#80887E"/>
            <path d="M23.9737 11.9868H25.9546V10.0059H23.9737V11.9868Z" fill="#80887E"/>
            <path d="M21.9927 6.04541H23.9736V4.06447H21.9927V6.04541Z" fill="#80887E"/>
            <path d="M20.0125 8.02563H21.9934V6.0447H20.0125V8.02563Z" fill="#80887E"/>
            <path d="M25.9541 6.04541H27.9351V4.06447H25.9541V6.04541Z" fill="#80887E"/>
            <path d="M27.9351 8.02563H29.916V6.0447H27.9351V8.02563Z" fill="#80887E"/>
            <path d="M25.9541 10.0066H27.9351V8.02565H25.9541V10.0066Z" fill="#80887E"/>
            <path d="M25.9547 13.9678H30.019V11.9868H25.9547V13.9678Z" fill="#80887E"/>
            <path d="M25.9547 20.0125H30.019V18.0315H25.9547V20.0125Z" fill="#80887E"/>
            <path d="M30.0198 13.9678V18.0322H32.0007V13.9678H30.0198Z" fill="#80887E"/>
            <path d="M27.9351 23.9737V25.9546H29.916V23.9737H27.9351Z" fill="#80887E"/>
            <path d="M20.0125 23.9737V25.9546H21.9934V23.9737H20.0125Z" fill="#80887E"/>
            <path d="M18.0315 17.8133V19.7942H20.0124V17.8133H18.0315Z" fill="#80887E"/>
            <path d="M11.9868 17.8133V19.7942H13.9678V17.8133H11.9868Z" fill="#80887E"/>
            <path d="M25.9546 21.9927V23.9736H27.9355V21.9927H25.9546Z" fill="#80887E"/>
            <path d="M23.9736 20.0125V21.9934H25.9546V20.0125H23.9736Z" fill="#80887E"/>
            <path d="M25.9546 25.9541V27.9351H27.9355V25.9541H25.9546Z" fill="#80887E"/>
            <path d="M23.9736 27.9351V29.916H25.9546V27.9351H23.9736Z" fill="#80887E"/>
            <path d="M21.9934 25.9541V27.9351H23.9743V25.9541H21.9934Z" fill="#80887E"/>
            <path d="M13.9678 6.04461V1.98022L11.9868 1.98022V6.04461H13.9678Z" fill="#80887E"/>
            <path d="M20.0132 6.0446V1.98022L18.0322 1.98022V6.0446H20.0132Z" fill="#80887E"/>
            <path d="M13.9678 1.98096L18.0322 1.98096V1.96695e-05L13.9678 1.96695e-05V1.98096Z" fill="#80887E"/>
            <path d="M18.0322 25.9547V30.019H20.0132V25.9547H18.0322Z" fill="#80887E"/>
            <path d="M11.9868 25.9547V30.019H13.9678V25.9547H11.9868Z" fill="#80887E"/>
            <path d="M18.0322 30.019H13.9678V32H18.0322V30.019Z" fill="#80887E"/>
            <path d="M18.0322 19.7942H13.9678V21.7751H18.0322V19.7942Z" fill="#80887E"/>
            <path d="M11.9875 17.8071V13.7427H10.0066V17.8071H11.9875Z" fill="#80887E"/>
            <path d="M21.9934 17.8071V13.7427H20.0125V17.8071H21.9934Z" fill="#80887E"/>
            <path d="M13.9678 13.7427V11.7617H11.9868V13.7427H13.9678Z" fill="#80887E"/>
            <path d="M20.0132 13.7427V11.7617H18.0322V13.7427H20.0132Z" fill="#80887E"/>
            <path d="M13.9678 11.7617H18.0322V9.78078H13.9678V11.7617Z" fill="#80887E"/>
        </g>
    </g>
    <defs>
        <clipPath id="clip0_5057_1792">
            <rect width="32" height="32" fill="white"/>
        </clipPath>
    </defs>
</svg>
