<svg width="20" height="13" viewBox="0 0 20 13" fill="none" xmlns="http://www.w3.org/2000/svg">
    <path d="M1.458 13L0.864 11.524L4.644 7.294C4.86 7.078 5.082 6.832 5.31 6.556C5.538 6.268 5.754 5.974 5.958 5.674C6.174 5.362 6.348 5.062 6.48 4.774C6.612 4.474 6.678 4.198 6.678 3.946C6.678 3.622 6.606 3.34 6.462 3.1C6.33 2.86 6.138 2.674 5.886 2.542C5.634 2.41 5.322 2.344 4.95 2.344C4.626 2.344 4.308 2.44 3.996 2.632C3.696 2.812 3.414 3.076 3.15 3.424C2.898 3.76 2.688 4.162 2.52 4.63L0.756 3.586C0.972 2.89 1.296 2.29 1.728 1.786C2.172 1.27 2.688 0.874 3.276 0.598C3.876 0.322 4.524 0.184 5.22 0.184C5.94 0.184 6.582 0.334 7.146 0.633999C7.71 0.933999 8.154 1.348 8.478 1.876C8.814 2.404 8.982 3.022 8.982 3.73C8.982 3.994 8.952 4.27 8.892 4.558C8.832 4.834 8.736 5.128 8.604 5.44C8.484 5.74 8.322 6.058 8.118 6.394C7.914 6.718 7.668 7.06 7.38 7.42C7.104 7.78 6.786 8.158 6.426 8.554L3.564 11.668L3.204 10.84H9.432V13H1.458ZM17.2953 13L14.5953 9.346L14.0913 8.662L10.1853 3.514H12.9213L15.5493 7.078L16.1073 7.834L19.9773 13H17.2953ZM10.1673 13L13.9293 7.96L15.1893 9.472L12.7773 13H10.1673ZM16.1073 8.572L14.9013 7.078L17.0793 3.514H19.6893L16.1073 8.572Z" fill="white"/>
</svg>
